<svg width="24" height="24" viewBox="0 0 24 24" fill="none" xmlns="http://www.w3.org/2000/svg">
<path fill-rule="evenodd" clip-rule="evenodd" d="M19.3002 4.51011C19.5949 4.8012 19.5978 5.27606 19.3067 5.57076L12.5096 12.4521C12.4871 12.4824 12.4619 12.5114 12.4342 12.5388C12.4111 12.5617 12.3868 12.5827 12.3616 12.602L5.56447 19.4833C5.27339 19.778 4.79852 19.781 4.50383 19.4899C4.20914 19.1988 4.20621 18.7239 4.4973 18.4292L10.8478 12L4.4973 5.57076C4.20621 5.27606 4.20914 4.8012 4.50383 4.51012C4.79852 4.21903 5.27339 4.22196 5.56447 4.51665L11.902 10.9327L18.2396 4.51665C18.5306 4.22196 19.0055 4.21903 19.3002 4.51011ZM14.7919 13.6392C14.5011 13.3442 14.0262 13.3408 13.7312 13.6315C13.4362 13.9223 13.4328 14.3972 13.7235 14.6922L18.4452 19.4828C18.7359 19.7778 19.2108 19.7812 19.5058 19.4905C19.8008 19.1997 19.8043 18.7249 19.5135 18.4298L14.7919 13.6392Z" fill="#292524"/>
</svg>
