<?xml version="1.0" encoding="UTF-8" standalone="no"?>
<svg
   width="24"
   height="24"
   viewBox="0 0 24 24"
   fill="none"
   version="1.1"
   id="svg8"
   sodipodi:docname="edit.svg"
   inkscape:version="1.2.2 (b0a84865, 2022-12-01)"
   xmlns:inkscape="http://www.inkscape.org/namespaces/inkscape"
   xmlns:sodipodi="http://sodipodi.sourceforge.net/DTD/sodipodi-0.dtd"
   xmlns="http://www.w3.org/2000/svg"
   xmlns:svg="http://www.w3.org/2000/svg">
  <defs
     id="defs12" />
  <sodipodi:namedview
     id="namedview10"
     pagecolor="#ffffff"
     bordercolor="#000000"
     borderopacity="0.25"
     inkscape:showpageshadow="2"
     inkscape:pageopacity="0.0"
     inkscape:pagecheckerboard="0"
     inkscape:deskcolor="#d1d1d1"
     showgrid="false"
     inkscape:zoom="9.8333333"
     inkscape:cx="12.508475"
     inkscape:cy="12.711864"
     inkscape:window-width="1364"
     inkscape:window-height="594"
     inkscape:window-x="1069"
     inkscape:window-y="1431"
     inkscape:window-maximized="0"
     inkscape:current-layer="svg8" />
  <path
     d="M14.8098 9.61002L15.8698 10.7L10.0098 16.58L7.33984 17.07L7.81984 14.39L13.6698 8.52002L14.8098 9.61002Z"
     fill="#242424"
     id="path2"
     style="fill:#000000" />
  <path
     d="M14.3999 7.81001L14.6499 7.57001C14.795 7.42307 14.9678 7.3064 15.1584 7.22677C15.3489 7.14714 15.5534 7.10614 15.7599 7.10614C15.9664 7.10614 16.1709 7.14714 16.3614 7.22677C16.552 7.3064 16.7248 7.42307 16.8699 7.57001C17.1618 7.86571 17.3255 8.2645 17.3255 8.68001C17.3255 9.09552 17.1618 9.49431 16.8699 9.79001L16.6299 10.02L14.3999 7.81001Z"
     fill="#242424"
     id="path4"
     style="fill:#000000" />
  <path
     style="color:#000000;fill:#000000;stroke-linecap:round;stroke-linejoin:round;-inkscape-stroke:none"
     d="M 12,1.25 C 6.0718263,1.25 1.25,6.0718263 1.25,12 1.25,17.928127 6.0718217,22.75 12,22.75 17.928132,22.75 22.75,17.928132 22.75,12 22.75,6.0718217 17.928127,1.25 12,1.25 Z m 0,1.5 c 5.117462,0 9.25,4.1324893 9.25,9.25 0,5.117457 -4.132543,9.25 -9.25,9.25 C 6.8824893,21.25 2.75,17.117462 2.75,12 2.75,6.8824848 6.8824848,2.75 12,2.75 Z"
     id="path6" />
</svg>
