<!-- Generated by IcoMoon.io -->
<svg version="1.1" xmlns="http://www.w3.org/2000/svg" width="32" height="32" viewBox="0 0 32 32">
<title>home</title>
<path d="M15.758 3.245c0.374-0.325 0.93-0.327 1.306-0.004l13.933 11.933c0.419 0.359 0.468 0.991 0.109 1.41s-0.991 0.468-1.41 0.109l-3.069-2.629v14.123c0 0.552-0.448 1-1 1h-18.253c-0.552 0-1-0.448-1-1s0.448-1 1-1h17.253v-14.836l-8.209-7.031-8.053 6.99c0.005 0.042 0.008 0.085 0.008 0.129v10.893c0 0.552-0.448 1-1 1s-1-0.448-1-1v-9.293l-3.051 2.649c-0.417 0.362-1.049 0.317-1.411-0.1s-0.317-1.049 0.1-1.411l13.747-11.933z"></path>
</svg>
