<svg width="48" height="48" viewBox="0 0 48 48" fill="none" xmlns="http://www.w3.org/2000/svg">
<path fill-rule="evenodd" clip-rule="evenodd" d="M13.2989 11.4654C16.4826 8.7449 20.5796 7.3333 24.7633 7.51542C28.947 7.69754 32.9059 9.45983 35.8411 12.4467C38.7762 15.4335 40.4692 19.4225 40.5783 23.6087C40.6875 27.795 39.2046 31.8668 36.4291 35.0025C33.6535 38.1382 29.7918 40.1043 25.6233 40.5042C21.4547 40.9041 17.2897 39.7078 13.9687 37.1569C13.5307 36.8205 12.9029 36.9028 12.5665 37.3408C12.23 37.7788 12.3124 38.4066 12.7504 38.743C16.473 41.6024 21.1416 42.9433 25.8142 42.4951C30.4868 42.0469 34.8154 39.843 37.9266 36.3281C41.0378 32.8132 42.7 28.2491 42.5777 23.5566C42.4553 18.8642 40.5577 14.3928 37.2675 11.0448C33.9774 7.69684 29.5399 5.72146 24.8503 5.51731C20.1607 5.31317 15.5682 6.89545 11.9996 9.94488C8.43104 12.9943 6.15198 17.2838 5.62235 21.9479C5.09272 26.6119 6.35196 31.3033 9.14595 35.0752C9.47468 35.519 10.1009 35.6123 10.5447 35.2835C10.9885 34.9548 11.0818 34.3286 10.7531 33.8848C8.26048 30.5197 7.13708 26.3345 7.60958 22.1736C8.08207 18.0126 10.1153 14.1858 13.2989 11.4654ZM32.4766 19.1271C32.8672 18.7366 32.8672 18.1034 32.4766 17.7129C32.0861 17.3224 31.453 17.3224 31.0624 17.7129L20.5295 28.2458L16.3566 24.0729C15.9661 23.6824 15.333 23.6824 14.9424 24.0729C14.5519 24.4634 14.5519 25.0966 14.9424 25.4871L19.8224 30.3671C20.01 30.5547 20.2643 30.66 20.5295 30.66C20.7948 30.66 21.0491 30.5547 21.2366 30.3671L32.4766 19.1271Z" fill="#292524"/>
</svg>
