<!-- Generated by IcoMoon.io -->
<svg version="1.1" xmlns="http://www.w3.org/2000/svg" width="32" height="32" viewBox="0 0 32 32">
<title>person</title>
<path d="M16.388 3c-4.186 0-7.599 3.413-7.599 7.599s3.413 7.602 7.599 7.602c4.186 0 7.602-3.416 7.602-7.602s-3.416-7.599-7.602-7.599zM16.388 5c3.105 0 5.602 2.494 5.602 5.599s-2.497 5.602-5.602 5.602c-3.105 0-5.599-2.497-5.599-5.602s2.494-5.599 5.599-5.599z"></path>
<path d="M16.643 16.336c-3.037-0.062-5.986 1.020-8.263 3.031-2.268 2.004-3.697 4.79-4.016 7.799-0.045 0.298-0.034 0.603 0.047 0.893 0.083 0.3 0.23 0.58 0.432 0.818s0.454 0.427 0.737 0.557c0.282 0.13 0.59 0.198 0.901 0.198h16c0.552 0 1-0.448 1-1v0c0-0.552-0.448-1-1-1v0h-16c-0 0-0.001 0-0.001 0s-0.001 0-0.001 0h0c-0.021 0-0.040-0.004-0.060-0.013s-0.038-0.023-0.052-0.039c-0.014-0.016-0.023-0.034-0.029-0.055s-0.006-0.042-0.003-0.063c0.003-0.015 0.005-0.037 0.008-0.058l0-0.004c0.261-2.523 1.458-4.854 3.359-6.534s4.365-2.583 6.901-2.531c2.536 0.052 4.959 1.054 6.789 2.81 1.828 1.754 2.929 4.131 3.089 6.659v0.776c0 0.552 0.448 1 1 1v0c0.552 0 1-0.448 1-1v0-0.828c-0-0.023-0.001-0.044-0.003-0.066l0 0.003c-0.188-3.032-1.508-5.884-3.7-7.987s-5.098-3.305-8.135-3.367z"></path>
</svg>
