<?xml version="1.0" encoding="UTF-8" standalone="no"?>
<svg
   width="18"
   height="18"
   viewBox="0 0 18 18"
   fill="none"
   version="1.1"
   id="svg8"
   sodipodi:docname="Plus.svg"
   inkscape:version="1.2.2 (b0a84865, 2022-12-01)"
   xmlns:inkscape="http://www.inkscape.org/namespaces/inkscape"
   xmlns:sodipodi="http://sodipodi.sourceforge.net/DTD/sodipodi-0.dtd"
   xmlns="http://www.w3.org/2000/svg"
   xmlns:svg="http://www.w3.org/2000/svg">
  <defs
     id="defs12" />
  <sodipodi:namedview
     id="namedview10"
     pagecolor="#ffffff"
     bordercolor="#000000"
     borderopacity="0.25"
     inkscape:showpageshadow="2"
     inkscape:pageopacity="0.0"
     inkscape:pagecheckerboard="0"
     inkscape:deskcolor="#d1d1d1"
     showgrid="false"
     inkscape:zoom="13.111111"
     inkscape:cx="9.5338983"
     inkscape:cy="9.4576271"
     inkscape:window-width="1496"
     inkscape:window-height="694"
     inkscape:window-x="1070"
     inkscape:window-y="1340"
     inkscape:window-maximized="0"
     inkscape:current-layer="svg8" />
  <path
     style="color:#000000;fill:#000000;stroke-linecap:round;-inkscape-stroke:none"
     d="M 8.9492188,0.50976562 A 1,1 0 0 0 7.9492187,1.5097656 V 16.492187 a 1,1 0 0 0 1.0000001,1 1,1 0 0 0 1,-1 V 1.5097656 a 1,1 0 0 0 -1,-0.99999998 z"
     id="path2" />
  <path
     style="color:#000000;fill:#000000;stroke-linecap:round;-inkscape-stroke:none"
     d="M 1.4589844,8 A 1,1 0 0 0 0.45898438,9 1,1 0 0 0 1.4589844,10 h 7.4902344 a 1,1 0 0 0 1,-1 1,1 0 0 0 -1,-1 z"
     id="path4" />
  <path
     style="color:#000000;fill:#000000;stroke-linecap:round;-inkscape-stroke:none"
     d="m 12.353516,7.8945312 a 1,1 0 0 0 -1,1.0000001 1,1 0 0 0 1,1 h 4.193359 a 1,1 0 0 0 1,-1 1,1 0 0 0 -0.998047,-1.0000001 z"
     id="path6" />
</svg>
