<?xml version="1.0" encoding="UTF-8" standalone="no"?>
<svg
   width="24"
   height="24"
   viewBox="0 0 24 24"
   fill="none"
   version="1.1"
   id="svg4"
   sodipodi:docname="plus-thin.svg"
   inkscape:version="1.2.2 (b0a84865, 2022-12-01)"
   xmlns:inkscape="http://www.inkscape.org/namespaces/inkscape"
   xmlns:sodipodi="http://sodipodi.sourceforge.net/DTD/sodipodi-0.dtd"
   xmlns="http://www.w3.org/2000/svg"
   xmlns:svg="http://www.w3.org/2000/svg">
  <defs
     id="defs8" />
  <sodipodi:namedview
     id="namedview6"
     pagecolor="#ffffff"
     bordercolor="#000000"
     borderopacity="0.25"
     inkscape:showpageshadow="2"
     inkscape:pageopacity="0.0"
     inkscape:pagecheckerboard="0"
     inkscape:deskcolor="#d1d1d1"
     showgrid="false"
     inkscape:zoom="9.8333333"
     inkscape:cx="12.305085"
     inkscape:cy="12.610169"
     inkscape:window-width="1605"
     inkscape:window-height="826"
     inkscape:window-x="0"
     inkscape:window-y="44"
     inkscape:window-maximized="0"
     inkscape:current-layer="svg4" />
  <path
     fill-rule="evenodd"
     clip-rule="evenodd"
     d="m 11.867364,1.5454446 c 0.414216,-0.00255 0.752043,0.3311735 0.754589,0.7453966 l 0.05957,9.6721178 c 0.0055,0.03734 0.0082,0.07566 0.008,0.114622 -1.42e-4,0.03253 -0.0025,0.06456 -0.0066,0.09602 l 0.05952,9.672111 c 0.0026,0.414209 -0.331103,0.752114 -0.745319,0.754652 -0.414216,0.0025 -0.752093,-0.331194 -0.754645,-0.74541 l -0.05565,-9.036613 -9.0366406,-0.05568 c -0.4142161,-0.0026 -0.747921,-0.340401 -0.7453683,-0.754603 0.00255,-0.414209 0.3404012,-0.747921 0.7546031,-0.745368 l 9.0181428,0.05552 -0.05547,-9.0181924 c -0.0026,-0.4141454 0.331124,-0.7520222 0.745333,-0.754582 z m 3.267392,9.6430914 c -0.414224,-0.003 -0.752433,0.330431 -0.755473,0.744583 -0.003,0.414223 0.330431,0.752432 0.744583,0.755473 l 6.726212,0.04872 c 0.414152,0.003 0.752362,-0.330361 0.755402,-0.744513 0.003,-0.414223 -0.330289,-0.752432 -0.744583,-0.755473 z"
     fill="#292524"
     id="path2" />
</svg>
