<svg width="38" height="38" viewBox="0 0 38 38" fill="none" xmlns="http://www.w3.org/2000/svg">
<path fill-rule="evenodd" clip-rule="evenodd" d="M8.29891 6.46537C11.4826 3.7449 15.5796 2.3333 19.7633 2.51542C23.947 2.69754 27.9059 4.45983 30.8411 7.44666C33.7762 10.4335 35.4692 14.4225 35.5783 18.6087C35.6875 22.795 34.2046 26.8668 31.4291 30.0025C28.6535 33.1382 24.7918 35.1043 20.6233 35.5042C16.4547 35.9041 12.2897 34.7078 8.96866 32.1569C8.53067 31.8205 7.90288 31.9028 7.56645 32.3408C7.23003 32.7788 7.31237 33.4066 7.75036 33.743C11.473 36.6024 16.1416 37.9433 20.8142 37.4951C25.4868 37.0469 29.8154 34.843 32.9266 31.3281C36.0378 27.8132 37.7 23.2491 37.5777 18.5566C37.4553 13.8642 35.5577 9.39283 32.2675 6.04484C28.9774 2.69684 24.5399 0.721458 19.8503 0.517312C15.1607 0.313167 10.5682 1.89545 6.99964 4.94488C3.43104 7.99431 1.15198 12.2838 0.622349 16.9479C0.0927206 21.6119 1.35196 26.3033 4.14595 30.0752C4.47468 30.519 5.10094 30.6123 5.54473 30.2835C5.98853 29.9548 6.0818 29.3286 5.75307 28.8848C3.26048 25.5197 2.13708 21.3345 2.60958 17.1736C3.08207 13.0126 5.11528 9.18584 8.29891 6.46537ZM18.9995 9.00002C19.5518 9.00002 19.9995 9.44773 19.9995 10L19.9995 22C19.9995 22.5523 19.5518 23 18.9995 23C18.4472 23 17.9995 22.5523 17.9995 22L17.9995 10C17.9995 9.44773 18.4472 9.00001 18.9995 9.00002ZM19.0272 24.9692C19.5795 24.9675 20.0286 25.4139 20.0303 25.9661L20.0367 28.0341C20.0384 28.5864 19.592 29.0355 19.0398 29.0372C18.4875 29.0389 18.0384 28.5925 18.0367 28.0403L18.0303 25.9723C18.0286 25.42 18.4749 24.9709 19.0272 24.9692Z" fill="#292524"/>
</svg>
