<?xml version="1.0" encoding="utf-8"?>
<!-- Generator: Adobe Illustrator 27.0.0, SVG Export Plug-In . SVG Version: 6.00 Build 0)  -->
<svg version="1.1" id="Layer_1" xmlns="http://www.w3.org/2000/svg" xmlns:xlink="http://www.w3.org/1999/xlink" x="0px" y="0px"
	 viewBox="0 0 48 48" style="enable-background:new 0 0 48 48;" xml:space="preserve">
<g>
	<path d="M23,43.8c-2.9,0-5.4-1-7.4-3c-2.1-2-3.1-4.5-3.1-7.4v-22c0-2.1,0.7-3.8,2.2-5.3C16.1,4.7,17.9,4,19.9,4
		c2.1,0,3.8,0.7,5.3,2.2c1.5,1.5,2.2,3.2,2.2,5.3v20c0,1.2-0.4,2.3-1.3,3.1c-0.8,0.9-1.9,1.3-3.1,1.3c-1.2,0-2.3-0.5-3.1-1.4
		c-0.8-0.9-1.3-2-1.3-3.3V11.3h1.7v20c0,0.8,0.3,1.5,0.8,2c0.5,0.6,1.2,0.8,2,0.8c0.8,0,1.4-0.3,2-0.8c0.5-0.5,0.8-1.2,0.8-2V11.4
		c0-1.6-0.6-3-1.7-4.1c-1.1-1.1-2.5-1.7-4.1-1.7c-1.6,0-3,0.6-4.1,1.7c-1.1,1.1-1.7,2.5-1.7,4.1v22.1c0,2.4,0.9,4.5,2.6,6.1
		c1.7,1.7,3.8,2.5,6.3,2.5c2.5,0,4.6-0.8,6.3-2.5c1.7-1.7,2.6-3.8,2.6-6.2v-22h1.7v22c0,2.9-1,5.4-3.1,7.4
		C28.4,42.8,25.9,43.8,23,43.8z"/>
</g>
</svg>
