<?xml version="1.0" encoding="utf-8"?>
<!-- Generator: Adobe Illustrator 27.0.0, SVG Export Plug-In . SVG Version: 6.00 Build 0)  -->
<svg version="1.1" id="Layer_1" xmlns="http://www.w3.org/2000/svg" xmlns:xlink="http://www.w3.org/1999/xlink" x="0px" y="0px"
	 viewBox="0 0 48 48" style="enable-background:new 0 0 48 48;" xml:space="preserve">
<g>
	<path d="M38.8,41c-3.5,0-7.2-0.9-11-2.7c-3.8-1.8-7.3-4.3-10.5-7.6C14,27.5,11.5,24,9.7,20.2C7.9,16.4,7,12.8,7,9.2
		c0-0.6,0.2-1.2,0.6-1.6C8.1,7.2,8.6,7,9.2,7h5.7c0.5,0,1,0.2,1.3,0.5c0.4,0.3,0.6,0.8,0.8,1.3l1.2,5.4c0.1,0.5,0.1,1-0.1,1.4
		c-0.1,0.4-0.3,0.7-0.6,1l-4.7,4.6c0.9,1.5,1.8,2.9,2.8,4.3c1,1.3,2.1,2.5,3.2,3.7c1.2,1.3,2.6,2.4,4,3.5c1.4,1.1,2.9,2,4.5,2.9
		l4.5-4.7c0.3-0.4,0.7-0.6,1.1-0.7c0.4-0.1,0.8-0.2,1.3-0.1l4.9,1.1c0.5,0.1,1,0.4,1.3,0.8c0.3,0.4,0.5,0.9,0.5,1.4v5.5
		c0,0.6-0.2,1.2-0.6,1.6C39.9,40.8,39.4,41,38.8,41z M11.7,19.1l4.1-4l0.1-0.2l0-0.2l-1.1-5.1c0-0.1-0.1-0.2-0.1-0.2
		c-0.1-0.1-0.2-0.1-0.3-0.1H9.5L9.3,9.3L9.3,9.5c0,1.4,0.2,2.9,0.6,4.4C10.3,15.5,10.9,17.3,11.7,19.1z M29.5,36.6
		c1.4,0.7,2.9,1.2,4.5,1.6c1.6,0.4,3.1,0.6,4.5,0.6l0.2-0.1l0.1-0.2v-4.9c0-0.1,0-0.2-0.1-0.3c-0.1-0.1-0.1-0.1-0.2-0.1l-4.5-0.9
		l-0.2,0l-0.2,0.1L29.5,36.6z"/>
</g>
</svg>
