<?xml version="1.0" encoding="utf-8"?>
<!-- Generator: Adobe Illustrator 27.0.0, SVG Export Plug-In . SVG Version: 6.00 Build 0)  -->
<svg version="1.1" id="Layer_1" xmlns="http://www.w3.org/2000/svg" xmlns:xlink="http://www.w3.org/1999/xlink" x="0px" y="0px"
	 viewBox="0 0 48 48" style="enable-background:new 0 0 48 48;" xml:space="preserve">
<g>
	<path d="M12.5,27.5h14.7v-2.3H12.5V27.5z M12.5,21.2h23v-2.3h-23V21.2z M12.5,14.8h23v-2.3h-23V14.8z M5,42.1V7.9
		c0-0.8,0.3-1.5,0.9-2S7.1,5,7.9,5h32.2c0.8,0,1.5,0.3,2,0.9c0.6,0.6,0.9,1.2,0.9,2v24.2c0,0.8-0.3,1.5-0.9,2
		c-0.6,0.6-1.2,0.9-2,0.9h-28L5,42.1z M11.1,32.7h29c0.2,0,0.3-0.1,0.4-0.2c0.1-0.1,0.2-0.3,0.2-0.4V7.9c0-0.2-0.1-0.3-0.2-0.4
		c-0.1-0.1-0.3-0.2-0.4-0.2H7.9c-0.2,0-0.3,0.1-0.4,0.2C7.3,7.6,7.3,7.7,7.3,7.9v28.9L11.1,32.7z M7.3,32.7V7.3V32.7z"/>
</g>
</svg>
