<?xml version="1.0" encoding="utf-8"?>
<!-- Generator: Adobe Illustrator 27.0.0, SVG Export Plug-In . SVG Version: 6.00 Build 0)  -->
<svg version="1.1" id="Layer_1" xmlns="http://www.w3.org/2000/svg" xmlns:xlink="http://www.w3.org/1999/xlink" x="0px" y="0px"
	 viewBox="0 0 48 48" style="enable-background:new 0 0 48 48;" xml:space="preserve">
<g>
	<path d="M9.9,41c-0.8,0-1.5-0.3-2-0.9S7,38.9,7,38.1V9.9c0-0.8,0.3-1.5,0.9-2C8.4,7.3,9.1,7,9.9,7h28.2c0.8,0,1.5,0.3,2,0.9
		c0.6,0.6,0.9,1.2,0.9,2v28.2c0,0.8-0.3,1.5-0.9,2c-0.6,0.6-1.2,0.9-2,0.9L9.9,41z M9.9,38.7h28.2c0.2,0,0.3-0.1,0.4-0.2
		c0.1-0.1,0.2-0.3,0.2-0.4V9.9c0-0.2-0.1-0.3-0.2-0.4c-0.1-0.1-0.3-0.2-0.4-0.2H9.9c-0.2,0-0.3,0.1-0.4,0.2C9.3,9.6,9.3,9.7,9.3,9.9
		v28.2c0,0.2,0.1,0.3,0.2,0.4C9.6,38.7,9.7,38.7,9.9,38.7z"/>
	<polygon points="21.1,32 34.9,18.2 32.7,16 21.1,27.7 15.3,21.8 13.1,24 	"/>
</g>
</svg>
