<?xml version="1.0" encoding="utf-8"?>
<!-- Generator: Adobe Illustrator 27.0.0, SVG Export Plug-In . SVG Version: 6.00 Build 0)  -->
<svg version="1.1" id="Layer_1" xmlns="http://www.w3.org/2000/svg" xmlns:xlink="http://www.w3.org/1999/xlink" x="0px" y="0px"
	 viewBox="0 0 48 48" style="enable-background:new 0 0 48 48;" xml:space="preserve">
<g>
	<path d="M7.9,39c-0.8,0-1.5-0.3-2-0.9S5,36.9,5,36.1V11.9c0-0.8,0.3-1.5,0.9-2C6.4,9.3,7.1,9,7.9,9h32.2c0.8,0,1.5,0.3,2,0.9
		c0.6,0.6,0.9,1.2,0.9,2v24.2c0,0.8-0.3,1.5-0.9,2c-0.6,0.6-1.2,0.9-2,0.9L7.9,39z M7.9,36.7h32.2c0.2,0,0.3-0.1,0.4-0.2
		c0.1-0.1,0.2-0.3,0.2-0.4V15.4H7.3v20.7c0,0.2,0.1,0.3,0.2,0.4C7.6,36.7,7.7,36.7,7.9,36.7z"/>
</g>
</svg>
