<?xml version="1.0" encoding="utf-8"?>
<!-- Generator: Adobe Illustrator 27.0.0, SVG Export Plug-In . SVG Version: 6.00 Build 0)  -->
<svg version="1.1" id="Layer_1" xmlns="http://www.w3.org/2000/svg" xmlns:xlink="http://www.w3.org/1999/xlink" x="0px" y="0px"
	 viewBox="0 0 48 48" style="enable-background:new 0 0 48 48;" xml:space="preserve">
<g>
	<path d="M9.9,41c-0.8,0-1.5-0.3-2-0.9c-0.6-0.6-0.9-1.2-0.9-2V9.9c0-0.8,0.3-1.5,0.9-2C8.4,7.3,9.1,7,9.9,7h28.2
		c0.8,0,1.5,0.3,2,0.9c0.6,0.6,0.9,1.2,0.9,2v28.2c0,0.8-0.3,1.5-0.9,2c-0.6,0.6-1.2,0.9-2,0.9H9.9z M9.9,38.7h28.2
		c0.2,0,0.3-0.1,0.4-0.2c0.1-0.1,0.2-0.3,0.2-0.4V13.3H9.3v24.8c0,0.2,0.1,0.3,0.2,0.4S9.7,38.7,9.9,38.7z M14,23.1v-2.3h19.6v2.3
		H14z M14,31.1v-2.3h11.6v2.3H14z"/>
</g>
</svg>
