<?xml version="1.0" encoding="utf-8"?>
<!-- Generator: Adobe Illustrator 27.0.0, SVG Export Plug-In . SVG Version: 6.00 Build 0)  -->
<svg version="1.1" id="Layer_1" xmlns="http://www.w3.org/2000/svg" xmlns:xlink="http://www.w3.org/1999/xlink" x="0px" y="0px"
	 viewBox="0 0 48 48" style="enable-background:new 0 0 48 48;" xml:space="preserve">
<g>
	<path d="M15.9,36.5c-0.8,0-1.5-0.3-2-0.9c-0.6-0.6-0.9-1.2-0.9-2V7.9c0-0.8,0.3-1.5,0.9-2c0.6-0.6,1.2-0.9,2-0.9h19.7
		c0.8,0,1.5,0.3,2,0.9s0.9,1.2,0.9,2v25.7c0,0.8-0.3,1.5-0.9,2c-0.6,0.6-1.2,0.9-2,0.9H15.9z M15.9,34.2h19.7c0.2,0,0.3-0.1,0.4-0.2
		c0.1-0.1,0.2-0.3,0.2-0.4V7.9c0-0.2-0.1-0.3-0.2-0.4c-0.1-0.1-0.3-0.2-0.4-0.2H15.9c-0.2,0-0.3,0.1-0.4,0.2
		c-0.1,0.1-0.2,0.3-0.2,0.4v25.7c0,0.2,0.1,0.3,0.2,0.4C15.6,34.1,15.8,34.2,15.9,34.2z M10.4,42c-0.8,0-1.5-0.3-2-0.9
		c-0.6-0.6-0.9-1.2-0.9-2v-28h2.3v28c0,0.2,0.1,0.3,0.2,0.4c0.1,0.1,0.3,0.2,0.4,0.2h22V42H10.4z M15.3,34.2V7.3V34.2z"/>
</g>
</svg>
