<?xml version="1.0" encoding="utf-8"?>
<!-- Generator: Adobe Illustrator 27.0.0, SVG Export Plug-In . SVG Version: 6.00 Build 0)  -->
<svg version="1.1" id="Layer_1" xmlns="http://www.w3.org/2000/svg" xmlns:xlink="http://www.w3.org/1999/xlink" x="0px" y="0px"
	 viewBox="0 0 24 24" style="enable-background:new 0 0 24 24;" xml:space="preserve">
<g>
	<path d="M22,6v12c0,0.6-0.2,1-0.6,1.4S20.6,20,20,20H4c-0.5,0-1-0.2-1.4-0.6S2,18.6,2,18V6c0-0.5,0.2-1,0.6-1.4C3,4.2,3.5,4,4,4h16
		c0.6,0,1,0.2,1.4,0.6C21.8,5,22,5.5,22,6z M4,8h16V6H4V8z M4,12v6h16v-6H4z M4,18V6V18z"/>
</g>
</svg>
