<?xml version="1.0" encoding="utf-8"?>
<!-- Generator: Adobe Illustrator 27.0.0, SVG Export Plug-In . SVG Version: 6.00 Build 0)  -->
<svg version="1.1" id="Layer_1" xmlns="http://www.w3.org/2000/svg" xmlns:xlink="http://www.w3.org/1999/xlink" x="0px" y="0px"
	 viewBox="0 0 48 48" style="enable-background:new 0 0 48 48;" xml:space="preserve">
<g>
	<path d="M43,11.9v24.2c0,0.8-0.3,1.5-0.9,2s-1.2,0.9-2,0.9H7.9c-0.8,0-1.5-0.3-2-0.9S5,36.9,5,36.1V11.9c0-0.8,0.3-1.5,0.9-2
		C6.4,9.3,7.1,9,7.9,9h32.2c0.8,0,1.5,0.3,2,0.9C42.7,10.4,43,11.1,43,11.9z M7.3,17.1h33.5v-5.3c0-0.2-0.1-0.3-0.2-0.4
		c-0.1-0.1-0.3-0.2-0.4-0.2H7.9c-0.2,0-0.3,0.1-0.4,0.2c-0.1,0.1-0.2,0.3-0.2,0.4L7.3,17.1z M7.3,22.4v13.7c0,0.2,0.1,0.3,0.2,0.4
		c0.1,0.1,0.3,0.2,0.4,0.2h32.2c0.2,0,0.3-0.1,0.4-0.2c0.1-0.1,0.2-0.3,0.2-0.4V22.4H7.3z M7.3,36.7V11.3V36.7z"/>
</g>
</svg>
