<?xml version="1.0" encoding="utf-8"?>
<!-- Generator: Adobe Illustrator 27.0.0, SVG Export Plug-In . SVG Version: 6.00 Build 0)  -->
<svg version="1.1" id="Layer_1" xmlns="http://www.w3.org/2000/svg" xmlns:xlink="http://www.w3.org/1999/xlink" x="0px" y="0px"
	 viewBox="0 0 48 48" style="enable-background:new 0 0 48 48;" xml:space="preserve">
<g>
	<path d="M13.9,41c-0.8,0-1.5-0.3-2-0.9c-0.6-0.6-0.9-1.2-0.9-2V10.9H9V8.6h8.6V7.2h12.9v1.4H39v2.3h-2v27.2c0,0.8-0.3,1.5-0.9,2
		c-0.6,0.6-1.2,0.9-2,0.9H13.9z M34.7,10.9H13.3v27.2c0,0.2,0.1,0.3,0.2,0.4c0.1,0.1,0.3,0.2,0.4,0.2h20.2c0.2,0,0.3-0.1,0.4-0.2
		c0.1-0.1,0.2-0.3,0.2-0.4L34.7,10.9z M19.1,34.5h2.3V15.1h-2.3V34.5z M26.7,34.5h2.3V15.1h-2.3V34.5z M13.3,10.9v27.8V10.9z"/>
</g>
</svg>
