<?xml version="1.0" encoding="utf-8"?>
<!-- Generator: Adobe Illustrator 27.0.0, SVG Export Plug-In . SVG Version: 6.00 Build 0)  -->
<svg version="1.1" id="Layer_1" xmlns="http://www.w3.org/2000/svg" xmlns:xlink="http://www.w3.org/1999/xlink" x="0px" y="0px"
	 viewBox="0 0 48 48" style="enable-background:new 0 0 48 48;" xml:space="preserve">
<g>
	<path d="M13.9,45c-0.8,0-1.5-0.3-2-0.9c-0.6-0.6-0.9-1.2-0.9-2V5.9c0-0.8,0.3-1.5,0.9-2c0.6-0.6,1.2-0.9,2-0.9h20.2
		c0.8,0,1.5,0.3,2,0.9c0.6,0.6,0.9,1.2,0.9,2v36.2c0,0.8-0.3,1.5-0.9,2c-0.6,0.6-1.2,0.9-2,0.9L13.9,45L13.9,45z M13.3,37.4v4.8
		c0,0.2,0.1,0.3,0.2,0.4c0.1,0.1,0.3,0.2,0.4,0.2h20.2c0.2,0,0.3-0.1,0.4-0.2c0.1-0.1,0.2-0.3,0.2-0.4v-4.8H13.3z M24,41.4
		c0.4,0,0.7-0.1,1-0.4c0.3-0.3,0.4-0.6,0.4-1c0-0.4-0.1-0.7-0.4-1c-0.3-0.3-0.6-0.4-1-0.4s-0.7,0.1-1,0.4c-0.3,0.3-0.4,0.6-0.4,1
		c0,0.4,0.1,0.7,0.4,1C23.3,41.3,23.6,41.4,24,41.4z M13.3,35.1h21.5V9.7H13.3L13.3,35.1z M13.3,7.4h21.5V5.9c0-0.2-0.1-0.3-0.2-0.4
		c-0.1-0.1-0.3-0.2-0.4-0.2H13.9c-0.2,0-0.3,0.1-0.4,0.2c-0.1,0.1-0.2,0.3-0.2,0.4L13.3,7.4z M13.3,37.4v5.4V37.4z M13.3,7.4V5.3
		V7.4z"/>
</g>
</svg>
