<?xml version="1.0" encoding="utf-8"?>
<!-- Generator: Adobe Illustrator 27.0.0, SVG Export Plug-In . SVG Version: 6.00 Build 0)  -->
<svg version="1.1" id="Layer_1" xmlns="http://www.w3.org/2000/svg" xmlns:xlink="http://www.w3.org/1999/xlink" x="0px" y="0px"
	 viewBox="0 0 48 48" style="enable-background:new 0 0 48 48;" xml:space="preserve">
<g>
	<path d="M17.5,41v-2.3h4.2V34H7.9c-0.8,0-1.5-0.3-2-0.9c-0.6-0.6-0.9-1.2-0.9-2V9.9c0-0.8,0.3-1.5,0.9-2C6.4,7.3,7.1,7,7.9,7h32.2
		c0.8,0,1.5,0.3,2,0.9c0.6,0.6,0.9,1.2,0.9,2v21.2c0,0.8-0.3,1.5-0.9,2c-0.6,0.6-1.2,0.9-2,0.9H26.3v4.7h4.2V41H17.5z M7.9,31.7
		h32.2c0.2,0,0.3-0.1,0.4-0.2c0.1-0.1,0.2-0.3,0.2-0.4V9.9c0-0.2-0.1-0.3-0.2-0.4c-0.1-0.1-0.3-0.2-0.4-0.2H7.9
		c-0.2,0-0.3,0.1-0.4,0.2C7.3,9.6,7.3,9.7,7.3,9.9v21.2c0,0.2,0.1,0.3,0.2,0.4C7.6,31.7,7.7,31.7,7.9,31.7z M7.3,31.7V9.3V31.7z"/>
</g>
</svg>
