<?xml version="1.0" encoding="utf-8"?>
<!-- Generator: Adobe Illustrator 27.0.0, SVG Export Plug-In . SVG Version: 6.00 Build 0)  -->
<svg version="1.1" id="Layer_1" xmlns="http://www.w3.org/2000/svg" xmlns:xlink="http://www.w3.org/1999/xlink" x="0px" y="0px"
	 viewBox="0 0 24 24" style="enable-background:new 0 0 24 24;" xml:space="preserve">
<g>
	<path d="M7,23c-0.5,0-1-0.2-1.4-0.6S5,21.6,5,21V3c0-0.5,0.2-1,0.6-1.4C6,1.2,6.5,1,7,1h10c0.6,0,1,0.2,1.4,0.6C18.8,2,19,2.5,19,3
		v18c0,0.6-0.2,1-0.6,1.4S17.6,23,17,23H7z M7,18v3h10v-3H7z M12,20.5c0.3,0,0.5-0.1,0.7-0.3c0.2-0.2,0.3-0.4,0.3-0.7
		s-0.1-0.5-0.3-0.7c-0.2-0.2-0.4-0.3-0.7-0.3s-0.5,0.1-0.7,0.3C11.1,19,11,19.2,11,19.5s0.1,0.5,0.3,0.7
		C11.5,20.4,11.7,20.5,12,20.5z M7,16h10V6H7V16z M7,4h10V3H7V4z M7,18v3V18z M7,4V3V4z"/>
</g>
</svg>
