<?xml version="1.0" encoding="utf-8"?>
<!-- Generator: Adobe Illustrator 27.0.0, SVG Export Plug-In . SVG Version: 6.00 Build 0)  -->
<svg version="1.1" id="Layer_1" xmlns="http://www.w3.org/2000/svg" xmlns:xlink="http://www.w3.org/1999/xlink" x="0px" y="0px"
	 viewBox="0 0 48 48" style="enable-background:new 0 0 48 48;" xml:space="preserve">
<g>
	<path d="M9.3,38.7h2l23.4-23.4l-2-2L9.3,36.7L9.3,38.7z M7,41v-5.2L35.1,7.7c0.2-0.2,0.5-0.3,0.7-0.5C36.1,7.1,36.4,7,36.7,7
		c0.3,0,0.6,0.1,0.8,0.2c0.3,0.1,0.5,0.3,0.8,0.5l2,2c0.2,0.2,0.4,0.5,0.5,0.8c0.1,0.3,0.2,0.6,0.2,0.8c0,0.3-0.1,0.6-0.2,0.9
		c-0.1,0.3-0.3,0.5-0.5,0.7L12.2,41L7,41z M38.7,11.3l-2-2L38.7,11.3z M33.7,14.3l-1-1l2,2L33.7,14.3z"/>
</g>
</svg>
