<?xml version="1.0" encoding="utf-8"?>
<!-- Generator: Adobe Illustrator 27.0.0, SVG Export Plug-In . SVG Version: 6.00 Build 0)  -->
<svg version="1.1" id="Layer_1" xmlns="http://www.w3.org/2000/svg" xmlns:xlink="http://www.w3.org/1999/xlink" x="0px" y="0px"
	 viewBox="0 0 48 48" style="enable-background:new 0 0 48 48;" xml:space="preserve">
<g>
	<path d="M7.9,39c-0.8,0-1.5-0.3-2-0.9S5,36.9,5,36.1V11.9c0-0.8,0.3-1.5,0.9-2C6.4,9.3,7.1,9,7.9,9h32.2c0.8,0,1.5,0.3,2,0.9
		c0.6,0.6,0.9,1.2,0.9,2v24.2c0,0.8-0.3,1.5-0.9,2c-0.6,0.6-1.2,0.9-2,0.9L7.9,39z M24,24.3L7.3,13.2v22.9c0,0.2,0.1,0.3,0.2,0.4
		c0.1,0.1,0.3,0.2,0.4,0.2h32.2c0.2,0,0.3-0.1,0.4-0.2s0.2-0.3,0.2-0.4V13.2L24,24.3z M24,21.9l16.3-10.6H7.8L24,21.9z M7.3,13.2v-2
		v24.8c0,0.2,0.1,0.3,0.2,0.4s0.3,0.2,0.4,0.2H7.3V13.2z"/>
</g>
</svg>
