<svg xmlns="http://www.w3.org/2000/svg" height="24px" viewBox="0 0 960 960" width="24px" fill="#1f1f1f"><g transform="translate(0 960)"><path d="M262-323.85q-59.46 0-90.69-15.92-31.23-15.92-57.85-60.15-15.77-26.16-25.88-60.27-10.12-34.12-17.96-63.66-11 0-18.39-7-7.38-7-7.38-18v-41.3q0-9.39 6-16.08 6-6.69 15.38-8.69 51.77-10.62 96.89-15.62 45.11-5 88.65-5 56 0 104.73 8.85 48.73 8.84 81.35 30.54h87.3q29.77-22.23 80.24-30.81 50.46-8.58 105.84-8.58 43.15 0 87.96 5 44.81 5 96.58 15.62 9 2 15.19 8.69 6.19 6.69 6.19 16.08v41.3q0 11-7.38 18-7.39 7-18.39 7-7.84 29.54-17.96 63.47-10.11 33.92-25.88 60.46-25.23 43.23-57.16 59.65-31.92 16.42-91.38 16.42-61.46 0-103.92-26.61-42.46-26.62-60.62-84.69-5.38-16-8.5-32-3.11-16-8.11-32-4-12.77-13.73-19.23-9.74-6.47-23.12-6.47-12.77 0-22.12 6.77-9.34 6.77-14.34 18.93-5 16-8.69 31.8-3.7 15.81-8.7 32.2-17 58.84-59.65 85.07-42.65 26.23-104.5 26.23Zm0-46.46q76.39 0 103.54-45.65 27.15-45.66 27.15-115.89 0-20.07-16.61-29.96-16.62-9.88-48.16-17.5-29.46-7.77-66.07-9.08-36.62-1.3-72 3.7-26 4-41.77 15.3-15.77 11.31-15.77 31.39 0 27.77 4.69 53.54t14.08 47.54q17.15 37.69 40 52.15 22.84 14.46 70.92 14.46Zm436 0q48.08 0 70.92-14.46 22.85-14.46 39-52.15 9.39-21.77 14.58-47.54 5.19-25.77 5.19-54.54 0-20.46-15.77-32.08-15.77-11.61-42.77-14.61-35-5-71.3-3.2-36.31 1.81-65.77 9.58-31.54 7.62-48.16 17-16.61 9.39-16.61 29.46 0 70.23 27.15 116.39 27.15 46.15 103.54 46.15Z"/></g></svg>