<?xml version="1.0" encoding="utf-8"?>
<!-- Generator: Adobe Illustrator 27.0.0, SVG Export Plug-In . SVG Version: 6.00 Build 0)  -->
<svg version="1.1" id="Layer_1" xmlns="http://www.w3.org/2000/svg" xmlns:xlink="http://www.w3.org/1999/xlink" x="0px" y="0px"
	 viewBox="0 0 48 48" style="enable-background:new 0 0 48 48;" xml:space="preserve">
<g>
	<path d="M23.9,7.1C14.6,7.1,7,14.6,7,24c0,8.5,6.2,15.5,14.5,16.7l0.9,0.1V27.5h-4.1v-2.7h4v-3.6c0-2.3,0.6-3.7,1.5-4.6
		c0.9-0.9,2.1-1.4,4-1.4c1.5,0,2,0.1,2.6,0.1v2.3h-1.9c-1,0-1.9,0.6-2.4,1.4c-0.5,0.8-0.6,1.7-0.6,2.7v3h4.7l-0.5,2.7h-4.3v13.6
		l0.9-0.1C34.6,39.7,41,32.6,41,24.1C40.9,14.6,33.3,7.1,23.9,7.1z M23.9,8.6c8.5,0,15.4,6.9,15.4,15.4c0,7.5-5.3,13.7-12.4,15v-9.9
		h4.1l0.9-5.8h-5v-1.6c0-0.8,0.1-1.5,0.3-1.9c0.2-0.5,0.5-0.6,1-0.6h3.4v-5.2l-0.7-0.1c-0.5-0.1-1.5-0.2-3.4-0.2
		c-2,0-3.8,0.6-5.1,1.8s-1.8,3.2-1.8,5.6v2h-4V29h4v9.9C13.8,37.6,8.6,31.5,8.6,24C8.6,15.5,15.5,8.6,23.9,8.6z"/>
</g>
</svg>
