<?xml version="1.0" encoding="utf-8"?>
<!-- Generator: Adobe Illustrator 27.0.0, SVG Export Plug-In . SVG Version: 6.00 Build 0)  -->
<svg version="1.1" id="Layer_1" xmlns="http://www.w3.org/2000/svg" xmlns:xlink="http://www.w3.org/1999/xlink" x="0px" y="0px"
	 viewBox="0 0 24 24" style="enable-background:new 0 0 24 24;" xml:space="preserve">
<style type="text/css">
	.st0{fill-rule:evenodd;clip-rule:evenodd;fill:#060000;}
	.st1{fill:#060000;}
</style>
<g>
	<path class="st0" d="M13.4,20.5l-2.7,0.4v-6.6H8.8V12h1.8c0,0,0-1.2,0-2.4c0-0.7,0.3-1.4,0.8-1.8C11.9,7.3,12.6,7,13.2,7h1.9v1.8
		c0,0-0.4,0-0.8,0c-0.6,0-1,0.5-1,1V12l2.7,0l-0.9,2.3h-1.8V20.5z"/>
	<path class="st1" d="M12,22C6.5,22,2,17.5,2,12S6.5,2,12,2s10,4.5,10,10S17.5,22,12,22z M12,3.8c-4.5,0-8.2,3.7-8.2,8.2
		s3.7,8.2,8.2,8.2s8.2-3.7,8.2-8.2S16.5,3.8,12,3.8z"/>
</g>
</svg>
