<?xml version="1.0" encoding="utf-8"?>
<!-- Generator: Adobe Illustrator 27.0.0, SVG Export Plug-In . SVG Version: 6.00 Build 0)  -->
<svg version="1.1" id="Layer_1" xmlns="http://www.w3.org/2000/svg" xmlns:xlink="http://www.w3.org/1999/xlink" x="0px" y="0px"
	 viewBox="0 0 48 48" style="enable-background:new 0 0 48 48;" xml:space="preserve">
<g>
	<path d="M6.3,18.8c-0.1-0.1-0.2-0.2-0.2-0.3c0-0.1,0-0.3,0.1-0.4c2.1-2.8,4.7-5,7.8-6.6c3.1-1.6,6.5-2.4,10-2.4
		c3.6,0,6.9,0.8,10.1,2.3c3.2,1.5,5.8,3.7,7.9,6.6c0.1,0.2,0.1,0.3,0.1,0.4c0,0.1-0.1,0.2-0.2,0.3c-0.1,0.1-0.2,0.1-0.4,0.1
		c-0.2,0-0.3-0.1-0.4-0.3c-2-2.7-4.4-4.8-7.5-6.3c-3-1.4-6.2-2.2-9.6-2.2c-3.4,0-6.6,0.7-9.5,2.2c-3,1.5-5.4,3.5-7.4,6.2
		c-0.1,0.2-0.3,0.3-0.4,0.3C6.5,18.9,6.4,18.9,6.3,18.8z M29.9,43.9c-3.4-0.9-6.2-2.6-8.4-5.1s-3.3-5.7-3.3-9.3
		c0-1.6,0.6-2.9,1.7-3.9c1.1-1.1,2.5-1.6,4.1-1.6c1.6,0,3,0.5,4.1,1.6c1.1,1.1,1.7,2.4,1.7,3.9c0,1.3,0.5,2.3,1.4,3.2
		c1,0.9,2.1,1.3,3.4,1.3c1.3,0,2.4-0.4,3.3-1.3c0.9-0.9,1.4-1.9,1.4-3.2c0-4.1-1.5-7.5-4.5-10.2c-3-2.8-6.6-4.1-10.8-4.1
		c-4.2,0-7.8,1.4-10.8,4.1c-3,2.8-4.5,6.2-4.5,10.2c0,0.8,0.1,1.8,0.3,3.1c0.2,1.3,0.6,2.7,1.2,4.4c0.1,0.2,0.1,0.3,0,0.4
		c-0.1,0.1-0.2,0.2-0.3,0.3c-0.1,0.1-0.3,0.1-0.4,0c-0.1,0-0.2-0.1-0.3-0.3c-0.5-1.3-0.8-2.6-1.1-3.9c-0.2-1.3-0.4-2.6-0.4-3.9
		c0-4.3,1.6-8,4.9-11c3.2-3,7.1-4.5,11.5-4.5c4.5,0,8.4,1.5,11.6,4.5c3.2,3,4.8,6.7,4.8,11c0,1.5-0.6,2.8-1.7,3.9
		c-1.1,1.1-2.5,1.6-4.1,1.6c-1.6,0-3-0.5-4.2-1.6c-1.2-1.1-1.7-2.4-1.7-3.9c0-1.3-0.5-2.3-1.4-3.2c-0.9-0.9-2-1.3-3.3-1.3
		c-1.3,0-2.4,0.4-3.4,1.3c-0.9,0.9-1.4,1.9-1.4,3.2c0,3.4,1,6.3,3.1,8.6c2.1,2.3,4.7,3.9,7.8,4.8c0.2,0.1,0.3,0.2,0.4,0.3
		c0.1,0.1,0.1,0.2,0,0.4c0,0.2-0.1,0.3-0.2,0.4C30.2,43.9,30.1,43.9,29.9,43.9z M12.4,8.1c-0.1,0-0.2,0-0.3,0
		c-0.1,0-0.2-0.1-0.2-0.2c-0.1-0.1-0.1-0.2-0.1-0.3c0-0.1,0-0.2,0.1-0.3c1.9-1,3.8-1.8,5.9-2.3c2.1-0.5,4.2-0.8,6.3-0.8
		c2.1,0,4.2,0.3,6.3,0.8c2.1,0.5,4,1.3,5.9,2.2c0.2,0.1,0.3,0.2,0.3,0.3c0,0.1,0,0.3-0.1,0.4C36.4,8,36.3,8,36.2,8.1
		c-0.1,0.1-0.3,0.1-0.4,0c-1.8-1-3.7-1.7-5.7-2.2c-2-0.5-4-0.7-6.1-0.7c-2,0-4,0.2-6,0.7C16.1,6.4,14.2,7.2,12.4,8.1z M19.1,43.3
		c-1.9-2-3.4-4.1-4.5-6.3c-1.1-2.2-1.6-4.7-1.6-7.6c0-3,1.1-5.4,3.3-7.5c2.2-2,4.8-3,7.8-3c3,0,5.7,1,7.8,3c2.2,2,3.3,4.5,3.3,7.5
		c0,0.2,0,0.3-0.1,0.4c-0.1,0.1-0.2,0.1-0.4,0.1c-0.1,0-0.3,0-0.4-0.1c-0.1-0.1-0.2-0.2-0.2-0.4c0-2.7-1-4.9-3-6.7
		c-2-1.8-4.3-2.7-7.1-2.7c-2.7,0-5.1,0.9-7.1,2.7c-2,1.8-2.9,4.1-2.9,6.7c0,2.8,0.5,5.2,1.5,7.2c1,2,2.4,4,4.3,6
		C20,42.7,20,42.8,20,43c0,0.1-0.1,0.2-0.2,0.3c-0.1,0.1-0.2,0.1-0.3,0.2C19.3,43.5,19.2,43.5,19.1,43.3z M34.2,39.7
		c-2.9,0-5.4-1-7.6-2.9c-2.1-1.9-3.2-4.4-3.2-7.3c0-0.2,0-0.3,0.1-0.4c0.1-0.1,0.2-0.2,0.4-0.2c0.2,0,0.3,0.1,0.4,0.2
		c0.1,0.1,0.1,0.2,0.1,0.4c0,2.7,1,4.9,2.9,6.6c2,1.7,4.2,2.6,6.8,2.6c0.3,0,0.6,0,1,0c0.4,0,0.8-0.1,1.2-0.2c0.1,0,0.3,0,0.4,0.1
		c0.1,0.1,0.2,0.2,0.2,0.3c0,0.1,0,0.3,0,0.4s-0.2,0.2-0.4,0.2c-0.5,0.1-0.9,0.2-1.4,0.3C34.8,39.7,34.5,39.7,34.2,39.7z"/>
</g>
</svg>
