<?xml version="1.0" encoding="utf-8"?>
<!-- Generator: Adobe Illustrator 27.0.0, SVG Export Plug-In . SVG Version: 6.00 Build 0)  -->
<svg version="1.1" id="Layer_1" xmlns="http://www.w3.org/2000/svg" xmlns:xlink="http://www.w3.org/1999/xlink" x="0px" y="0px"
	 viewBox="0 0 48 48" style="enable-background:new 0 0 48 48;" xml:space="preserve">
<g>
	<path d="M28.1,31.5h2.3v-4.4h4.4v-2.3h-4.4v-4.4h-2.3v4.4h-4.4v2.3h4.4V31.5z M7.9,39c-0.8,0-1.5-0.3-2-0.9c-0.6-0.6-0.9-1.3-0.9-2
		V11.9c0-0.8,0.3-1.4,0.9-2C6.4,9.3,7.1,9,7.9,9h12.5l3.3,3.3h16.5c0.8,0,1.4,0.3,2,0.9c0.6,0.6,0.9,1.3,0.9,2v21
		c0,0.8-0.3,1.4-0.9,2c-0.6,0.6-1.3,0.9-2,0.9H7.9z M7.9,36.7h32.2c0.2,0,0.3-0.1,0.4-0.2c0.1-0.1,0.2-0.3,0.2-0.4v-21
		c0-0.2-0.1-0.3-0.2-0.4s-0.3-0.2-0.4-0.2H22.7l-3.3-3.3H7.9c-0.2,0-0.3,0.1-0.4,0.2c-0.1,0.1-0.2,0.3-0.2,0.4v24.2
		c0,0.2,0.1,0.3,0.2,0.4C7.6,36.7,7.7,36.7,7.9,36.7z M7.3,36.7V11.3V36.7z"/>
</g>
</svg>
