<?xml version="1.0" encoding="utf-8"?>
<!-- Generator: Adobe Illustrator 27.0.0, SVG Export Plug-In . SVG Version: 6.00 Build 0)  -->
<svg version="1.1" id="Layer_1" xmlns="http://www.w3.org/2000/svg" xmlns:xlink="http://www.w3.org/1999/xlink" x="0px" y="0px"
	 viewBox="0 0 48 48" style="enable-background:new 0 0 48 48;" xml:space="preserve">
<g>
	<path d="M7.8,39c-0.7,0-1.4-0.3-1.9-0.8C5.3,37.6,5,37,5,36.2V11.9c0-0.7,0.3-1.4,0.9-2C6.5,9.3,7.2,9,7.9,9h12.5l3.3,3.3h16.5
		c0.7,0,1.2,0.2,1.8,0.7c0.5,0.5,0.8,1,0.9,1.6H22.7l-3.3-3.3H7.9c-0.2,0-0.3,0.1-0.4,0.2c-0.1,0.1-0.2,0.3-0.2,0.4v24.2
		c0,0.1,0,0.3,0.1,0.3c0.1,0.1,0.2,0.2,0.3,0.2l4.9-18.5h33.8l-5,18.7c-0.2,0.7-0.5,1.2-1,1.6c-0.5,0.3-1.1,0.5-1.8,0.5H7.8z
		 M10,36.7h29.1l4.2-16.3H14.2L10,36.7z M10,36.7l4.2-16.3L10,36.7z M7.3,14.5v-3.3V14.5z"/>
</g>
</svg>
