<?xml version="1.0" encoding="utf-8"?>
<!-- Generator: Adobe Illustrator 27.0.0, SVG Export Plug-In . SVG Version: 6.00 Build 0)  -->
<svg version="1.1" id="Layer_1" xmlns="http://www.w3.org/2000/svg" xmlns:xlink="http://www.w3.org/1999/xlink" x="0px" y="0px"
	 viewBox="0 0 48 48" style="enable-background:new 0 0 48 48;" xml:space="preserve">
<g>
	<path d="M24,43c-2.6,0-5.1-0.5-7.4-1.5c-2.3-1-4.3-2.4-6-4.1c-1.7-1.7-3.1-3.7-4-6c-1-2.3-1.5-4.8-1.5-7.5c0-2.6,0.5-5.1,1.5-7.4
		c1-2.3,2.3-4.3,4-6c1.7-1.7,3.7-3.1,6-4S21.4,5,24,5s5.1,0.5,7.4,1.5s4.3,2.3,6,4c1.7,1.7,3.1,3.7,4,6c1,2.3,1.5,4.8,1.5,7.4
		c0,2.7-0.5,5.1-1.5,7.5c-1,2.3-2.3,4.3-4,6c-1.7,1.7-3.7,3.1-6,4.1C29.1,42.5,26.6,43,24,43z M24,40.8c1.2-1.3,2.3-2.8,3.1-4.4
		s1.5-3.4,2-5.5H19c0.5,2.1,1.2,3.9,2,5.5C21.8,38,22.8,39.5,24,40.8z M20.8,40.4c-0.9-1.2-1.8-2.6-2.5-4.2
		c-0.7-1.6-1.3-3.4-1.7-5.2h-8c1.3,2.6,2.9,4.6,4.8,6.1C15.4,38.6,17.9,39.7,20.8,40.4z M27.2,40.4c2.6-0.6,5-1.7,7.1-3.3
		c2.1-1.6,3.8-3.7,5-6.1h-7.9c-0.5,1.9-1.1,3.6-1.8,5.2C28.9,37.8,28.1,39.2,27.2,40.4z M7.9,28.7h8.3c-0.1-0.9-0.2-1.8-0.2-2.5
		c0-0.8-0.1-1.5-0.1-2.2c0-0.8,0-1.6,0.1-2.3c0-0.7,0.1-1.5,0.3-2.3H7.9c-0.2,0.8-0.4,1.5-0.5,2.2c-0.1,0.7-0.2,1.5-0.2,2.4
		c0,0.9,0.1,1.7,0.2,2.5C7.5,27.1,7.7,27.9,7.9,28.7z M18.6,28.7h10.9c0.1-1,0.2-1.9,0.3-2.6c0-0.7,0.1-1.4,0.1-2.2
		c0-0.7,0-1.4-0.1-2.1c0-0.7-0.1-1.5-0.3-2.5H18.6c-0.1,1-0.2,1.9-0.3,2.5c0,0.7-0.1,1.4-0.1,2.1c0,0.8,0,1.5,0.1,2.2
		C18.3,26.8,18.4,27.7,18.6,28.7z M31.7,28.7h8.3c0.2-0.8,0.4-1.6,0.5-2.3c0.1-0.8,0.2-1.6,0.2-2.5c0-0.9-0.1-1.7-0.2-2.4
		c-0.1-0.7-0.3-1.5-0.5-2.2h-8.3c0.1,1.1,0.2,2,0.2,2.7c0,0.7,0.1,1.3,0.1,1.9c0,0.7,0,1.5-0.1,2.2C32,26.8,31.9,27.7,31.7,28.7z
		 M31.4,17h8c-1.2-2.6-2.8-4.6-4.9-6.3c-2.1-1.6-4.5-2.7-7.3-3.2c0.9,1.3,1.8,2.7,2.5,4.2C30.3,13.4,30.9,15.1,31.4,17z M19,17h10.1
		c-0.4-1.9-1.1-3.7-2-5.3C26.2,10,25.2,8.5,24,7.2c-1.1,1-2.1,2.3-2.9,3.9C20.4,12.6,19.6,14.6,19,17z M8.7,17h8
		c0.4-1.9,1-3.6,1.7-5.1s1.5-3,2.5-4.3c-2.8,0.5-5.2,1.6-7.2,3.2C11.5,12.4,9.9,14.4,8.7,17z"/>
</g>
</svg>
