<?xml version="1.0" encoding="utf-8"?>
<!-- Generator: Adobe Illustrator 27.0.0, SVG Export Plug-In . SVG Version: 6.00 Build 0)  -->
<svg version="1.1" id="Layer_1" xmlns="http://www.w3.org/2000/svg" xmlns:xlink="http://www.w3.org/1999/xlink" x="0px" y="0px"
	 viewBox="0 0 48 48" style="enable-background:new 0 0 48 48;" xml:space="preserve">
<g>
	<path d="M9.9,41c-0.8,0-1.5-0.3-2-0.9S7,38.9,7,38.1V9.9c0-0.8,0.3-1.5,0.9-2C8.4,7.3,9.1,7,9.9,7h28.2c0.8,0,1.5,0.3,2,0.9
		c0.6,0.6,0.9,1.2,0.9,2v28.2c0,0.8-0.3,1.5-0.9,2c-0.6,0.6-1.2,0.9-2,0.9L9.9,41z M9.9,38.7h7.7v-8.3H9.3v7.7
		c0,0.2,0.1,0.3,0.2,0.4S9.7,38.7,9.9,38.7z M19.8,38.7h8.3v-8.3h-8.3V38.7z M30.4,38.7h7.7c0.2,0,0.3-0.1,0.4-0.2
		c0.1-0.1,0.2-0.3,0.2-0.4v-7.7h-8.3V38.7z M9.3,28.2h8.3v-8.3H9.3V28.2z M19.8,28.2h8.3v-8.3h-8.3L19.8,28.2z M30.4,28.2h8.3v-8.3
		h-8.3L30.4,28.2z M9.3,17.6h8.3V9.3H9.9c-0.2,0-0.3,0.1-0.4,0.2C9.3,9.6,9.3,9.7,9.3,9.9V17.6z M19.8,17.6h8.3V9.3h-8.3L19.8,17.6z
		 M30.4,17.6h8.3V9.9c0-0.2-0.1-0.3-0.2-0.4c-0.1-0.1-0.3-0.2-0.4-0.2h-7.7L30.4,17.6z"/>
</g>
</svg>
