<?xml version="1.0" encoding="utf-8"?>
<!-- Generator: Adobe Illustrator 27.0.0, SVG Export Plug-In . SVG Version: 6.00 Build 0)  -->
<svg version="1.1" id="Layer_1" xmlns="http://www.w3.org/2000/svg" xmlns:xlink="http://www.w3.org/1999/xlink" x="0px" y="0px"
	 viewBox="0 0 48 48" style="enable-background:new 0 0 48 48;" xml:space="preserve">
<g>
	<path d="M24.2,35c0.4,0,0.8-0.2,1.1-0.5c0.3-0.3,0.5-0.7,0.5-1.1c0-0.4-0.2-0.8-0.5-1.1c-0.3-0.3-0.7-0.5-1.1-0.5
		c-0.4,0-0.8,0.2-1.1,0.5c-0.3,0.3-0.5,0.7-0.5,1.1c0,0.4,0.2,0.8,0.5,1.1C23.4,34.8,23.8,35,24.2,35z M22.8,28.1h2.3
		c0-0.8,0.1-1.5,0.4-2.2c0.2-0.7,0.9-1.4,1.9-2.2c1-0.9,1.7-1.7,2.1-2.5c0.4-0.8,0.6-1.6,0.6-2.6c0-1.6-0.5-3-1.6-4
		c-1.1-1-2.5-1.5-4.2-1.5c-1.5,0-2.8,0.4-3.9,1.1c-1.1,0.8-2,1.8-2.5,3l2.1,0.8c0.4-0.9,0.9-1.6,1.6-2.1c0.7-0.5,1.6-0.7,2.6-0.7
		c1.2,0,2.2,0.3,2.9,1c0.7,0.7,1,1.5,1,2.5c0,0.7-0.2,1.4-0.6,2c-0.4,0.6-1,1.3-1.8,1.9c-1,0.9-1.7,1.7-2.1,2.6
		C23,26,22.8,27,22.8,28.1z M24,43c-2.6,0-5.1-0.5-7.4-1.5s-4.3-2.4-6-4.1c-1.7-1.7-3.1-3.7-4.1-6C5.5,29.1,5,26.6,5,24
		c0-2.6,0.5-5.1,1.5-7.4c1-2.3,2.4-4.3,4.1-6c1.7-1.7,3.7-3.1,6-4.1C18.9,5.5,21.4,5,24,5c2.6,0,5.1,0.5,7.4,1.5
		c2.3,1,4.3,2.4,6,4.1c1.7,1.7,3.1,3.7,4.1,6c1,2.3,1.5,4.8,1.5,7.4c0,2.6-0.5,5.1-1.5,7.4s-2.4,4.3-4.1,6c-1.7,1.7-3.7,3.1-6,4.1
		C29.1,42.5,26.6,43,24,43z M24,40.7c4.7,0,8.6-1.6,11.9-4.9c3.2-3.3,4.9-7.2,4.9-11.8c0-4.7-1.6-8.6-4.9-11.9
		C32.6,8.9,28.7,7.3,24,7.3c-4.6,0-8.6,1.6-11.8,4.9C8.9,15.4,7.3,19.3,7.3,24c0,4.6,1.6,8.6,4.9,11.8C15.4,39.1,19.4,40.7,24,40.7z
		"/>
</g>
</svg>
