<svg xmlns="http://www.w3.org/2000/svg" height="24px" viewBox="0 0 960 960" width="24px" fill="#1f1f1f"><g transform="translate(0 960)"><path d="M480-87.69q-69.69-61.47-156.92-95.35Q235.85-216.92 140-220v-406.92q96.39 2.69 184.19 40.15Q412-549.31 480-486.46q68-62.85 155.81-100.31 87.8-37.46 184.19-40.15V-220q-96.46 3.08-183.39 36.96Q549.69-149.16 480-87.69Zm0-77.08q63-46.61 134-74.81 71-28.19 146-37.19v-283.69q-75.69 13-146.58 51.54Q542.54-470.39 480-407.85q-62.54-62.54-133.42-101.07-70.89-38.54-146.58-51.54v283.69q75 9 146 37.19 71 28.2 134 74.81ZM377.77-650.85q-42.38-42.38-42.38-102.23 0-59.84 42.38-102.23 42.38-42.38 102.23-42.38t102.23 42.38q42.38 42.39 42.38 102.23 0 59.85-42.38 102.23-42.38 42.39-102.23 42.39t-102.23-42.39Zm162-42.46q24.85-24.84 24.85-59.77 0-34.92-24.85-59.77-24.85-24.84-59.77-24.84t-59.77 24.84q-24.85 24.85-24.85 59.77 0 34.93 24.85 59.77 24.85 24.85 59.77 24.85t59.77-24.85ZM480-753.08Zm0 345.23Z"/></g></svg>