<?xml version="1.0" encoding="utf-8"?>
<!-- Generator: Adobe Illustrator 27.0.0, SVG Export Plug-In . SVG Version: 6.00 Build 0)  -->
<svg version="1.1" id="Layer_1" xmlns="http://www.w3.org/2000/svg" xmlns:xlink="http://www.w3.org/1999/xlink" x="0px" y="0px"
	 viewBox="0 0 48 48" style="enable-background:new 0 0 48 48;" xml:space="preserve">
<g>
	<path d="M22,33.1h-7.9c-2.5,0-4.7-0.9-6.4-2.7S5,26.5,5,24s0.9-4.7,2.7-6.4c1.8-1.8,3.9-2.7,6.4-2.7H22v2.3h-7.9
		c-1.9,0-3.5,0.7-4.8,2c-1.3,1.3-2,2.9-2,4.8c0,1.9,0.7,3.5,2,4.8c1.3,1.3,2.9,2,4.8,2H22V33.1z M16.7,25.1v-2.3h14.6v2.3H16.7z
		 M26,33.1v-2.3h7.9c1.9,0,3.5-0.7,4.8-2c1.3-1.3,2-2.9,2-4.8c0-1.9-0.7-3.5-2-4.8c-1.3-1.3-2.9-2-4.8-2H26v-2.3h7.9
		c2.5,0,4.7,0.9,6.4,2.7c1.8,1.8,2.7,3.9,2.7,6.4s-0.9,4.7-2.7,6.4c-1.8,1.8-3.9,2.7-6.4,2.7H26z"/>
</g>
</svg>
