<?xml version="1.0" encoding="utf-8"?>
<!-- Generator: Adobe Illustrator 27.0.0, SVG Export Plug-In . SVG Version: 6.00 Build 0)  -->
<svg version="1.1" id="Layer_1" xmlns="http://www.w3.org/2000/svg" xmlns:xlink="http://www.w3.org/1999/xlink" x="0px" y="0px"
	 viewBox="0 0 24 24" style="enable-background:new 0 0 24 24;" xml:space="preserve">
<g>
	<path d="M6,8h9V6c0-0.8-0.3-1.5-0.9-2.1S12.8,3,12,3s-1.5,0.3-2.1,0.9C9.3,4.5,9,5.2,9,6H7c0-1.4,0.5-2.6,1.5-3.5S10.6,1,12,1
		s2.6,0.5,3.5,1.5S17,4.6,17,6v2h1c0.6,0,1,0.2,1.4,0.6C19.8,9,20,9.5,20,10v10c0,0.6-0.2,1-0.6,1.4S18.6,22,18,22H6
		c-0.5,0-1-0.2-1.4-0.6S4,20.6,4,20V10c0-0.6,0.2-1,0.6-1.4C5,8.2,5.5,8,6,8z M6,20h12V10H6V20z M12,17c0.6,0,1-0.2,1.4-0.6
		S14,15.6,14,15s-0.2-1-0.6-1.4S12.6,13,12,13s-1,0.2-1.4,0.6S10,14.5,10,15s0.2,1,0.6,1.4S11.4,17,12,17z M6,20V10V20z"/>
</g>
</svg>
