<?xml version="1.0" encoding="utf-8"?>
<!-- Generator: Adobe Illustrator 27.0.0, SVG Export Plug-In . SVG Version: 6.00 Build 0)  -->
<svg version="1.1" id="Layer_1" xmlns="http://www.w3.org/2000/svg" xmlns:xlink="http://www.w3.org/1999/xlink" x="0px" y="0px"
	 viewBox="0 0 48 48" style="enable-background:new 0 0 48 48;" xml:space="preserve">
<g>
	<path d="M11.9,43c-0.8,0-1.5-0.3-2-0.9c-0.6-0.6-0.9-1.2-0.9-2v-20c0-0.8,0.3-1.5,0.9-2c0.6-0.6,1.2-0.8,2-0.8h3.5v-4.6
		c0-2.4,0.8-4.4,2.5-6.1C19.6,4.8,21.6,4,24,4c2.4,0,4.4,0.8,6.1,2.5c1.7,1.7,2.5,3.7,2.5,6.1v4.6h3.5c0.8,0,1.5,0.3,2,0.8
		c0.6,0.6,0.9,1.2,0.9,2v20c0,0.8-0.3,1.5-0.9,2c-0.6,0.6-1.2,0.9-2,0.9H11.9z M11.9,40.7h24.2c0.2,0,0.3-0.1,0.4-0.2
		c0.1-0.1,0.2-0.3,0.2-0.4v-20c0-0.2-0.1-0.3-0.2-0.4c-0.1-0.1-0.3-0.2-0.4-0.2H11.9c-0.2,0-0.3,0.1-0.4,0.2
		c-0.1,0.1-0.2,0.3-0.2,0.4v20c0,0.2,0.1,0.3,0.2,0.4C11.6,40.7,11.7,40.7,11.9,40.7z M24,33.5c0.9,0,1.7-0.3,2.4-1
		c0.7-0.7,1-1.4,1-2.4c0-0.9-0.3-1.7-1-2.4c-0.7-0.7-1.5-1.1-2.4-1.1c-0.9,0-1.7,0.4-2.4,1.1c-0.7,0.7-1,1.5-1,2.4
		c0,0.9,0.3,1.7,1,2.3C22.3,33.2,23.1,33.5,24,33.5z M17.6,17.2h12.7v-4.6c0-1.8-0.6-3.3-1.9-4.5c-1.2-1.2-2.7-1.9-4.5-1.9
		c-1.8,0-3.3,0.6-4.5,1.9c-1.2,1.2-1.9,2.7-1.9,4.5V17.2z M11.3,40.7V19.5V40.7z"/>
</g>
</svg>
