<?xml version="1.0" encoding="utf-8"?>
<!-- Generator: Adobe Illustrator 27.0.0, SVG Export Plug-In . SVG Version: 6.00 Build 0)  -->
<svg version="1.1" id="Layer_1" xmlns="http://www.w3.org/2000/svg" xmlns:xlink="http://www.w3.org/1999/xlink" x="0px" y="0px"
	 viewBox="0 0 48 48" style="enable-background:new 0 0 48 48;" xml:space="preserve">
<g>
	<path d="M9.9,41c-0.8,0-1.5-0.3-2-0.9S7,38.9,7,38.1V9.9c0-0.8,0.3-1.5,0.9-2C8.4,7.3,9.1,7,9.9,7H24v2.3H9.9
		c-0.2,0-0.3,0.1-0.4,0.2C9.3,9.6,9.3,9.7,9.3,9.9v28.2c0,0.2,0.1,0.3,0.2,0.4c0.1,0.1,0.3,0.2,0.4,0.2H24V41H9.9z M33.4,31.6
		L31.8,30l4.9-4.9H18.2v-2.3h18.4L31.7,18l1.6-1.6L41,24L33.4,31.6z"/>
</g>
</svg>
