<?xml version="1.0" encoding="utf-8"?>
<!-- Generator: Adobe Illustrator 27.0.0, SVG Export Plug-In . SVG Version: 6.00 Build 0)  -->
<svg version="1.1" id="Layer_1" xmlns="http://www.w3.org/2000/svg" xmlns:xlink="http://www.w3.org/1999/xlink" x="0px" y="0px"
	 viewBox="0 0 48 48" style="enable-background:new 0 0 48 48;" xml:space="preserve">
<g>
	<path d="M9,37.8v-2.3h3.6V19.7c0-2.7,0.8-5.1,2.5-7.2c1.6-2.1,3.8-3.4,6.4-3.9v-1c0-0.7,0.2-1.3,0.7-1.8C22.7,5.2,23.3,5,24,5
		s1.3,0.2,1.8,0.7c0.5,0.5,0.7,1.1,0.7,1.8v1c2.6,0.5,4.8,1.8,6.4,3.9c1.6,2.1,2.5,4.5,2.5,7.2v15.8H39v2.3H9z M24,43.4
		c-1,0-1.8-0.4-2.6-1.1c-0.7-0.7-1.1-1.6-1.1-2.6h7.2c0,1-0.4,1.8-1.1,2.6C25.8,43,25,43.4,24,43.4z M14.9,35.5h18.2V19.7
		c0-2.5-0.9-4.7-2.7-6.5c-1.8-1.8-3.9-2.7-6.5-2.7s-4.7,0.9-6.5,2.7c-1.8,1.8-2.7,3.9-2.7,6.5L14.9,35.5z"/>
</g>
</svg>
