<?xml version="1.0" encoding="utf-8"?>
<!-- Generator: Adobe Illustrator 27.0.0, SVG Export Plug-In . SVG Version: 6.00 Build 0)  -->
<svg version="1.1" id="Layer_1" xmlns="http://www.w3.org/2000/svg" xmlns:xlink="http://www.w3.org/1999/xlink" x="0px" y="0px"
	 viewBox="0 0 24 24" style="enable-background:new 0 0 24 24;" xml:space="preserve">
<g>
	<path d="M5,21c-0.5,0-1-0.2-1.4-0.6S3,19.6,3,19V5c0-0.5,0.2-1,0.6-1.4C4,3.2,4.5,3,5,3h7v2H5v14h14v-7h2v7c0,0.6-0.2,1-0.6,1.4
		S19.6,21,19,21H5z M9.7,15.7l-1.4-1.4L17.6,5H14V3h7v7h-2V6.4L9.7,15.7z"/>
</g>
</svg>
