<?xml version="1.0" encoding="utf-8"?>
<!-- Generator: Adobe Illustrator 27.0.0, SVG Export Plug-In . SVG Version: 6.00 Build 0)  -->
<svg version="1.1" id="Layer_1" xmlns="http://www.w3.org/2000/svg" xmlns:xlink="http://www.w3.org/1999/xlink" x="0px" y="0px"
	 viewBox="0 0 48 48" style="enable-background:new 0 0 48 48;" xml:space="preserve">
<g>
	<path d="M9.9,41c-0.8,0-1.5-0.3-2-0.9S7,38.9,7,38.1V9.9c0-0.8,0.3-1.5,0.9-2C8.4,7.3,9.1,7,9.9,7h12.6v2.3H9.9
		c-0.2,0-0.3,0.1-0.4,0.2C9.3,9.6,9.3,9.7,9.3,9.9v28.2c0,0.2,0.1,0.3,0.2,0.4c0.1,0.1,0.3,0.2,0.4,0.2h28.2c0.2,0,0.3-0.1,0.4-0.2
		c0.1-0.1,0.2-0.3,0.2-0.4V25.5H41v12.6c0,0.8-0.3,1.5-0.9,2s-1.2,0.9-2,0.9H9.9z M19.2,30.4l-1.6-1.6L37.1,9.3H26.5V7H41v14.5h-2.3
		V10.9L19.2,30.4z"/>
</g>
</svg>
