<?xml version="1.0" encoding="utf-8"?>
<!-- Generator: Adobe Illustrator 27.0.0, SVG Export Plug-In . SVG Version: 6.00 Build 0)  -->
<svg version="1.1" id="Layer_1" xmlns="http://www.w3.org/2000/svg" xmlns:xlink="http://www.w3.org/1999/xlink" x="0px" y="0px"
	 viewBox="0 0 48 48" style="enable-background:new 0 0 48 48;" xml:space="preserve">
<g>
	<path d="M22.9,35.7h2.3v-6.3h6.4v-2.3h-6.4v-6.4h-2.3v6.4h-6.4v2.3h6.4V35.7z M11.9,43c-0.8,0-1.5-0.3-2-0.9S9,40.9,9,40.1V7.9
		c0-0.8,0.3-1.5,0.9-2c0.6-0.6,1.2-0.9,2-0.9h17.4l9.7,9.7v25.4c0,0.8-0.3,1.5-0.9,2s-1.2,0.9-2,0.9L11.9,43z M28.1,15.8V7.3H11.9
		c-0.2,0-0.3,0.1-0.4,0.2c-0.1,0.1-0.2,0.3-0.2,0.4v32.2c0,0.2,0.1,0.3,0.2,0.4c0.1,0.1,0.3,0.2,0.4,0.2h24.2c0.2,0,0.3-0.1,0.4-0.2
		c0.1-0.1,0.2-0.3,0.2-0.4V15.8H28.1z M11.3,7.3v8.5V7.3v33.5V7.3z"/>
</g>
</svg>
