<?xml version="1.0" encoding="utf-8"?>
<!-- Generator: Adobe Illustrator 27.0.0, SVG Export Plug-In . SVG Version: 6.00 Build 0)  -->
<svg version="1.1" id="Layer_1" xmlns="http://www.w3.org/2000/svg" xmlns:xlink="http://www.w3.org/1999/xlink" x="0px" y="0px"
	 viewBox="0 0 48 48" style="enable-background:new 0 0 48 48;" xml:space="preserve">
<g>
	<path d="M26,41v-3.8h3.8V41H26z M22.2,37.2v-9.4H26v9.4H22.2z M37.2,30.8V24H41v6.8H37.2z M33.4,24v-3.8h3.8V24H33.4z M10.8,27.8
		V24h3.8v3.8H10.8z M7,24v-3.8h3.8V24H7z M24,10.8V7h3.8v3.8H24z M9,16.4h7.4V9H9V16.4z M7,18.4V7h11.4v11.4H7z M9,39h7.5v-7.4H9V39
		z M7,41V29.6h11.6V41H7z M31.6,16.4H39V9h-7.4L31.6,16.4z M29.6,18.4V7H41v11.4H29.6z M33.4,41v-6.4h-3.8v-3.8h7.6v6.4H41V41H33.4z
		 M26,27.8V24h7.4v3.8H26z M18.4,27.8V24h-3.8v-3.8H26V24h-3.8v3.8H18.4z M20.2,18.4v-7.6H24v3.8h3.8v3.8H20.2z M11.3,14.1v-2.8h2.8
		v2.8H11.3z M11.4,36.6v-2.8h2.8v2.8H11.4z M33.9,14.1v-2.8h2.8v2.8H33.9z"/>
</g>
</svg>
