<?xml version="1.0" encoding="utf-8"?>
<!-- Generator: Adobe Illustrator 27.0.0, SVG Export Plug-In . SVG Version: 6.00 Build 0)  -->
<svg version="1.1" id="Layer_1" xmlns="http://www.w3.org/2000/svg" xmlns:xlink="http://www.w3.org/1999/xlink" x="0px" y="0px"
	 viewBox="0 0 24 24" style="enable-background:new 0 0 24 24;" xml:space="preserve">
<g>
	<path d="M13,21v-2h2v2H13z M11,19v-5h2v5H11z M19,16v-4h2v4H19z M17,12v-2h2v2H17z M5,14v-2h2v2H5z M3,12v-2h2v2H3z M12,5V3h2v2H12
		z M4.5,7.5h3v-3h-3V7.5z M3,9V3h6v6H3z M4.5,19.5h3v-3h-3V19.5z M3,21v-6h6v6H3z M16.5,7.5h3v-3h-3V7.5z M15,9V3h6v6H15z M17,21v-3
		h-2v-2h4v3h2v2H17z M13,14v-2h4v2H13z M9,14v-2H7v-2h6v2h-2v2H9z M10,9V5h2v2h2v2H10z M5.2,6.8V5.3h1.5v1.5H5.2z M5.2,18.8v-1.5
		h1.5v1.5H5.2z M17.2,6.8V5.3h1.5v1.5H17.2z"/>
</g>
</svg>
