<?xml version="1.0" encoding="utf-8"?>
<!-- Generator: Adobe Illustrator 27.0.0, SVG Export Plug-In . SVG Version: 6.00 Build 0)  -->
<svg version="1.1" id="Layer_1" xmlns="http://www.w3.org/2000/svg" xmlns:xlink="http://www.w3.org/1999/xlink" x="0px" y="0px"
	 viewBox="0 0 48 48" style="enable-background:new 0 0 48 48;" xml:space="preserve">
<g>
	<path d="M19.1,37c-2.9,0-5.4-1-7.4-3c-2.1-2-3.1-4.4-3.1-7.3c0-2.9,1-5.3,3.1-7.3c2.1-2,4.5-3,7.4-3h15.6l-5.9-5.9L30.3,9l8.7,8.7
		l-8.7,8.7l-1.6-1.6l5.9-5.9H19.1c-2.3,0-4.2,0.8-5.8,2.3s-2.4,3.4-2.4,5.6c0,2.2,0.8,4.1,2.4,5.7c1.6,1.5,3.5,2.3,5.8,2.3h15.3V37
		H19.1z"/>
</g>
</svg>
