<?xml version="1.0" encoding="utf-8"?>
<!-- Generator: Adobe Illustrator 27.0.0, SVG Export Plug-In . SVG Version: 6.00 Build 0)  -->
<svg version="1.1" id="Layer_1" xmlns="http://www.w3.org/2000/svg" xmlns:xlink="http://www.w3.org/1999/xlink" x="0px" y="0px"
	 viewBox="0 0 24 24" style="enable-background:new 0 0 24 24;" xml:space="preserve">
<g>
	<path d="M5.1,16.1c-0.4-0.6-0.6-1.3-0.8-2C4.1,13.4,4,12.8,4,12.1c0-2.2,0.8-4.1,2.3-5.7S9.8,4,12,4h0.2l-1.6-1.6L12,1l4,4l-4,4
		l-1.4-1.4L12.2,6H12c-1.7,0-3.1,0.6-4.2,1.8C6.6,8.9,6,10.4,6,12.1c0,0.4,0.1,0.9,0.2,1.3c0.1,0.4,0.2,0.8,0.4,1.2L5.1,16.1z
		 M12,23l-4-4l4-4l1.4,1.4L11.8,18H12c1.7,0,3.1-0.6,4.2-1.8c1.2-1.2,1.8-2.6,1.8-4.3c0-0.4,0-0.9-0.1-1.3s-0.2-0.8-0.5-1.2L18.9,8
		c0.4,0.6,0.6,1.3,0.8,1.9c0.2,0.7,0.3,1.3,0.3,2c0,2.2-0.8,4.1-2.3,5.7C16.1,19.2,14.2,20,12,20h-0.2l1.6,1.6L12,23z"/>
</g>
</svg>
