<?xml version="1.0" encoding="utf-8"?>
<!-- Generator: Adobe Illustrator 27.0.0, SVG Export Plug-In . SVG Version: 6.00 Build 0)  -->
<svg version="1.1" id="Layer_1" xmlns="http://www.w3.org/2000/svg" xmlns:xlink="http://www.w3.org/1999/xlink" x="0px" y="0px"
	 viewBox="0 0 48 48" style="enable-background:new 0 0 48 48;" xml:space="preserve">
<g>
	<path d="M31.5,33.2l1.7-1.7l-8-8v-10H23v10.9L31.5,33.2z M24,43c-2.6,0-5.1-0.5-7.4-1.5s-4.3-2.4-6-4.1c-1.7-1.7-3.1-3.7-4.1-6
		C5.5,29.1,5,26.6,5,24c0-2.6,0.5-5.1,1.5-7.4c1-2.3,2.4-4.3,4.1-6c1.7-1.7,3.7-3.1,6-4.1C18.9,5.5,21.4,5,24,5
		c2.6,0,5.1,0.5,7.4,1.5c2.3,1,4.3,2.4,6,4.1c1.7,1.7,3.1,3.7,4.1,6c1,2.3,1.5,4.8,1.5,7.4c0,2.6-0.5,5.1-1.5,7.4
		c-1,2.3-2.4,4.3-4.1,6c-1.7,1.7-3.7,3.1-6,4.1C29.1,42.5,26.6,43,24,43z M24,40.7c4.6,0,8.5-1.6,11.8-4.9c3.3-3.3,4.9-7.2,4.9-11.8
		s-1.6-8.5-4.9-11.8C32.5,8.9,28.6,7.3,24,7.3s-8.5,1.6-11.8,4.9C8.9,15.5,7.3,19.4,7.3,24c0,4.6,1.6,8.5,4.9,11.8
		C15.5,39.1,19.4,40.7,24,40.7z"/>
</g>
</svg>
