<?xml version="1.0" encoding="utf-8"?>
<!-- Generator: Adobe Illustrator 27.0.0, SVG Export Plug-In . SVG Version: 6.00 Build 0)  -->
<svg version="1.1" id="Layer_1" xmlns="http://www.w3.org/2000/svg" xmlns:xlink="http://www.w3.org/1999/xlink" x="0px" y="0px"
	 viewBox="0 0 48 48" style="enable-background:new 0 0 48 48;" xml:space="preserve">
<g>
	<path d="M39.5,41.1l-13-13c-1,0.9-2.2,1.6-3.5,2c-1.3,0.5-2.7,0.7-4.1,0.7c-3.4,0-6.3-1.2-8.6-3.5s-3.5-5.2-3.5-8.5
		c0-3.3,1.2-6.2,3.5-8.6c2.4-2.4,5.2-3.5,8.6-3.5c3.4,0,6.2,1.2,8.6,3.5c2.4,2.4,3.5,5.2,3.5,8.6c0,1.4-0.2,2.8-0.7,4.1
		c-0.5,1.3-1.2,2.5-2.1,3.6l13,12.9L39.5,41.1z M18.9,28.6c2.7,0,5-1,6.9-2.9c1.9-1.9,2.8-4.2,2.8-7c0-2.7-0.9-5-2.8-7
		C24,10,21.7,9,18.9,9c-2.7,0-5.1,1-7,2.9c-1.9,1.9-2.9,4.2-2.9,7c0,2.7,1,5.1,2.9,7C13.8,27.7,16.2,28.6,18.9,28.6z"/>
</g>
</svg>
