<?xml version="1.0" encoding="utf-8"?>
<!-- Generator: Adobe Illustrator 27.0.0, SVG Export Plug-In . SVG Version: 6.00 Build 0)  -->
<svg version="1.1" id="Layer_1" xmlns="http://www.w3.org/2000/svg" xmlns:xlink="http://www.w3.org/1999/xlink" x="0px" y="0px"
	 viewBox="0 0 48 48" style="enable-background:new 0 0 48 48;" xml:space="preserve">
<g>
	<path d="M20,43l-0.9-6c-0.7-0.2-1.4-0.6-2.2-1c-0.8-0.4-1.5-0.9-2-1.4l-5.6,2.5l-4-7.1l5.1-3.7c-0.1-0.4-0.1-0.7-0.1-1.1
		c0-0.4,0-0.8,0-1.1c0-0.3,0-0.7,0-1.1c0-0.4,0.1-0.8,0.1-1.2l-5.1-3.7l4-7l5.6,2.5c0.6-0.5,1.3-1,2.1-1.4c0.8-0.4,1.5-0.8,2.2-1
		L20,5H28l0.9,6c0.7,0.3,1.5,0.6,2.2,1c0.7,0.4,1.4,0.9,2,1.4l5.7-2.5l4,7l-5.1,3.7c0.1,0.4,0.2,0.8,0.2,1.2c0,0.4,0,0.8,0,1.1
		c0,0.3,0,0.7,0,1.1c0,0.4-0.1,0.8-0.2,1.2l5.1,3.7l-4,7.1l-5.6-2.6c-0.6,0.5-1.3,1-2,1.4c-0.7,0.4-1.4,0.8-2.2,1L28,43L20,43z
		 M21.9,40.7h4.3l0.7-5.6c1.1-0.3,2.1-0.7,3-1.2c0.9-0.5,1.8-1.2,2.6-2l5.2,2.3l2-3.5L35,27.3c0.1-0.6,0.2-1.2,0.3-1.7
		c0.1-0.5,0.1-1.1,0.1-1.6c0-0.6,0-1.1-0.1-1.6s-0.2-1.1-0.3-1.6l4.7-3.4l-2-3.5l-5.3,2.3c-0.7-0.8-1.6-1.5-2.5-2.1
		c-1-0.6-2-1-3.1-1.1l-0.7-5.6h-4.3l-0.7,5.6c-1.1,0.2-2.1,0.6-3.1,1.1c-0.9,0.5-1.8,1.2-2.6,2.1l-5.2-2.2l-2,3.5l4.6,3.4
		c-0.1,0.5-0.3,1.1-0.3,1.6c-0.1,0.5-0.1,1.1-0.1,1.7c0,0.6,0,1.1,0.1,1.6c0.1,0.5,0.2,1.1,0.3,1.6l-4.6,3.4l2,3.5l5.2-2.2
		c0.8,0.8,1.7,1.5,2.6,2c0.9,0.5,2,0.9,3.1,1.2L21.9,40.7z M23.9,29.6c1.6,0,2.9-0.5,4-1.6c1.1-1.1,1.6-2.4,1.6-4s-0.5-2.9-1.6-4
		c-1.1-1.1-2.4-1.6-4-1.6c-1.6,0-2.9,0.5-4,1.6c-1.1,1.1-1.7,2.4-1.6,4c0,1.6,0.5,2.9,1.6,4C21.1,29.1,22.4,29.6,23.9,29.6z"/>
</g>
</svg>
