<?xml version="1.0" encoding="utf-8"?>
<!-- Generator: Adobe Illustrator 27.0.0, SVG Export Plug-In . SVG Version: 6.00 Build 0)  -->
<svg version="1.1" id="Layer_1" xmlns="http://www.w3.org/2000/svg" xmlns:xlink="http://www.w3.org/1999/xlink" x="0px" y="0px"
	 viewBox="0 0 48 48" style="enable-background:new 0 0 48 48;" xml:space="preserve">
<g>
	<path d="M36.3,43.5c-1.5,0-2.7-0.5-3.7-1.5c-1-1-1.5-2.3-1.5-3.7c0-0.2,0-0.5,0.1-0.9s0.1-0.6,0.2-0.9l-15.6-9.1
		c-0.5,0.6-1.1,1-1.8,1.4c-0.7,0.3-1.4,0.5-2.2,0.5c-1.5,0-2.7-0.5-3.7-1.5c-1-1-1.5-2.3-1.5-3.7S7,21.3,8,20.3c1-1,2.3-1.5,3.7-1.5
		c0.8,0,1.5,0.2,2.2,0.5c0.7,0.3,1.3,0.7,1.8,1.3l15.6-9c-0.1-0.2-0.2-0.5-0.2-0.8c0-0.3-0.1-0.6-0.1-0.9c0-1.5,0.5-2.7,1.5-3.7
		c1-1,2.3-1.5,3.7-1.5S39,5,40,6c1,1,1.5,2.3,1.5,3.7c0,1.5-0.5,2.7-1.5,3.8c-1,1-2.3,1.5-3.7,1.5c-0.8,0-1.5-0.1-2.2-0.4
		c-0.7-0.3-1.3-0.7-1.8-1.3l-15.6,8.8c0.1,0.3,0.1,0.6,0.2,0.9c0,0.3,0.1,0.6,0.1,0.9c0,0.3,0,0.5-0.1,0.8s-0.1,0.6-0.2,0.8
		l15.6,8.9c0.5-0.5,1.1-0.9,1.7-1.2c0.6-0.3,1.4-0.4,2.2-0.4c1.5,0,2.7,0.5,3.7,1.5c1,1,1.5,2.3,1.5,3.7c0,1.5-0.5,2.7-1.5,3.8
		C39,43,37.7,43.5,36.3,43.5L36.3,43.5z M36.3,12.8c0.8,0,1.6-0.3,2.1-0.9s0.9-1.3,0.9-2.1S39,8.2,38.4,7.6
		c-0.6-0.6-1.3-0.9-2.1-0.9c-0.8,0-1.6,0.3-2.1,0.9c-0.6,0.6-0.9,1.3-0.9,2.1s0.3,1.6,0.9,2.1C34.7,12.5,35.4,12.8,36.3,12.8z
		 M11.8,27c0.8,0,1.6-0.3,2.1-0.9c0.6-0.6,0.9-1.3,0.9-2.1c0-0.8-0.3-1.6-0.9-2.1c-0.6-0.6-1.3-0.9-2.1-0.9c-0.8,0-1.6,0.3-2.1,0.9
		c-0.6,0.6-0.9,1.3-0.9,2.1c0,0.8,0.3,1.6,0.9,2.1S10.9,27,11.8,27z M36.3,41.2c0.8,0,1.6-0.3,2.1-0.9c0.6-0.6,0.9-1.3,0.9-2.1
		s-0.3-1.6-0.9-2.1c-0.6-0.6-1.3-0.9-2.1-0.9c-0.8,0-1.6,0.3-2.1,0.9c-0.6,0.6-0.9,1.3-0.9,2.1c0,0.8,0.3,1.6,0.9,2.1
		C34.7,40.9,35.4,41.2,36.3,41.2z"/>
</g>
</svg>
