<?xml version="1.0" encoding="utf-8"?>
<!-- Generator: Adobe Illustrator 27.0.0, SVG Export Plug-In . SVG Version: 6.00 Build 0)  -->
<svg version="1.1" id="Layer_1" xmlns="http://www.w3.org/2000/svg" xmlns:xlink="http://www.w3.org/1999/xlink" x="0px" y="0px"
	 viewBox="0 0 48 48" style="enable-background:new 0 0 48 48;" xml:space="preserve">
<g>
	<path d="M14.6,43.1c-0.9,0-1.6-0.3-2.3-0.9c-0.6-0.6-0.9-1.4-0.9-2.3c0-0.9,0.3-1.7,0.9-2.3c0.6-0.6,1.4-0.9,2.3-0.9
		c0.9,0,1.6,0.3,2.3,0.9c0.6,0.6,0.9,1.4,0.9,2.3s-0.3,1.7-0.9,2.3S15.4,43.1,14.6,43.1z M33.9,43.1c-0.9,0-1.6-0.3-2.3-0.9
		c-0.6-0.6-0.9-1.4-0.9-2.3c0-0.9,0.3-1.7,0.9-2.3c0.6-0.6,1.4-0.9,2.3-0.9c0.9,0,1.6,0.3,2.3,0.9c0.6,0.6,0.9,1.4,0.9,2.3
		s-0.3,1.7-0.9,2.3C35.6,42.8,34.8,43.1,33.9,43.1z M11.6,10.7l5.6,11.6h13.9c0.1,0,0.2,0,0.3-0.1c0.1-0.1,0.2-0.1,0.2-0.2l5.9-10.8
		c0.1-0.1,0.1-0.3,0-0.4c-0.1-0.1-0.2-0.2-0.3-0.2L11.6,10.7z M10.5,8.5h27.7c0.8,0,1.4,0.4,1.9,1.1c0.4,0.7,0.4,1.4,0,2.1L34,22.8
		c-0.3,0.6-0.8,1-1.3,1.3c-0.5,0.3-1.1,0.5-1.7,0.5H16.2l-2.8,5.1c-0.1,0.2-0.1,0.3,0,0.5c0.1,0.2,0.2,0.3,0.4,0.3h23.3v2.3h-23
		c-1.3,0-2.2-0.4-2.7-1.3c-0.6-0.9-0.6-1.8,0-2.9l3.2-5.9l-7.6-16H3.4V4.5h5.2L10.5,8.5z M17.2,22.4h14.3H17.2z"/>
</g>
</svg>
