<?xml version="1.0" encoding="utf-8"?>
<!-- Generator: Adobe Illustrator 27.0.0, SVG Export Plug-In . SVG Version: 6.00 Build 0)  -->
<svg version="1.1" id="Layer_1" xmlns="http://www.w3.org/2000/svg" xmlns:xlink="http://www.w3.org/1999/xlink" x="0px" y="0px"
	 viewBox="0 0 48 48" style="enable-background:new 0 0 48 48;" xml:space="preserve">
<g>
	<path d="M13.6,37v-2.3H29c2.3,0,4.2-0.8,5.8-2.3c1.6-1.5,2.4-3.4,2.4-5.7c0-2.2-0.8-4.1-2.4-5.7c-1.6-1.5-3.5-2.3-5.8-2.3H13.3
		l5.9,5.9l-1.6,1.6L9,17.7L17.7,9l1.6,1.6l-5.9,5.9h15.6c2.9,0,5.4,1,7.4,3c2.1,2,3.1,4.4,3.1,7.3c0,2.9-1,5.3-3.1,7.3
		c-2.1,2-4.5,3-7.4,3H13.6z"/>
</g>
</svg>
