<?xml version="1.0" encoding="utf-8"?>
<!-- Generator: Adobe Illustrator 27.0.0, SVG Export Plug-In . SVG Version: 6.00 Build 0)  -->
<svg version="1.1" id="Layer_1" xmlns="http://www.w3.org/2000/svg" xmlns:xlink="http://www.w3.org/1999/xlink" x="0px" y="0px"
	 viewBox="0 0 48 48" style="enable-background:new 0 0 48 48;" xml:space="preserve">
<g>
	<path d="M31,26.3l-1.7-1.7c0.7-2.3,0.2-4.1-1.4-5.6c-1.7-1.5-3.5-1.9-5.4-1.2L20.7,16c0.5-0.3,1-0.5,1.5-0.6
		c0.6-0.1,1.1-0.2,1.8-0.2c2.2,0,4,0.8,5.5,2.3c1.5,1.5,2.3,3.4,2.3,5.5c0,0.6-0.1,1.2-0.2,1.8C31.4,25.4,31.3,25.9,31,26.3z
		 M37.4,32.6l-1.6-1.5c1.5-1.1,2.9-2.4,4-3.8c1.2-1.4,2-2.8,2.6-4.3c-1.7-3.6-4.1-6.5-7.4-8.6c-3.3-2.1-6.9-3.2-10.7-3.2
		c-1.3,0-2.6,0.1-3.9,0.4c-1.3,0.2-2.4,0.5-3.3,0.8l-1.7-1.8c1.1-0.5,2.5-0.9,4.1-1.2C21.1,9.2,22.7,9,24.2,9
		c4.5,0,8.6,1.3,12.4,3.8c3.8,2.5,6.6,5.9,8.3,10.2c-0.8,1.9-1.9,3.7-3.1,5.3C40.6,29.9,39.1,31.3,37.4,32.6z M40.4,43.5l-8.1-8
		c-1,0.5-2.3,0.8-3.7,1.1c-1.5,0.3-3,0.4-4.6,0.4c-4.6,0-8.8-1.3-12.5-3.8C7.7,30.7,4.9,27.3,3.1,23c0.7-1.7,1.7-3.4,3-5.1
		c1.3-1.6,2.7-3.1,4.4-4.5L4.3,7.4l1.6-1.6l36,36L40.4,43.5z M11.9,15.1c-1.2,0.9-2.5,2.1-3.7,3.5C6.9,20.1,6,21.6,5.4,23
		c1.7,3.6,4.2,6.5,7.5,8.6s7.1,3.2,11.3,3.2c1.2,0,2.5-0.1,3.7-0.3c1.2-0.2,2.1-0.4,2.6-0.7L27,30.2c-0.4,0.2-0.8,0.3-1.4,0.4
		c-0.6,0.1-1.1,0.2-1.6,0.2c-2.2,0-4-0.7-5.5-2.2C17,27,16.2,25.2,16.2,23c0-0.5,0.1-1,0.2-1.6c0.1-0.6,0.3-1,0.4-1.4L11.9,15.1z"/>
</g>
</svg>
