<svg id="b" xmlns="http://www.w3.org/2000/svg" viewBox="0 0 256 256"><path d="M139.39,158.37h16.45v-41.76h41.76v-16.45h-41.76V58.4h-16.45v41.76h-41.76v16.45h41.76v41.76Zm-63.81,42.4c-5.7,0-10.51-1.97-14.45-5.9-3.93-3.93-5.9-8.75-5.9-14.45V36.35c0-5.7,1.97-10.51,5.9-14.45,3.93-3.93,8.75-5.9,14.45-5.9H219.65c5.7,0,10.51,1.97,14.45,5.9,3.93,3.93,5.9,8.75,5.9,14.45V180.42c0,5.7-1.97,10.51-5.9,14.45-3.93,3.93-8.75,5.9-14.45,5.9H75.58Zm0-16.45H219.65l2.68-1.22,1.22-2.68V36.35l-1.22-2.68-2.68-1.22H75.58l-2.68,1.22-1.22,2.68V180.42l1.22,2.68,2.68,1.22Zm-39.23,55.68c-5.7,0-10.51-1.97-14.45-5.9-3.93-3.93-5.9-8.75-5.9-14.45V59.13h16.45V219.65l1.22,2.68,2.68,1.22H196.87v16.45H36.35ZM71.68,32.45v0Z" fill="#000"/></svg>