<?xml version="1.0" encoding="UTF-8"?><svg id="b" xmlns="http://www.w3.org/2000/svg" viewBox="0 0 256 256"><path d="M168,240c-1,0-2.01-.19-2.97-.57l-37.03-14.81-37.03,14.81c-2.46,.99-5.26,.69-7.46-.8-2.2-1.49-3.52-3.97-3.52-6.62v-32c0-2.12,.84-4.16,2.34-5.66l13.66-13.66v-18.93l-70.43,14.09c-2.35,.47-4.79-.14-6.64-1.66s-2.93-3.79-2.93-6.19v-32c0-3.03,1.71-5.8,4.42-7.16l75.58-37.79V48c0-17.65,14.35-32,32-32s32,14.35,32,32v43.06l75.58,37.79c2.71,1.36,4.42,4.12,4.42,7.16v32c0,2.4-1.07,4.67-2.93,6.19-1.85,1.52-4.29,2.13-6.64,1.66l-70.43-14.09v18.93l13.66,13.66c1.5,1.5,2.34,3.54,2.34,5.66v32c0,2.65-1.32,5.14-3.51,6.62-1.34,.91-2.91,1.38-4.49,1.38Zm-40-32c1.01,0,2.02,.19,2.97,.57l29.03,11.61v-16.87l-13.66-13.66c-1.5-1.5-2.34-3.54-2.34-5.66v-32c0-2.4,1.07-4.67,2.93-6.19s4.29-2.13,6.64-1.66l70.43,14.09v-17.3l-75.58-37.79c-2.71-1.35-4.42-4.12-4.42-7.16V48c0-8.82-7.18-16-16-16s-16,7.18-16,16v48c0,3.03-1.71,5.8-4.42,7.16l-75.58,37.79v17.3l70.43-14.09c2.35-.47,4.79,.14,6.64,1.66,1.85,1.52,2.93,3.79,2.93,6.19v32c0,2.12-.84,4.16-2.34,5.66l-13.66,13.66v16.87l29.03-11.61c.95-.38,1.96-.57,2.97-.57Z"/></svg>