<svg xmlns="http://www.w3.org/2000/svg" viewBox="0 0 256 256"><path d="M46.4,205.8v-15.83h12.27V111.28c0-17.19,5.41-32.23,16.23-45.12,10.82-12.89,24.66-20.69,41.52-23.39v-15.2c0-3.21,1.12-5.95,3.37-8.2,2.25-2.25,4.98-3.37,8.18-3.37s5.94,1.12,8.2,3.37c2.26,2.25,3.39,4.98,3.39,8.2v15.2c16.86,2.7,30.71,10.5,41.52,23.39,10.82,12.89,16.23,27.93,16.23,45.12v78.7h12.27v15.83H46.4Zm81.51,34.2c-5.41,0-10.01-1.92-13.8-5.75-3.8-3.83-5.69-8.44-5.69-13.83h39.16c0,5.47-1.93,10.1-5.78,13.89-3.85,3.79-8.48,5.69-13.89,5.69Zm-53.41-50.03h106.99V111.28c0-14.91-5.19-27.55-15.56-37.93-10.38-10.38-23.02-15.56-37.93-15.56s-27.56,5.19-37.93,15.56c-10.37,10.37-15.56,23.02-15.56,37.93v78.7Z"/></svg>