<svg xmlns="http://www.w3.org/2000/svg" viewBox="0 0 256 256"><path d="M128.15,240c-11.17,0-22.57-1.74-34.19-5.21-11.62-3.47-22.08-8.42-31.39-14.83-9.31-6.41-16.95-14.33-22.93-23.77-5.98-9.43-8.97-20.11-8.97-32.02v-31.23l36.27,30.93-17.71,18.01c7.75,12.45,17.52,22.27,29.33,29.45,11.81,7.18,25.64,11.35,41.49,12.51V121.13h-33.02v-15.9h33.02v-22.79c-7.26-1.77-13.35-5.69-18.29-11.77-4.93-6.07-7.4-13.09-7.4-21.04,0-9.33,3.27-17.27,9.82-23.81,6.55-6.55,14.48-9.82,23.81-9.82s17.27,3.27,23.81,9.82c6.55,6.55,9.82,14.48,9.82,23.81,0,8.04-2.47,15.08-7.4,21.11-4.93,6.03-11.03,9.93-18.29,11.7v22.79h33.02v15.9h-33.02v102.71c15.85-1.16,29.7-5.36,41.55-12.61,11.85-7.24,21.6-17.09,29.27-29.54l-17.71-17.83,36.27-30.93v31.23c0,11.92-2.99,22.59-8.97,32.02-5.98,9.43-13.63,17.4-22.93,23.92-9.31,6.51-19.72,11.46-31.23,14.83-11.52,3.37-22.86,5.06-34.03,5.06Zm-.15-172.63c4.94,0,9.13-1.72,12.57-5.16,3.44-3.44,5.16-7.63,5.16-12.58s-1.72-9.13-5.16-12.57c-3.44-3.44-7.63-5.16-12.57-5.16s-9.13,1.72-12.57,5.16c-3.44,3.44-5.16,7.63-5.16,12.57s1.72,9.13,5.16,12.58c3.44,3.44,7.63,5.16,12.57,5.16Z"/></svg>