<?xml version="1.0" encoding="UTF-8"?><svg id="b" xmlns="http://www.w3.org/2000/svg" viewBox="0 0 256 256"><path d="M65.24,240c-5.54,0-10.21-1.91-14.01-5.74-3.79-3.83-5.69-8.51-5.69-14.05V87.48c0-5.54,1.91-10.22,5.74-14.05,3.83-3.83,8.51-5.74,14.05-5.74h21.44v-8c0-11.52,3.84-21.68,11.51-30.49,7.68-8.8,17.58-13.21,29.72-13.21s21.27,3.99,29.26,11.98c7.98,7.99,11.98,17.74,11.98,29.26v10.46h21.44c5.54,0,10.22,1.91,14.05,5.74,3.83,3.83,5.74,8.51,5.74,14.05V220.21c0,5.54-1.91,10.22-5.74,14.05-3.83,3.83-8.51,5.74-14.06,5.74H65.24Zm.09-16h125.35l2.6-1.18,1.18-2.6V87.48l-1.18-2.6-2.6-1.18h-21.44v21.54c0,2.27-.76,4.17-2.28,5.7-1.52,1.53-3.4,2.3-5.66,2.3s-4.16-.77-5.72-2.3c-1.56-1.53-2.34-3.43-2.34-5.7v-21.54h-50.46v21.54c0,2.27-.76,4.17-2.28,5.7-1.52,1.53-3.4,2.3-5.66,2.3s-4.16-.77-5.72-2.3c-1.56-1.53-2.34-3.43-2.34-5.7v-21.54h-21.44l-2.6,1.18-1.18,2.6V220.21l1.18,2.6,2.6,1.18ZM102.77,67.69h50.46v-10.46c0-7.04-2.45-13.01-7.35-17.9-4.9-4.89-10.89-7.34-17.94-7.34s-13.02,2.45-17.88,7.34c-4.86,4.89-7.29,10.86-7.29,17.9v10.46ZM61.54,224v0Z"/></svg>