<svg xmlns="http://www.w3.org/2000/svg" viewBox="0 0 256 256"><path d="M128.02,240c-15.35,0-29.83-2.91-43.45-8.74-13.61-5.83-25.53-13.85-35.75-24.06s-18.24-22.12-24.08-35.73c-5.83-13.61-8.75-28.09-8.75-43.44s2.91-30.09,8.74-43.6,13.85-25.38,24.06-35.59c10.21-10.22,22.12-18.24,35.73-24.08,13.61-5.83,28.09-8.75,43.44-8.75s30.09,2.91,43.6,8.74c13.51,5.83,25.38,13.85,35.59,24.06,10.22,10.21,18.24,22.07,24.08,35.58,5.83,13.51,8.75,28.04,8.75,43.59s-2.91,29.83-8.74,43.45c-5.83,13.61-13.85,25.53-24.06,35.75-10.21,10.22-22.07,18.24-35.58,24.08-13.51,5.83-28.04,8.75-43.59,8.75Zm-.02-16c11.75,0,22.87-2,33.36-6.01,10.49-4.01,19.95-9.61,28.39-16.8L54.82,66.25c-7.12,8.44-12.7,17.9-16.74,28.39-4.05,10.49-6.07,21.61-6.07,33.36,0,26.67,9.33,49.33,28,68,18.67,18.67,41.33,28,68,28Zm73.18-34.25c7.19-8.44,12.79-17.9,16.8-28.39,4.01-10.49,6.01-21.61,6.01-33.36,0-26.67-9.33-49.33-28-68-18.67-18.67-41.33-28-68-28-11.78,0-22.93,1.98-33.44,5.95-10.51,3.97-19.95,9.59-28.31,16.86L201.18,189.75Z"/></svg>