<svg xmlns="http://www.w3.org/2000/svg" viewBox="0 0 256 256"><path d="M58.62,240c-8.54,0-15.82-2.99-21.82-8.96-6.01-5.97-9.01-13.19-9.01-21.65V46.84c0-8.54,3-15.82,9.01-21.82,6.01-6.01,13.28-9.01,21.82-9.01h126.06V196.47H58.62c-3.64,0-6.75,1.24-9.31,3.73-2.56,2.49-3.84,5.55-3.84,9.19s1.28,6.71,3.84,9.2c2.56,2.49,5.66,3.73,9.31,3.73H210.53V39.58h17.68V240H58.62Zm0-61.21h108.37V33.68H58.62c-3.72,0-6.84,1.28-9.36,3.84-2.52,2.56-3.79,5.66-3.79,9.31V182.21c2.04-.97,4.13-1.78,6.26-2.44,2.13-.66,4.43-.98,6.89-.98Zm11.22-34.46h11.88l7.32-19.97h34.66l7.14,19.97h11.77l-29.93-79.8h-12.81l-30.04,79.8Zm22.88-30.29l13.44-36.91h.36l13.33,36.91h-27.14Zm-47.25,68.17v0Z"/></svg>