<?xml version="1.0" encoding="UTF-8"?><svg id="b" xmlns="http://www.w3.org/2000/svg" viewBox="0 0 256 256"><path d="M57.99,240c-8.3,0-15.47-2.94-21.31-8.75-5.84-5.8-8.79-12.91-8.79-21.13V46.1c0-8.31,2.96-15.48,8.8-21.3,5.84-5.84,13.01-8.8,21.3-8.8h126.19V196.08H57.99c-3.94,0-7.34,1.36-10.1,4.05-2.77,2.7-4.18,6.06-4.18,10s1.41,7.31,4.18,10.01c2.76,2.69,6.16,4.05,10.1,4.05H212.29V39.78h15.82V240H57.99Zm0-208.19c-4.02,0-7.44,1.41-10.16,4.18-2.73,2.77-4.11,6.17-4.11,10.1V184.29l1.44-.69c1.98-.94,4.06-1.75,6.18-2.41,2.02-.63,4.26-.94,6.65-.94h110.36V31.81H57.99Zm73.58,111.65l-7.2-20.15h-36.39l-7.39,20.15h-9.83l29.55-78.5h11.53l29.44,78.5h-9.71Zm-40.62-28.55h30.25l-14.18-39.26h-1.78l-14.3,39.26Z"/></svg>