<?xml version="1.0" encoding="UTF-8"?><svg id="b" xmlns="http://www.w3.org/2000/svg" viewBox="0 0 256 256"><path d="M55.53,234.39c-7.88,0-15.15-1.56-21.82-4.67-6.67-3.12-12.57-7.45-17.71-13.01,6.41-1.96,11.38-5.44,14.93-10.43,3.55-4.99,5.32-10.65,5.32-16.97,0-9.16,3.12-16.79,9.36-22.88,6.24-6.09,13.86-9.14,22.88-9.14s16.56,3.1,22.65,9.29c6.09,6.2,9.14,13.77,9.14,22.72,0,12.56-4.32,23.22-12.95,31.97-8.64,8.75-19.23,13.12-31.8,13.12Zm0-16.18c7.95,0,14.76-2.83,20.42-8.5,5.66-5.66,8.49-12.47,8.49-20.42,0-4.36-1.55-8.09-4.65-11.19s-6.83-4.65-11.19-4.65-8.09,1.55-11.19,4.65c-3.1,3.1-4.65,6.83-4.65,11.19,0,5.05-.57,9.92-1.72,14.63-1.15,4.7-3.33,8.89-6.54,12.56,1.84,.46,3.67,.86,5.51,1.2,1.84,.34,3.67,.52,5.51,.52Zm75.15-59.31l-27.96-27.96L207.22,26.43c3.21-3.21,7.11-4.82,11.7-4.82s8.49,1.61,11.7,4.82l4.55,4.55c3.21,3.32,4.82,7.18,4.82,11.61s-1.61,8.24-4.82,11.46l-104.51,104.85Z"/></svg>