<?xml version="1.0" encoding="UTF-8"?><svg id="b" xmlns="http://www.w3.org/2000/svg" viewBox="0 0 256 256"><path d="M51.04,240c-5.51,0-10.16-1.94-13.96-5.81-3.8-3.87-5.7-8.49-5.7-13.85V66.43c0-5.36,1.9-9.98,5.7-13.85,3.8-3.87,8.46-5.81,13.96-5.81h26.72V16h16.37v30.76h68.21V16h15.9v30.76h26.72c5.51,0,10.16,1.94,13.96,5.81,3.8,3.87,5.7,8.49,5.7,13.85V220.34c0,5.36-1.9,9.98-5.7,13.85-3.8,3.87-8.46,5.81-13.96,5.81H51.04Zm0-15.9H204.96l2.59-1.18,1.18-2.59V117.79H47.28v102.54l1.18,2.59,2.59,1.18Zm-3.76-122.21H208.72v-35.47l-1.18-2.59-2.59-1.18H51.04l-2.59,1.18-1.18,2.59v35.47Zm0,0v0Zm80.78,57.11c-2.63,0-4.9-.93-6.8-2.79-1.9-1.86-2.86-4.11-2.86-6.74s.93-4.9,2.79-6.8c1.86-1.9,4.11-2.86,6.74-2.86s4.9,.93,6.8,2.79c1.9,1.86,2.86,4.11,2.86,6.74s-.93,4.9-2.79,6.8c-1.86,1.91-4.11,2.86-6.74,2.86Zm-47.7,0c-2.63,0-4.9-.93-6.8-2.79-1.9-1.86-2.86-4.11-2.86-6.74s.93-4.9,2.79-6.8c1.86-1.9,4.11-2.86,6.74-2.86s4.9,.93,6.8,2.79c1.9,1.86,2.86,4.11,2.86,6.74s-.93,4.9-2.79,6.8c-1.86,1.91-4.11,2.86-6.74,2.86Zm95.4,0c-2.63,0-4.9-.93-6.8-2.79-1.9-1.86-2.86-4.11-2.86-6.74s.93-4.9,2.79-6.8c1.86-1.9,4.11-2.86,6.74-2.86s4.9,.93,6.8,2.79c1.9,1.86,2.86,4.11,2.86,6.74s-.93,4.9-2.79,6.8c-1.86,1.91-4.11,2.86-6.74,2.86Zm-47.7,43.09c-2.63,0-4.9-.93-6.8-2.79-1.9-1.86-2.86-4.11-2.86-6.74s.93-4.9,2.79-6.8c1.86-1.91,4.11-2.86,6.74-2.86s4.9,.93,6.8,2.79c1.9,1.86,2.86,4.11,2.86,6.74s-.93,4.9-2.79,6.8c-1.86,1.91-4.11,2.86-6.74,2.86Zm-47.7,0c-2.63,0-4.9-.93-6.8-2.79-1.9-1.86-2.86-4.11-2.86-6.74s.93-4.9,2.79-6.8c1.86-1.91,4.11-2.86,6.74-2.86s4.9,.93,6.8,2.79c1.9,1.86,2.86,4.11,2.86,6.74s-.93,4.9-2.79,6.8c-1.86,1.91-4.11,2.86-6.74,2.86Zm95.4,0c-2.63,0-4.9-.93-6.8-2.79-1.9-1.86-2.86-4.11-2.86-6.74s.93-4.9,2.79-6.8c1.86-1.91,4.11-2.86,6.74-2.86s4.9,.93,6.8,2.79c1.9,1.86,2.86,4.11,2.86,6.74s-.93,4.9-2.79,6.8c-1.86,1.91-4.11,2.86-6.74,2.86Z"/></svg>