<?xml version="1.0" encoding="UTF-8"?><svg id="b" xmlns="http://www.w3.org/2000/svg" viewBox="0 0 256 256"><path d="M221.23,239.91c-25.8-2.13-50.61-8.94-74.41-20.43-23.8-11.49-45.35-26.91-64.65-46.25-19.3-19.34-34.57-40.84-45.83-64.48-11.26-23.64-18.07-48.36-20.43-74.16-.47-5.01,.98-9.36,4.36-13.05,3.38-3.69,7.6-5.54,12.67-5.54h37.07c4.29,0,7.99,1.29,11.08,3.86,3.09,2.57,5.25,5.94,6.47,10.08l7.43,29.7c.56,3.17,.39,6.26-.53,9.28-.92,3.02-2.42,5.48-4.49,7.37l-32.78,31.91c5.28,9.9,11.13,19.22,17.55,27.95,6.42,8.73,13.46,16.9,21.12,24.51,7.56,7.56,15.72,14.55,24.5,21,8.77,6.44,18.24,12.3,28.42,17.58l33.63-32.84c1.98-2.07,4.26-3.46,6.83-4.15,2.56-.69,5.43-.8,8.6-.33l28.41,6.25c4.29,1.18,7.69,3.37,10.19,6.55,2.5,3.18,3.75,6.97,3.75,11.36v36.79c0,5.07-1.91,9.29-5.72,12.67-3.81,3.38-8.22,4.83-13.23,4.36ZM48.88,90.19l26.75-25.66,.89-1.5-.07-1.77-6.23-24.62-.95-1.64-1.77-.55h-30.65l-1.37,.55-.54,1.37c.73,8.99,2.31,17.96,4.76,26.9,2.45,8.94,5.51,17.92,9.18,26.93Zm118.52,117.7c8.49,3.73,17.36,6.57,26.62,8.51,9.26,1.94,17.86,3.36,25.79,4.27l1.37-.55,.55-1.37v-30.57l-.55-1.77-1.64-.95-23.07-5-1.43-.07-1.3,.89-26.34,26.61Z"/></svg>