<?xml version="1.0" encoding="UTF-8"?><svg id="b" xmlns="http://www.w3.org/2000/svg" viewBox="0 0 256 256"><path d="M223.74,239.81c-.57,0-1.15-.03-1.73-.08l-.44-.04h-.01c-25.6-2.15-50.55-9.03-74.16-20.43-23.75-11.47-45.57-27.08-64.85-46.39-19.25-19.29-34.72-41.05-45.97-64.68-11.24-23.59-18.13-48.61-20.49-74.36-.45-4.8,.9-8.85,4.13-12.37,3.24-3.54,7.17-5.25,12.02-5.25h37.34c4.06,0,7.6,1.23,10.52,3.66,2.94,2.45,5.03,5.7,6.2,9.66l7.47,29.88c.52,2.96,.35,5.95-.52,8.81-.87,2.85-2.3,5.2-4.24,6.97l-33.59,32.69,.36,.67c5.32,9.98,11.3,19.49,17.76,28.28,6.47,8.79,13.66,17.14,21.38,24.81,7.59,7.59,15.94,14.75,24.79,21.25,8.85,6.5,18.52,12.48,28.76,17.79l.65,.34,34.4-33.59c1.89-1.97,4.05-3.29,6.44-3.93,1.44-.39,3.01-.59,4.67-.59,1.14,0,2.35,.09,3.59,.28l28.55,6.28c4.04,1.11,7.31,3.21,9.69,6.24,2.36,3.01,3.56,6.65,3.56,10.82v37.06c0,4.84-1.77,8.77-5.42,12.01-3.16,2.8-6.81,4.23-10.83,4.23Zm-30.17-58.91l-27.63,27.91,1.34,.59c8.59,3.78,17.68,6.68,27.01,8.64,9.28,1.94,18.05,3.39,26.07,4.32l.25,.03,2.02-.81,.79-1.96v-31.14l-.72-2.3-2.13-1.23-23.47-5.09-1.86-.09-1.67,1.14ZM48.99,90.65l27.05-25.94,1.12-1.89-.09-2.19-6.34-25.04-1.22-2.11-2.3-.72h-31.22l-1.96,.79-.79,2,.02,.23c.74,9.12,2.36,18.29,4.83,27.28,2.47,9.01,5.59,18.18,9.29,27.24l1.94-.38-.31,.72Z"/></svg>