<?xml version="1.0" encoding="UTF-8"?><svg id="b" xmlns="http://www.w3.org/2000/svg" viewBox="0 0 256 256"><path d="M57.23,157.3h97.23v-16H57.23v16Zm0-40.62H198.77v-16H57.23v16Zm0-40.62H198.77v-16H57.23v16ZM16,237.16V38.63c0-5.54,1.91-10.22,5.74-14.05,3.83-3.83,8.51-5.74,14.05-5.74H220.21c5.54,0,10.22,1.91,14.05,5.74,3.83,3.83,5.74,8.51,5.74,14.05V178.74c0,5.54-1.91,10.22-5.74,14.05-3.83,3.83-8.51,5.74-14.05,5.74H54.63l-38.63,38.63Zm32-54.63H220.21l2.6-1.18,1.18-2.6V38.63l-1.18-2.6-2.6-1.18H35.79l-2.6,1.18-1.18,2.6V198.65l16-16.12Zm-16,0v0Z"/></svg>