<?xml version="1.0" encoding="UTF-8"?><svg id="b" xmlns="http://www.w3.org/2000/svg" viewBox="0 0 256 256"><path d="M112.07,168.05l69.21-68.9-11.43-11.43-57.78,57.47-26.15-25.85-11.43,11.43,37.58,37.28Zm15.95,71.95c-15.35,0-29.83-2.91-43.45-8.74-13.61-5.83-25.53-13.85-35.75-24.06s-18.24-22.12-24.08-35.73c-5.83-13.61-8.75-28.09-8.75-43.44s2.91-30.09,8.74-43.6,13.85-25.38,24.06-35.59c10.21-10.22,22.12-18.24,35.73-24.08,13.61-5.83,28.09-8.75,43.44-8.75s30.09,2.91,43.6,8.74c13.51,5.83,25.38,13.85,35.59,24.06,10.22,10.21,18.24,22.07,24.08,35.58,5.83,13.51,8.75,28.04,8.75,43.59s-2.91,29.83-8.74,43.45c-5.83,13.61-13.85,25.53-24.06,35.75-10.21,10.22-22.07,18.24-35.58,24.08-13.51,5.83-28.04,8.75-43.59,8.75Zm-.02-16c26.67,0,49.33-9.33,68-28,18.67-18.67,28-41.33,28-68s-9.33-49.33-28-68c-18.67-18.67-41.33-28-68-28s-49.33,9.33-68,28c-18.67,18.67-28,41.33-28,68s9.33,49.33,28,68c18.67,18.67,41.33,28,68,28Z"/></svg>