<?xml version="1.0" encoding="UTF-8"?><svg id="b" xmlns="http://www.w3.org/2000/svg" viewBox="0 0 256 256"><path d="M38.22,240c-6.27,0-11.43-2.11-15.77-6.45-4.34-4.34-6.45-9.5-6.45-15.77V38.22c0-6.27,2.11-11.43,6.45-15.77,4.34-4.34,9.5-6.45,15.77-6.45H217.78c6.27,0,11.43,2.11,15.77,6.45,4.34,4.34,6.45,9.5,6.45,15.77V217.78c0,6.27-2.11,11.43-6.45,15.77-4.34,4.34-9.5,6.45-15.77,6.45H38.22Zm-4.38-206.16l-1.79,3.93V218.23l1.79,3.93,3.93,1.79H218.23l3.93-1.79,1.79-3.93V37.78l-1.79-3.93-3.93-1.79H37.78l-3.93,1.79Z"/></svg>