<?xml version="1.0" encoding="UTF-8"?><svg id="b" xmlns="http://www.w3.org/2000/svg" viewBox="0 0 256 256"><path d="M171.36,178.18l11.43-11.43-46.79-46.79V54.15h-16V126.82l51.36,51.36Zm-43.34,61.82c-15.43,0-29.93-2.92-43.51-8.74-13.58-5.83-25.47-13.85-35.69-24.06-10.22-10.21-18.24-22.12-24.08-35.72-5.83-13.6-8.75-28.13-8.75-43.59s2.91-30,8.74-43.62c5.83-13.61,13.85-25.48,24.06-35.59,10.21-10.11,22.12-18.09,35.72-23.92,13.6-5.83,28.13-8.75,43.59-8.75s30,2.94,43.62,8.82c13.62,5.88,25.46,13.86,35.53,23.94,10.07,10.08,18.05,21.93,23.92,35.55,5.87,13.62,8.81,28.18,8.81,43.67s-2.91,29.93-8.74,43.51c-5.83,13.58-13.8,25.47-23.91,35.69-10.11,10.22-21.98,18.24-35.62,24.08-13.63,5.83-28.2,8.75-43.7,8.75Zm.13-16c26.56,0,49.17-9.38,67.85-28.15,18.67-18.77,28.01-41.43,28.01-67.99s-9.34-49.17-28.01-67.85c-18.67-18.67-41.29-28.01-67.85-28.01s-49.22,9.34-67.99,28.01c-18.77,18.67-28.15,41.29-28.15,67.85s9.38,49.22,28.15,67.99c18.77,18.77,41.43,28.15,67.99,28.15Z"/></svg>