<?xml version="1.0" encoding="UTF-8"?><svg id="d" xmlns="http://www.w3.org/2000/svg" viewBox="0 0 256 256"><path d="M80.33,175.67l73.89-21.44,21.44-73.89-73.89,21.44-21.44,73.89Zm47.64-35.26c-3.45,.21-6.38-.93-8.78-3.41-2.4-2.48-3.6-5.48-3.6-9.02s1.21-6.38,3.63-8.78c2.42-2.4,5.35-3.6,8.8-3.6s6.38,1.21,8.78,3.63c2.4,2.42,3.6,5.35,3.6,8.8s-1.21,6.38-3.63,8.78c-2.42,2.4-5.35,3.6-8.8,3.6Zm.13,99.6c-15.41,0-29.92-2.91-43.53-8.74-13.61-5.83-25.53-13.85-35.75-24.06s-18.24-22.12-24.08-35.72c-5.83-13.6-8.75-28.13-8.75-43.59s2.92-29.95,8.74-43.46c5.83-13.51,13.85-25.38,24.06-35.59,10.21-10.22,22.12-18.24,35.72-24.08,13.6-5.83,28.13-8.75,43.59-8.75s29.95,2.91,43.46,8.74c13.51,5.83,25.38,13.85,35.59,24.06,10.22,10.21,18.24,22.1,24.08,35.65,5.83,13.55,8.75,28.03,8.75,43.44s-2.91,29.92-8.74,43.53c-5.83,13.61-13.85,25.53-24.06,35.75-10.21,10.22-22.1,18.24-35.65,24.08-13.55,5.83-28.03,8.75-43.44,8.75Zm-.03-16c26.7,0,49.36-9.34,67.99-28.01,18.63-18.67,27.94-41.36,27.94-68.06s-9.34-49.36-28.01-67.99c-18.67-18.63-41.36-27.94-68.06-27.94s-49.36,9.34-67.99,28.01c-18.63,18.67-27.94,41.36-27.94,68.06s9.34,49.36,28.01,67.99c18.67,18.63,41.36,27.94,68.06,27.94Z"/></svg>