<?xml version="1.0" encoding="UTF-8"?><svg id="d" xmlns="http://www.w3.org/2000/svg" viewBox="0 0 256 256"><path d="M90.76,200.77c-5.7,0-10.51-1.97-14.45-5.9-3.93-3.93-5.9-8.75-5.9-14.45V36.35c0-5.7,1.97-10.51,5.9-14.45,3.93-3.93,8.75-5.9,14.45-5.9h113.7c5.7,0,10.51,1.97,14.45,5.9,3.93,3.93,5.9,8.75,5.9,14.45V180.42c0,5.7-1.97,10.51-5.9,14.45-3.93,3.93-8.75,5.9-14.45,5.9H90.76Zm0-16.45h113.7l2.68-1.22,1.22-2.68V36.35l-1.22-2.68-2.68-1.22H90.76l-2.68,1.22-1.22,2.68V180.42l1.22,2.68,2.68,1.22Zm-39.23,55.68c-5.7,0-10.51-1.97-14.45-5.9-3.93-3.93-5.9-8.75-5.9-14.45V59.13h16.45V219.65l1.22,2.68,2.68,1.22H181.69v16.45H51.53Zm35.34-55.68v0Z"/></svg>