<?xml version="1.0" encoding="UTF-8"?><svg id="d" xmlns="http://www.w3.org/2000/svg" viewBox="0 0 256 256"><path d="M119.97,219.52v-86.97L46.45,89.99v84.83l.48,1.78,1.42,1.42,71.62,41.49Zm16.06,0l71.62-41.18,1.42-1.42,.48-1.78V90.3l-73.52,42.25v86.97Zm-8.03-101.08l75.68-43.48-74.09-42.41-1.9-.59-1.9,.59L52.32,74.95l75.68,43.48ZM40.32,192.14c-3.13-1.8-5.56-4.2-7.31-7.22-1.75-3.01-2.62-6.32-2.62-9.92V80.68c0-3.6,.87-6.9,2.62-9.92,1.75-3.01,4.19-5.42,7.31-7.22L117.76,18.73c3.1-1.82,6.52-2.73,10.24-2.73s7.14,.91,10.24,2.73l77.44,44.81c3.13,1.8,5.56,4.2,7.31,7.22,1.75,3.01,2.62,6.32,2.62,9.92v94.33c0,3.6-.87,6.9-2.62,9.92-1.75,3.01-4.19,5.42-7.31,7.22l-77.75,45.12c-3.13,1.82-6.45,2.73-9.95,2.73s-6.81-.91-9.91-2.73l-77.75-45.12Z"/></svg>