<?xml version="1.0" encoding="UTF-8"?><svg id="c" xmlns="http://www.w3.org/2000/svg" viewBox="0 0 256 256"><path d="M124.12,175.08l-53.28,53.28H27.64v-43.2l53.28-53.28L16,66.85,66.85,16l65.34,65.22,50.4-50.59c1.76-1.76,3.72-3.08,5.83-3.92,2.11-.84,4.35-1.27,6.65-1.27s4.54,.43,6.65,1.27c2.1,.84,4.06,2.16,5.83,3.93l17.82,18.35c1.77,1.77,3.07,3.72,3.87,5.82,.81,2.11,1.22,4.35,1.22,6.66s-.41,4.49-1.21,6.5c-.8,2-2.1,3.91-3.87,5.68l-50.17,50.47,64.8,65.03-50.85,50.85-65.03-64.92Zm11.34-11.46l53.58,53.76,28.35-28.35-19.98-19.98-13.61,13.42-11.28-11.28,13.43-13.61-22.32-22.13-28.16,28.16Zm-91.76,28.4v20.28h20.28l119.28-119.09-.72-.71-9.36-9.48-9.68-9.56-.71-.71L43.7,192.02Zm-5.2-125.17l53.88,53.69,28.16-28.35-22.24-22.44-13.61,13.62-11.28-11.28,13.42-13.61-19.98-19.98-28.35,28.35Z"/></svg>