<?xml version="1.0" encoding="UTF-8"?><svg id="c" xmlns="http://www.w3.org/2000/svg" viewBox="0 0 256 256"><path d="M91.5,225.38v-13.35l14.06-14.06H35.79c-5.54,0-10.22-1.91-14.05-5.74s-5.74-8.51-5.74-14.05V50.4c0-5.54,1.91-10.22,5.74-14.05,3.83-3.83,8.51-5.74,14.05-5.74H220.21c5.54,0,10.22,1.91,14.05,5.74,3.83,3.83,5.74,8.51,5.74,14.05v127.78c0,5.54-1.91,10.22-5.74,14.05s-8.51,5.74-14.05,5.74h-69.78l14.06,14.06v13.35H91.5ZM32,154.29H224V50.4l-1.18-2.6-2.6-1.18H35.79l-2.6,1.18-1.18,2.6v103.88Zm0,0v0Z"/></svg>