<?xml version="1.0" encoding="UTF-8"?><svg id="c" xmlns="http://www.w3.org/2000/svg" viewBox="0 0 256 256"><path d="M44.72,151.73h10.15l6.03-16.98h29.17l6.19,16.98h10.09l-25.25-67.16h-11.24l-25.15,67.16Zm19.45-25.83l11.06-30.58h.53l11.06,30.58h-22.65Zm84.55-21.23v-14.03c5.8-2.69,11.87-4.71,18.21-6.06,6.34-1.35,12.92-2.02,19.74-2.02,4.28,0,8.44,.3,12.47,.91,4.03,.61,8.08,1.41,12.14,2.41v13.37c-3.99-1.4-7.96-2.41-11.91-3.04-3.94-.63-8.18-.94-12.71-.94-6.82,0-13.43,.81-19.83,2.43-6.39,1.62-12.43,3.94-18.12,6.97Zm0,58.46v-14.24c5.66-2.69,11.71-4.71,18.15-6.06,6.44-1.35,13.04-2.02,19.79-2.02,4.28,0,8.44,.3,12.47,.91,4.03,.61,8.08,1.41,12.14,2.41v13.37c-3.99-1.4-7.96-2.41-11.91-3.04-3.94-.63-8.18-.94-12.71-.94-6.82,0-13.43,.82-19.83,2.45-6.39,1.63-12.43,4.02-18.12,7.15Zm0-29.13v-14.24c5.8-2.69,11.87-4.71,18.21-6.06,6.34-1.35,12.92-2.02,19.74-2.02,4.28,0,8.44,.3,12.47,.91,4.03,.61,8.08,1.41,12.14,2.41v13.37c-3.99-1.4-7.96-2.41-11.91-3.04-3.94-.63-8.18-.94-12.71-.94-6.82,0-13.43,.84-19.83,2.53-6.39,1.69-12.43,4.04-18.12,7.07Zm-79.38,37.58c8.83,0,17.43,1,25.78,3.01,8.36,2,16.65,5.15,24.88,9.43V79.16c-7.49-4.88-15.6-8.54-24.33-10.98-8.73-2.44-17.5-3.66-26.34-3.66-6.4,0-12.38,.5-17.94,1.51-5.56,1.01-11.27,2.65-17.14,4.93l-1.74,1.18-.51,1.69v100.88l1.03,2.1,2.26,.15c5.06-1.72,10.4-3.05,16.02-3.98,5.62-.93,11.63-1.39,18.03-1.39Zm66.67,12.43c8.23-4.28,16.53-7.42,24.88-9.43,8.36-2,16.95-3.01,25.78-3.01,6.4,0,12.41,.47,18.03,1.39,5.62,.93,10.96,2.26,16.02,3.98l2.26-.15,1.03-2.1V73.83l-.51-1.64-1.74-1.23c-5.87-2.28-11.58-3.93-17.14-4.93-5.56-1-11.54-1.51-17.94-1.51-8.83,0-17.61,1.22-26.34,3.66-8.73,2.44-16.83,6.1-24.33,10.98v104.86Zm-8,23.46c-8.6-6.34-17.88-11.25-27.83-14.71-9.96-3.46-20.23-5.19-30.83-5.19-6.51,0-12.9,.72-19.18,2.16-6.28,1.44-12.33,3.57-18.15,6.37-3.8,1.75-7.42,1.47-10.85-.83-3.43-2.3-5.15-5.57-5.15-9.79V69.68c0-2.3,.59-4.46,1.78-6.47,1.18-2.02,2.89-3.47,5.12-4.36,7.22-3.51,14.74-6.12,22.57-7.81,7.83-1.69,15.78-2.53,23.87-2.53,10.38,0,20.52,1.42,30.42,4.26,9.9,2.84,19.32,7.03,28.25,12.57,8.93-5.54,18.34-9.73,28.25-12.57,9.9-2.84,20.04-4.26,30.42-4.26,8.08,0,16.04,.84,23.87,2.53,7.83,1.69,15.35,4.29,22.57,7.81,2.23,.89,3.94,2.34,5.12,4.36,1.18,2.02,1.78,4.17,1.78,6.47v115.81c0,4.23-1.78,7.46-5.35,9.69-3.57,2.23-7.32,2.48-11.26,.73-5.76-2.74-11.72-4.81-17.9-6.22-6.17-1.41-12.45-2.11-18.82-2.11-10.6,0-20.88,1.73-30.83,5.19-9.96,3.46-19.23,8.36-27.83,14.71Z"/></svg>