<?xml version="1.0" encoding="UTF-8"?><svg id="c" xmlns="http://www.w3.org/2000/svg" viewBox="0 0 256 256"><path d="M56.63,240c-7.99,0-14.85-2.81-20.39-8.34-5.53-5.53-8.34-12.39-8.34-20.39v-33.3H63.58V16H228.1V211.27c0,7.99-2.81,14.85-8.34,20.39s-12.39,8.34-20.39,8.34H56.63Zm129.84-28.73c0,3.63,1.25,6.72,3.72,9.19,2.47,2.47,5.56,3.72,9.19,3.72s6.72-1.25,9.19-3.72c2.47-2.46,3.72-5.56,3.72-9.19V31.83H79.41V177.97h107.06v33.3Zm-137.17,13.6l120.34-.69h1.01v-30.39H43.72v17.48c0,3.63,.08,8.1,2.55,10.57,.65,.65,2.29,2.55,3.03,3.03m46.31-102.91v-15.83h100.47v15.83H95.61Zm0-34.32v-15.83h100.47v15.83H95.61Z"/></svg>