<?xml version="1.0" encoding="UTF-8"?><svg id="c" xmlns="http://www.w3.org/2000/svg" viewBox="0 0 256 256"><path d="M78.61,240c-6.42,0-11.89-2.29-16.4-6.86-4.51-4.57-6.77-10.07-6.77-16.49s2.29-11.89,6.86-16.4c4.57-4.51,10.07-6.77,16.49-6.77s11.89,2.29,16.4,6.86,6.77,10.07,6.77,16.49-2.29,11.89-6.86,16.4c-4.57,4.51-10.07,6.77-16.49,6.77Zm98.6,0c-6.42,0-11.89-2.29-16.4-6.86-4.51-4.57-6.77-10.07-6.77-16.49s2.29-11.89,6.86-16.4c4.57-4.51,10.07-6.77,16.49-6.77s11.89,2.29,16.4,6.86,6.77,10.07,6.77,16.49-2.29,11.89-6.86,16.4c-4.57,4.51-10.07,6.77-16.49,6.77Zm-98.6-88.74c-6.42,0-11.89-2.29-16.4-6.86s-6.77-10.07-6.77-16.49,2.29-11.89,6.86-16.4c4.57-4.51,10.07-6.77,16.49-6.77s11.89,2.29,16.4,6.86c4.51,4.57,6.77,10.07,6.77,16.49s-2.29,11.89-6.86,16.4c-4.57,4.51-10.07,6.77-16.49,6.77Zm98.6,0c-6.42,0-11.89-2.29-16.4-6.86-4.51-4.57-6.77-10.07-6.77-16.49s2.29-11.89,6.86-16.4c4.57-4.51,10.07-6.77,16.49-6.77s11.89,2.29,16.4,6.86,6.77,10.07,6.77,16.49-2.29,11.89-6.86,16.4c-4.57,4.51-10.07,6.77-16.49,6.77ZM78.61,62.52c-6.42,0-11.89-2.29-16.4-6.86s-6.77-10.07-6.77-16.49,2.29-11.89,6.86-16.4c4.57-4.51,10.07-6.77,16.49-6.77s11.89,2.29,16.4,6.86c4.51,4.57,6.77,10.07,6.77,16.49s-2.29,11.89-6.86,16.4c-4.57,4.51-10.07,6.77-16.49,6.77Zm98.6,0c-6.42,0-11.89-2.29-16.4-6.86-4.51-4.57-6.77-10.07-6.77-16.49s2.29-11.89,6.86-16.4c4.57-4.51,10.07-6.77,16.49-6.77s11.89,2.29,16.4,6.86c4.51,4.57,6.77,10.07,6.77,16.49s-2.29,11.89-6.86,16.4c-4.57,4.51-10.07,6.77-16.49,6.77Z"/></svg>