<?xml version="1.0" encoding="UTF-8"?><svg id="d" xmlns="http://www.w3.org/2000/svg" viewBox="0 0 256 256"><path d="M74.88,224.82c-2.64,0-4.78-.86-6.55-2.63-1.77-1.77-2.63-3.91-2.63-6.55V104.58l-17.54,9.7c-1.52,.85-3.08,1.29-4.64,1.29-.74,0-1.5-.1-2.26-.29-2.37-.59-4.13-1.96-5.38-4.2l-18.59-32.54c-1.26-2.25-1.59-4.52-.99-6.95,.59-2.4,1.96-4.18,4.2-5.44L80.69,31.18h16.77c1.68,0,2.98,.48,3.96,1.45,.98,.98,1.45,2.27,1.45,3.96v3.99c0,6.8,2.51,12.75,7.45,17.69,4.94,4.94,10.89,7.44,17.69,7.44s12.75-2.5,17.69-7.44c4.94-4.94,7.45-10.89,7.45-17.69v-3.99c0-1.68,.47-2.98,1.45-3.96,.98-.98,2.27-1.45,3.96-1.45h16.77l60.19,34.97c2.24,1.26,3.62,3.04,4.21,5.45,.6,2.43,.27,4.7-1,6.95l-18.59,32.53c-1.26,2.23-2.98,3.58-5.29,4.11-.69,.16-1.4,.24-2.09,.24-1.62,0-3.28-.45-4.92-1.33l-17.53-9.31v110.86c0,2.64-.86,4.78-2.63,6.55-1.77,1.77-3.91,2.63-6.55,2.63H74.88Zm6.07-15.25h94.09V79.06l34.82,19.11,12.88-21.74-50.49-29.65h-4.77l-.15,.83c-1.72,9.44-6.24,17.44-13.44,23.79-7.18,6.34-15.9,9.55-25.89,9.55s-18.71-3.21-25.89-9.55c-7.2-6.35-11.72-14.36-13.44-23.79l-.15-.83h-4.77l-50.49,29.65,12.88,21.74,34.82-19.11V209.57Z"/></svg>