<?xml version="1.0" encoding="UTF-8"?><svg id="c" xmlns="http://www.w3.org/2000/svg" viewBox="0 0 256 256"><path d="M35.94,240c-5.57,0-10.27-1.92-14.12-5.77-3.84-3.84-5.77-8.55-5.77-14.12V64.49c0-5.65,1.91-10.43,5.72-14.33,3.81-3.91,8.53-5.76,14.16-5.55h103.64l-16.08,16.08H35.94l-2.62,1.19-1.19,2.62V220.12l1.19,2.62,2.62,1.19H191.57l2.62-1.19,1.19-2.62v-88.04l16.08-16.08v104.12c0,5.57-1.92,10.27-5.77,14.12-3.84,3.84-8.55,5.77-14.12,5.77H35.94Zm54.32-74.2v-37.2L198.28,20.59c1.71-1.71,3.51-2.91,5.4-3.58,1.89-.67,3.86-1.01,5.93-1.01s4.11,.34,6.05,1.01c1.94,.67,3.72,1.81,5.34,3.39l14,13.69c1.79,1.71,3.06,3.59,3.82,5.63,.75,2.04,1.13,4.11,1.13,6.21s-.36,4.14-1.08,6.11c-.72,1.97-1.93,3.8-3.63,5.5l-108.37,108.26h-36.6ZM223.75,46.06l-13.98-14.34,13.98,14.34Zm-117.41,103.66h13.87l76.76-76.77-6.78-7.09-7.32-7.01-76.53,76.53v14.34Zm83.85-83.85l-7.32-7.01,7.32,7.01,6.78,7.09-6.78-7.09Z"/></svg>