<?xml version="1.0" encoding="UTF-8"?><svg id="c" xmlns="http://www.w3.org/2000/svg" viewBox="0 0 256 256"><path d="M127.94,183.76c2.45,0,4.52-.83,6.22-2.49,1.7-1.66,2.55-3.71,2.55-6.16s-.83-4.52-2.49-6.22c-1.66-1.7-3.71-2.55-6.16-2.55s-4.52,.83-6.22,2.48c-1.7,1.66-2.55,3.71-2.55,6.16s.83,4.52,2.49,6.22c1.66,1.7,3.71,2.55,6.16,2.55Zm-7.94-40.05h16V69.87h-16v73.85Zm8.1,96.28c-15.41,0-29.92-2.91-43.53-8.74-13.61-5.83-25.53-13.85-35.75-24.06-10.22-10.21-18.24-22.12-24.08-35.72-5.83-13.6-8.75-28.13-8.75-43.59s2.91-29.95,8.74-43.46,13.85-25.38,24.06-35.59c10.21-10.22,22.12-18.24,35.72-24.08,13.6-5.83,28.13-8.75,43.59-8.75s29.95,2.91,43.46,8.74c13.51,5.83,25.38,13.85,35.59,24.06,10.22,10.21,18.24,22.1,24.08,35.65,5.83,13.55,8.75,28.03,8.75,43.44s-2.91,29.92-8.74,43.53c-5.83,13.61-13.85,25.53-24.06,35.75-10.21,10.22-22.1,18.24-35.65,24.08-13.55,5.83-28.03,8.75-43.44,8.75Zm-.1-16c26.67,0,49.33-9.33,68-28,18.67-18.67,28-41.33,28-68s-9.33-49.33-28-68c-18.67-18.67-41.33-28-68-28s-49.33,9.33-68,28c-18.67,18.67-28,41.33-28,68s9.33,49.33,28,68c18.67,18.67,41.33,28,68,28Z"/></svg>