<?xml version="1.0" encoding="UTF-8"?><svg id="d" xmlns="http://www.w3.org/2000/svg" viewBox="0 0 256 256"><path d="M128.02,169.22c11.46,0,21.19-4.01,29.19-12.03,8-8.02,12.01-17.76,12.01-29.22s-4.01-21.19-12.03-29.19c-8.02-8-17.76-12.01-29.22-12.01s-21.19,4.01-29.19,12.03c-8,8.02-12.01,17.76-12.01,29.22s4.01,21.19,12.03,29.19c8.02,8,17.76,12.01,29.22,12.01Zm-.02-15.03c-7.28,0-13.46-2.55-18.55-7.64-5.09-5.09-7.64-11.28-7.64-18.55s2.55-13.46,7.64-18.55c5.09-5.09,11.28-7.64,18.55-7.64s13.46,2.55,18.55,7.64c5.09,5.09,7.64,11.28,7.64,18.55s-2.55,13.46-7.64,18.55c-5.09,5.09-11.28,7.64-18.55,7.64Zm.01,46.93c-24.48,0-46.78-6.65-66.91-19.95-20.13-13.3-35.16-31.02-45.1-53.18,9.94-22.15,24.96-39.88,45.08-53.18,20.12-13.3,42.42-19.95,66.9-19.95s46.78,6.65,66.91,19.95c20.13,13.3,35.16,31.02,45.1,53.18-9.94,22.15-24.96,39.88-45.08,53.18-20.12,13.3-42.42,19.95-66.9,19.95Zm-.01-14.19c20.37,0,39.2-5.28,56.48-15.83,17.28-10.55,30.56-24.92,39.84-43.11-9.28-18.19-22.56-32.56-39.84-43.11-17.28-10.55-36.11-15.83-56.48-15.83s-39.2,5.28-56.48,15.83c-17.28,10.55-30.56,24.92-39.84,43.11,9.28,18.19,22.56,32.56,39.84,43.11,17.28,10.55,36.11,15.83,56.48,15.83Z"/></svg>