<?xml version="1.0" encoding="UTF-8"?><svg id="d" xmlns="http://www.w3.org/2000/svg" viewBox="0 0 256 256"><path d="M167.27,134.51l-13.35-13.35c.73-7.4-1.49-13.48-6.64-18.24-5.16-4.76-10.94-6.77-17.37-6.04l-13.35-13.35c1.74-.56,3.58-.98,5.53-1.26,1.95-.28,3.92-.42,5.91-.42,11.47,0,21.21,4,29.22,12.01,8,8,12.01,17.74,12.01,29.22,0,1.99-.14,3.99-.42,6.01-.28,2.02-.79,3.83-1.53,5.42Zm36.08,35.87l-10.41-10.2c6.55-5.09,12.51-10.69,17.87-16.78,5.37-6.09,9.87-12.87,13.51-20.33-8.91-18.37-22.06-32.79-39.43-43.25-17.37-10.46-36.34-15.69-56.89-15.69-4.73,0-9.37,.27-13.92,.82-4.55,.55-9,1.46-13.37,2.73l-11.63-11.63c6.35-2.38,12.81-3.99,19.36-4.84,6.56-.85,13.07-1.27,19.55-1.27,24.12,0,46.51,6.51,67.15,19.52,20.65,13.01,35.6,30.88,44.85,53.61-3.86,9.39-8.9,17.95-15.12,25.67-6.22,7.72-13.4,14.94-21.53,21.64Zm2.81,51.13l-33.79-34c-6.14,2.62-12.98,4.72-20.52,6.31-7.53,1.59-15.49,2.38-23.85,2.38-24.19,0-46.58-6.51-67.15-19.52-20.58-13.01-35.53-30.88-44.85-53.61,4.21-10.37,9.87-19.86,16.98-28.48,7.11-8.62,15.13-16.18,24.07-22.67l-27.5-27.29,10.14-10.14L216.3,211.37l-10.14,10.14ZM67.19,82.33c-6.86,4.95-13.56,10.88-20.1,17.78-6.54,6.9-11.68,14.55-15.42,22.96,8.91,18.37,22.06,32.79,39.43,43.25,17.37,10.46,36.34,15.69,56.89,15.69,6.06,0,12.1-.51,18.12-1.53,6.02-1.02,11.19-2.25,15.53-3.69l-16.27-16.06c-2.41,1.12-5.2,1.99-8.37,2.62-3.18,.63-6.18,.95-9,.95-11.47,0-21.21-4-29.22-12.01-8-8-12.01-17.74-12.01-29.22,0-2.76,.41-5.7,1.22-8.85,.81-3.14,1.59-5.99,2.35-8.53l-23.15-23.36Z"/></svg>