<?xml version="1.0" encoding="UTF-8"?><svg id="c" xmlns="http://www.w3.org/2000/svg" viewBox="0 0 256 256"><path d="M72.02,168.02c-10.18,0-17.94-1.36-23.29-4.09-5.35-2.73-10.3-7.87-14.86-15.45-2.7-4.48-4.92-9.64-6.65-15.48-1.73-5.84-3.27-11.29-4.61-16.35-1.88,0-3.46-.6-4.72-1.8-1.26-1.2-1.9-2.74-1.9-4.62v-10.61c0-1.61,.51-2.98,1.54-4.13,1.03-1.15,2.34-1.89,3.95-2.23,8.86-1.82,17.16-3.16,24.88-4.01,7.72-.86,15.31-1.28,22.76-1.28,9.59,0,18.55,.76,26.89,2.27,8.34,1.51,15.31,4.13,20.89,7.84h22.42c5.1-3.81,11.96-6.44,20.6-7.91,8.64-1.47,17.7-2.2,27.18-2.2,7.39,0,14.92,.43,22.59,1.28,7.67,.86,15.94,2.19,24.8,4.01,1.54,.34,2.84,1.09,3.9,2.23,1.06,1.15,1.59,2.52,1.59,4.13v10.61c0,1.88-.63,3.42-1.9,4.62-1.27,1.2-2.84,1.8-4.72,1.8-1.34,5.06-2.88,10.49-4.61,16.3-1.73,5.81-3.95,10.98-6.65,15.53-4.32,7.4-9.21,12.51-14.68,15.32-5.46,2.81-13.29,4.22-23.47,4.22s-19.42-2.28-26.69-6.83c-7.27-4.56-12.46-11.81-15.57-21.75-.92-2.74-1.65-5.48-2.18-8.22-.53-2.74-1.23-5.48-2.08-8.22-.68-2.19-1.86-3.83-3.53-4.94-1.67-1.11-3.65-1.66-5.94-1.66s-4.08,.58-5.68,1.74c-1.6,1.16-2.83,2.78-3.68,4.86-.86,2.74-1.6,5.46-2.23,8.17-.63,2.71-1.38,5.46-2.23,8.27-2.91,10.07-8.02,17.35-15.32,21.85-7.3,4.49-16.25,6.74-26.83,6.74Zm0-11.93c13.08,0,21.94-3.91,26.59-11.72,4.65-7.82,6.97-17.74,6.97-29.76,0-3.44-1.42-6-4.27-7.69-2.85-1.69-6.97-3.19-12.37-4.49-5.04-1.33-10.7-2.11-16.97-2.33-6.27-.22-12.43,.09-18.49,.95-4.45,.68-8.03,1.99-10.73,3.93-2.7,1.94-4.05,4.62-4.05,8.06,0,4.75,.4,9.34,1.2,13.75,.8,4.41,2.01,8.48,3.62,12.21,2.94,6.45,6.36,10.92,10.27,13.39,3.91,2.48,9.98,3.71,18.21,3.71Zm111.96,0c8.23,0,14.3-1.24,18.21-3.71,3.91-2.48,7.25-6.94,10.01-13.39,1.61-3.73,2.86-7.8,3.74-12.21,.89-4.41,1.33-9.08,1.33-14.01,0-3.5-1.35-6.25-4.05-8.24-2.7-1.99-6.36-3.24-10.98-3.75-5.99-.86-12.09-1.13-18.31-.82-6.22,.31-11.85,1.13-16.89,2.46-5.4,1.3-9.52,2.76-12.37,4.37-2.84,1.61-4.27,4.13-4.27,7.57,0,12.02,2.32,21.99,6.97,29.89,4.65,7.9,13.51,11.85,26.59,11.85Z"/></svg>