<?xml version="1.0" encoding="UTF-8"?><svg id="d" xmlns="http://www.w3.org/2000/svg" viewBox="0 0 256 256"><path d="M91.11,150.15c-4.13,0-7.62-1.42-10.5-4.27-2.87-2.85-4.31-6.33-4.31-10.46s1.42-7.62,4.27-10.5c2.85-2.87,6.33-4.31,10.46-4.31s7.62,1.42,10.5,4.27c2.87,2.85,4.31,6.33,4.31,10.46s-1.42,7.62-4.27,10.5c-2.85,2.87-6.33,4.31-10.46,4.31Zm73.85,0c-4.13,0-7.62-1.42-10.5-4.27-2.87-2.85-4.31-6.33-4.31-10.46s1.42-7.62,4.27-10.5c2.85-2.87,6.33-4.31,10.46-4.31s7.62,1.42,10.5,4.27c2.87,2.85,4.31,6.33,4.31,10.46s-1.42,7.62-4.27,10.5c-2.85,2.87-6.33,4.31-10.46,4.31Zm-36.82,73.85c26.76,0,49.43-9.33,68-28,18.57-18.67,27.86-41.31,27.86-67.93,0-4.77-.51-10.18-1.54-16.23-1.03-6.05-2.36-11.33-4-15.85-4.31,1.03-8.21,1.69-11.69,2-3.49,.31-7.59,.46-12.31,.46-17.63,0-34.3-3.44-49.99-10.31-15.7-6.87-29.7-16.77-42.01-29.69-7.59,16-17.18,29.23-28.77,39.69-11.59,10.46-25.28,18.36-41.08,23.69l-.46,3.08-.15,3.08c0,26.67,9.33,49.33,28,68,18.67,18.67,41.38,28,68.14,28Zm-.12,16c-15.43,0-29.93-2.91-43.51-8.74-13.58-5.83-25.47-13.85-35.69-24.06s-18.24-22.12-24.08-35.72c-5.83-13.6-8.75-28.13-8.75-43.59s2.92-30,8.74-43.62c5.83-13.61,13.85-25.48,24.06-35.59,10.21-10.11,22.12-18.09,35.72-23.92,13.6-5.83,28.13-8.75,43.59-8.75s30,2.94,43.62,8.82c13.62,5.88,25.46,13.86,35.53,23.94,10.07,10.08,18.05,21.93,23.92,35.55,5.87,13.62,8.81,28.18,8.81,43.67s-2.91,29.93-8.74,43.51c-5.83,13.58-13.8,25.47-23.91,35.69-10.11,10.22-21.98,18.24-35.62,24.08-13.63,5.83-28.2,8.75-43.7,8.75ZM105.28,34.72c10.15,15.76,23.39,27.66,39.73,35.69,16.34,8.03,32.82,12.05,49.46,12.05,2.94,0,5.58-.07,7.94-.21s5.17-.53,8.44-1.18c-9.66-16.13-21.67-28.34-36.03-36.64-14.37-8.29-29.92-12.44-46.66-12.44-3.82,0-7.62,.23-11.4,.7-3.77,.47-7.6,1.14-11.48,2.02ZM36.07,103.27c12.8-5.79,24.4-13.89,34.79-24.31s17.42-23.61,21.06-39.58c-15.92,7.75-28.43,16.83-37.51,27.26-9.09,10.42-15.2,22.63-18.34,36.63Z"/></svg>