<?xml version="1.0" encoding="UTF-8"?><svg id="d" xmlns="http://www.w3.org/2000/svg" viewBox="0 0 256 256"><path d="M128,229.25l-13.01-11.7c-19.54-17.73-35.7-32.96-48.48-45.7-12.78-12.74-22.91-24.08-30.38-34.02-7.47-9.94-12.7-19-15.67-27.2-2.97-8.19-4.46-16.5-4.46-24.94,0-16.73,5.64-30.74,16.92-42.02,11.28-11.28,25.29-16.92,42.02-16.92,10.29,0,20.02,2.41,29.18,7.22,9.16,4.81,17.12,11.72,23.87,20.71,6.76-8.99,14.71-15.9,23.87-20.71,9.16-4.81,18.89-7.22,29.18-7.22,16.73,0,30.74,5.64,42.02,16.92,11.28,11.28,16.92,25.29,16.92,42.02,0,8.43-1.49,16.75-4.46,24.94-2.97,8.19-8.19,17.26-15.67,27.2-7.47,9.94-17.58,21.28-30.33,34.02-12.74,12.74-28.92,27.98-48.54,45.7l-13.01,11.7Zm0-23.89c18.86-16.97,34.39-31.52,46.57-43.64,12.18-12.12,21.81-22.65,28.88-31.59,7.07-8.94,11.99-16.88,14.74-23.82,2.75-6.94,4.13-13.81,4.13-20.61,0-11.79-3.93-21.61-11.79-29.47-7.86-7.86-17.68-11.79-29.47-11.79-9.31,0-17.91,2.64-25.81,7.92-7.9,5.28-14.15,12.63-18.76,22.05h-16.96c-4.69-9.49-10.96-16.86-18.82-22.11-7.86-5.24-16.44-7.87-25.75-7.87-11.71,0-21.52,3.93-29.42,11.79s-11.85,17.68-11.85,29.47c0,6.8,1.38,13.67,4.13,20.61,2.75,6.94,7.66,14.88,14.74,23.82,7.07,8.94,16.7,19.45,28.88,31.54,12.18,12.08,27.71,26.65,46.57,43.7Z"/></svg>