<?xml version="1.0" encoding="UTF-8"?><svg id="d" xmlns="http://www.w3.org/2000/svg" viewBox="0 0 256 256"><path d="M127.64,240c-11.17,0-20.9-3.8-29.19-11.39-8.29-7.59-12.64-16.65-13.04-27.18-9.66,5.15-19.66,5.9-29.99,2.27-10.33-3.64-18.65-10.31-24.97-20.02-5.71-9.68-7.21-19.84-4.5-30.49,2.72-10.65,8.66-19.01,17.84-25.1-9.34-5.91-15.41-14.35-18.19-25.32-2.78-10.96-1.19-21.34,4.78-31.13,5.97-9.79,14.25-16.48,24.84-20.07,10.59-3.59,20.63-2.6,30.12,2.98,.18-10.7,4.47-19.8,12.87-27.3,8.4-7.51,18.23-11.26,29.51-11.26s21,3.75,29.19,11.26c8.18,7.51,12.58,16.61,13.2,27.3,9.33-5.15,19.38-5.97,30.16-2.47,10.78,3.5,18.96,10.08,24.55,19.72,5.97,9.51,7.63,19.81,4.98,30.9-2.65,11.09-8.67,19.56-18.07,25.41,9.39,6.28,15.59,14.9,18.59,25.85,3,10.95,1.19,20.85-5.43,29.71-6.32,9.38-14.66,15.91-25.04,19.61-10.37,3.69-20.26,3.08-29.67-1.85-.4,10.53-4.8,19.59-13.2,27.18-8.4,7.59-18.18,11.39-29.34,11.39Zm.11-16.95c9.92,0,17.44-4.29,22.55-12.87,5.11-8.58,5.16-17.22,.16-25.91l-10.43-17.93c-1.96,.78-3.93,1.36-5.93,1.75-1.99,.39-4.09,.58-6.28,.58-1.99,0-4.02-.18-6.07-.55-2.05-.37-4.22-.92-6.49-1.66l-10.1,17.48c-4.78,8.91-4.69,17.66,.27,26.24,4.96,8.58,12.4,12.87,22.33,12.87Zm-82.41-47.34c5.04,8.31,12.5,12.46,22.38,12.46s17.43-4.15,22.67-12.46l10.23-17.4c-1.6-1.74-3-3.38-4.2-4.93-1.2-1.55-2.34-3.19-3.42-4.93-1.09-1.65-1.99-3.52-2.71-5.63-.72-2.11-1.41-4.18-2.09-6.22h-20.3c-10.27,0-17.99,4.5-23.18,13.49-5.19,8.99-4.98,17.54,.63,25.63Zm119.81,0c5.35,8.01,12.95,12.03,22.79,12.07,9.84,.04,17.26-3.98,22.26-12.07,5.61-8.09,5.85-16.63,.71-25.63-5.13-8.99-12.78-13.49-22.94-13.49h-20.66c-.52,2.26-1.15,4.38-1.89,6.38-.74,2-1.66,3.8-2.74,5.41-1.09,1.78-2.27,3.5-3.56,5.15-1.29,1.65-2.68,3.24-4.19,4.78l10.23,17.4Zm-76.8-56.06c.59-1.93,1.22-3.91,1.88-5.95,.66-2.04,1.55-3.92,2.66-5.66,1.1-1.74,2.21-3.48,3.32-5.22,1.11-1.74,2.58-3.37,4.4-4.89l-10.23-17.4c-5.43-8.39-13.05-12.61-22.85-12.65-9.8-.04-17.18,4.18-22.13,12.65-4.92,8.52-4.91,17.18,.03,25.95,4.93,8.77,12.31,13.16,22.14,13.16h20.79Zm99.29,0c10.27,0,17.97-4.5,23.12-13.49,5.15-8.99,4.94-17.54-.63-25.63-4.91-8.26-12.33-12.42-22.27-12.49-9.93-.07-17.5,3.99-22.72,12.16l-10.23,17.73c1.83,1.52,3.33,3.15,4.49,4.89,1.16,1.74,2.34,3.48,3.54,5.22,1.2,1.74,2.1,3.59,2.71,5.56,.61,1.97,1.11,3.98,1.52,6.05h20.46Zm-72.01-29.86c2.26-.6,4.39-1.12,6.4-1.55,2.01-.43,4.06-.65,6.17-.65s4.12,.24,6.05,.71c1.93,.48,3.86,.97,5.79,1.49l10.35-17.73c5.08-8.91,5.12-17.66,.12-26.24-5-8.58-12.58-12.87-22.72-12.87s-17.71,4.33-22.71,12.99c-5,8.66-5,17.26,0,25.8l10.56,18.05Zm0,0c2.26-.6,4.39-1.12,6.4-1.55,2.01-.43,4.06-.65,6.17-.65s4.12,.24,6.05,.71c1.93,.48,3.86,.97,5.79,1.49-1.93-.52-3.88-1.02-5.84-1.49-1.97-.48-3.97-.71-5.99-.71s-4.16,.22-6.16,.65c-2.01,.43-4.14,.95-6.39,1.55Zm-22.64,58.66c-1.09-1.65-1.99-3.52-2.71-5.63-.72-2.11-1.36-4.18-1.93-6.22,.57,2.04,1.21,4.11,1.93,6.22,.72,2.11,1.62,3.96,2.71,5.57,1.09,1.78,2.23,3.45,3.42,5,1.2,1.54,2.59,3.19,4.2,4.92-1.6-1.74-3-3.38-4.2-4.93-1.2-1.55-2.34-3.19-3.42-4.93Zm-4.64-28.8c.59-1.93,1.22-3.91,1.88-5.95,.67-2.04,1.55-3.92,2.66-5.66,1.1-1.74,2.21-3.48,3.32-5.22,1.11-1.74,2.58-3.37,4.4-4.89-1.79,1.52-3.25,3.15-4.38,4.89-1.13,1.74-2.25,3.48-3.37,5.22-1.09,1.74-1.96,3.63-2.63,5.66-.67,2.04-1.29,4.02-1.88,5.95Zm39.47,49.02c-1.99,0-4.02-.18-6.07-.55-2.05-.37-4.22-.92-6.49-1.66,2.28,.74,4.45,1.29,6.53,1.66,2.07,.37,4.1,.55,6.07,.55,2.17,0,4.26-.19,6.25-.58,1.99-.39,3.97-.97,5.93-1.75-1.96,.78-3.93,1.36-5.93,1.75-1.99,.39-4.09,.58-6.28,.58Zm27.1-10.36c1.51-1.54,2.9-3.13,4.17-4.78,1.27-1.65,2.47-3.34,3.58-5.08,1.09-1.65,2-3.47,2.74-5.47,.74-2,1.33-4.13,1.77-6.38-.43,2.26-1.02,4.38-1.77,6.38-.74,2-1.66,3.8-2.74,5.41-1.09,1.78-2.27,3.5-3.56,5.15-1.29,1.65-2.68,3.24-4.19,4.78Zm12.26-38.66c-.4-2.06-.91-4.08-1.52-6.05-.61-1.97-1.51-3.82-2.71-5.56-1.2-1.74-2.37-3.48-3.54-5.22-1.16-1.74-2.66-3.37-4.49-4.89,1.83,1.52,3.33,3.15,4.49,4.89,1.16,1.74,2.34,3.48,3.54,5.22,1.2,1.74,2.1,3.59,2.71,5.56,.61,1.97,1.11,3.98,1.52,6.05Zm-39.41,38.14c8.16,0,15.14-2.9,20.95-8.71,5.81-5.81,8.71-12.79,8.71-20.95s-2.9-15.14-8.71-20.95c-5.81-5.81-12.79-8.71-20.95-8.71s-15.14,2.9-20.95,8.71c-5.81,5.81-8.71,12.79-8.71,20.95s2.9,15.14,8.71,20.95c5.81,5.81,12.79,8.71,20.95,8.71Z"/></svg>