<?xml version="1.0" encoding="UTF-8"?><svg id="c" xmlns="http://www.w3.org/2000/svg" viewBox="0 0 256 256"><path d="M34.01,202.58c-5.41,0-9.82-1.78-13.1-5.28-3.26-3.48-4.91-7.77-4.91-12.74V71.99c0-4.98,1.76-9.36,5.24-13.02,3.49-3.68,8-5.55,13.41-5.55h54.12l26.36,26.36h84.38c4.79,0,8.75,1.46,11.75,4.35,2.96,2.84,4.95,6.44,5.92,10.69l.28,1.21H108.67l-26.36-26.36H34.84l-1.85,.72-.72,1.85v111.53l.45,1.47,.15,.12,20.46-69.44H240l-22.03,73.94c-1.3,3.72-2.95,6.75-4.9,9.04-2.07,2.43-5.31,3.66-9.6,3.66H34.01Zm167.8-16.26l16.55-54.12H65.51l-16.02,54.12H201.82Z"/></svg>