<?xml version="1.0" encoding="UTF-8"?><svg id="c" xmlns="http://www.w3.org/2000/svg" viewBox="0 0 256 256"><path d="M160.62,172.92h16v-22.15h22.15v-16h-22.15v-22.15h-16v22.15h-22.15v16h22.15v22.15Zm-124.83,37.54c-5.4,0-10.04-1.95-13.94-5.85-3.9-3.9-5.85-8.54-5.85-13.94V65.33c0-5.54,1.95-10.22,5.85-14.05,3.9-3.83,8.54-5.74,13.94-5.74h60.19l29.54,29.54h94.7c5.54,0,10.22,1.91,14.05,5.74,3.83,3.83,5.74,8.51,5.74,14.05v95.81c0,5.4-1.91,10.04-5.74,13.94-3.83,3.9-8.51,5.85-14.05,5.85H35.79Zm0-16H220.21l2.72-1.06,1.06-2.72V94.86l-1.06-2.72-2.72-1.06H118.89l-29.54-29.54H35.79l-2.72,1.06-1.06,2.72v125.35l1.06,2.72,2.72,1.06Zm-3.79,0v0Z"/></svg>