<?xml version="1.0" encoding="UTF-8"?><svg id="c" xmlns="http://www.w3.org/2000/svg" viewBox="0 0 256 256"><path d="M128,240c-15.42,0-29.93-2.92-43.54-8.76-13.61-5.84-25.5-13.85-35.68-24.02-10.18-10.18-18.19-22.07-24.02-35.68-5.84-13.61-8.76-28.12-8.76-43.54s2.92-30.09,8.76-43.63c5.84-13.55,13.85-25.41,24.02-35.58,10.18-10.18,22.07-18.19,35.68-24.02,13.61-5.84,28.12-8.76,43.54-8.76s30.09,2.92,43.63,8.76c13.55,5.84,25.41,13.85,35.58,24.02,10.18,10.18,18.19,22.04,24.02,35.58,5.84,13.55,8.76,28.09,8.76,43.63s-2.92,29.93-8.76,43.54c-5.84,13.61-13.85,25.5-24.02,35.68-10.18,10.18-22.04,18.19-35.58,24.02s-28.09,8.76-43.63,8.76Zm0-16.57c4.43-4.43,8.59-11.66,12.47-21.67,3.88-10.01,6.86-21.17,8.95-33.48h-42.84c2.24,12.62,5.26,23.94,9.07,33.95,3.8,10.01,7.92,17.08,12.35,21.19Zm-19.83-1.54c-3.9-6.15-7.42-13.9-10.56-23.24-3.14-9.34-5.55-19.46-7.22-30.37H40.95c6.5,14.22,15.68,26.03,27.54,35.45,11.86,9.41,25.09,15.47,39.68,18.16Zm39.67,0c14.59-2.7,27.82-8.75,39.68-18.16,11.86-9.41,21.04-21.23,27.54-35.45h-49.44c-2.07,10.98-4.67,21.14-7.81,30.49-3.14,9.34-6.46,17.05-9.96,23.12ZM35.36,152.28h53.45c-.57-4.37-.92-8.65-1.07-12.84-.14-4.19-.21-8.21-.21-12.06s.07-7.77,.21-11.75c.14-3.99,.5-7.96,1.07-11.92H35.36c-1.18,3.98-2.04,8.01-2.57,12.12-.53,4.1-.79,8.16-.79,12.17s.26,8.06,.79,12.17c.53,4.1,1.38,8.14,2.57,12.12Zm69.75,0h45.78c.57-4.57,.92-8.81,1.06-12.72,.14-3.91,.21-7.76,.21-11.56s-.07-7.71-.21-11.72c-.14-4.01-.5-8.2-1.06-12.57h-45.78c-.57,4.37-.92,8.56-1.06,12.57-.14,4.01-.21,7.91-.21,11.72s.07,7.71,.21,11.72c.14,4.01,.5,8.2,1.06,12.57Zm62.08,0h53.45c1.18-3.98,2.04-8.01,2.57-12.12,.53-4.1,.79-8.16,.79-12.17s-.26-8.12-.79-12.32c-.53-4.21-1.38-8.19-2.57-11.96h-53.45c.57,4.37,.92,8.65,1.07,12.84,.14,4.19,.21,8.21,.21,12.06s-.07,7.77-.21,11.75c-.14,3.99-.5,7.96-1.07,11.92Zm-1.58-64.57h49.44c-6.58-14.38-15.7-26.19-27.36-35.45-11.66-9.25-24.95-15.35-39.86-18.28,3.9,6.55,7.38,14.43,10.44,23.66,3.06,9.22,5.51,19.25,7.34,30.07Zm-59.03,0h42.84c-2.24-12.55-5.32-23.92-9.24-34.13-3.92-10.21-7.98-17.21-12.18-21.02-4.2,3.8-8.26,10.81-12.18,21.02-3.92,10.21-7,21.59-9.24,34.13Zm-65.63,0h49.44c1.83-10.82,4.28-20.85,7.34-30.07,3.06-9.22,6.54-17.11,10.44-23.66-14.99,2.94-28.3,9.05-39.92,18.34-11.62,9.29-20.72,21.09-27.3,35.38Z"/></svg>