<?xml version="1.0" encoding="UTF-8"?><svg id="d" xmlns="http://www.w3.org/2000/svg" viewBox="0 0 256 256"><path d="M125.72,213.17c1.05,0,2.12-.25,3.21-.74,1.09-.49,1.94-1.05,2.57-1.68l85.25-85.25c2.41-2.41,4.22-4.98,5.43-7.71,1.22-2.73,1.82-5.6,1.82-8.61s-.61-6.12-1.82-9c-1.22-2.89-3.03-5.48-5.43-7.77l-42.64-42.64c-2.3-2.41-4.78-4.17-7.46-5.28-2.68-1.11-5.57-1.67-8.69-1.67-3.01,0-5.89,.56-8.66,1.67-2.77,1.11-5.32,2.87-7.66,5.28l-6.11,6.11,19.72,19.88c2.39,2.28,4.16,4.89,5.3,7.81,1.14,2.92,1.71,5.96,1.71,9.1,0,6.51-2.17,11.93-6.52,16.28-4.35,4.35-9.77,6.52-16.28,6.52-3.14,0-6.19-.52-9.13-1.56-2.94-1.04-5.56-2.7-7.84-4.98l-20.19-20.03-46.33,46.33c-.81,.81-1.41,1.71-1.81,2.71-.4,1-.6,2.02-.6,3.08,0,1.97,.67,3.65,2.01,5.04,1.34,1.39,2.99,2.09,4.96,2.09,1.05,0,2.12-.25,3.21-.74,1.09-.49,1.95-1.05,2.57-1.68l35.01-35.01,11.23,11.23-34.85,35.01c-.8,.81-1.41,1.71-1.81,2.71-.4,1-.6,2.02-.6,3.08,0,1.9,.69,3.54,2.06,4.91,1.37,1.37,3.01,2.06,4.91,2.06,1.05,0,2.12-.25,3.21-.74,1.09-.49,1.94-1.05,2.57-1.68l36.24-36.08,11.24,11.23-36.08,36.24c-.74,.63-1.32,1.49-1.76,2.57-.44,1.09-.66,2.16-.66,3.21,0,1.9,.69,3.54,2.06,4.91,1.37,1.37,3.01,2.06,4.91,2.06,1.05,0,2.08-.2,3.08-.6,1-.4,1.9-1.01,2.7-1.81l36.24-36.08,11.23,11.23-36.24,36.24c-.81,.81-1.41,1.74-1.81,2.81-.4,1.07-.6,2.09-.6,3.08,0,1.97,.73,3.6,2.19,4.91,1.46,1.31,3.11,1.96,4.94,1.96Zm-.17,15.99c-6.03,0-11.28-2.09-15.76-6.27-4.48-4.18-6.83-9.39-7.03-15.62-6.04-.41-11.09-2.56-15.14-6.44-4.05-3.88-6.25-8.98-6.59-15.29-6.31-.41-11.42-2.62-15.31-6.62-3.9-4-5.98-9.04-6.25-15.11-6.34-.41-11.57-2.71-15.7-6.9-4.13-4.19-6.19-9.49-6.19-15.9,0-3.14,.6-6.22,1.79-9.24,1.2-3.01,2.93-5.66,5.22-7.94l57.72-57.56,31.22,31.22c.63,.74,1.45,1.33,2.47,1.76,1.02,.44,2.12,.66,3.31,.66,1.94,0,3.61-.64,5.02-1.93,1.41-1.28,2.11-2.97,2.11-5.04,0-1.19-.22-2.29-.66-3.31-.44-1.02-1.03-1.84-1.76-2.47l-37.39-37.39c-2.3-2.41-4.8-4.17-7.51-5.28-2.71-1.11-5.63-1.67-8.74-1.67-3.01,0-5.86,.56-8.56,1.67-2.7,1.11-5.25,2.87-7.66,5.28l-35.01,35.18c-1.94,1.94-3.53,4.23-4.76,6.88-1.24,2.64-1.96,5.34-2.18,8.09-.22,2.27-.12,4.51,.31,6.73,.42,2.22,1.17,4.31,2.23,6.26l-11.77,11.77c-2.41-3.47-4.22-7.36-5.43-11.66-1.22-4.3-1.72-8.67-1.5-13.1,.22-4.91,1.33-9.65,3.32-14.22,2-4.57,4.79-8.65,8.38-12.25L62.66,38.54c3.99-3.88,8.33-6.8,13.03-8.76,4.69-1.96,9.62-2.94,14.79-2.94,5.16,0,10.08,.98,14.74,2.94,4.66,1.96,8.93,4.88,12.81,8.76l6.11,6.11,6.11-6.11c3.99-3.88,8.32-6.8,12.98-8.76,4.66-1.96,9.57-2.94,14.74-2.94,5.17,0,10.1,.98,14.79,2.94,4.69,1.96,8.98,4.88,12.86,8.76l42.37,42.37c3.88,3.88,6.85,8.3,8.92,13.25,2.06,4.95,3.09,10.01,3.09,15.18s-1.03,10.08-3.09,14.74c-2.06,4.66-5.04,8.93-8.92,12.81l-85.26,85.09c-2.35,2.35-5,4.13-7.94,5.35-2.95,1.22-6.02,1.82-9.24,1.82Z"/></svg>