<?xml version="1.0" encoding="UTF-8"?><svg id="c" xmlns="http://www.w3.org/2000/svg" viewBox="0 0 256 256"><path d="M128.48,197.11c3.31,0,6.12-1.16,8.44-3.48,2.32-2.32,3.48-5.14,3.48-8.45s-1.16-6.12-3.49-8.44c-2.32-2.32-5.14-3.48-8.45-3.48s-6.12,1.16-8.44,3.49-3.48,5.14-3.48,8.45,1.16,6.12,3.49,8.44c2.32,2.32,5.14,3.48,8.45,3.48Zm-8.72-43.76h17.02c.16-6.88,.94-11.77,2.35-14.67,1.41-2.9,4.21-6.42,8.39-10.55,7.26-7.05,12.17-12.93,14.74-17.61,2.57-4.69,3.86-9.74,3.86-15.16,0-10.39-3.45-19.02-10.34-25.9-6.9-6.88-15.75-10.32-26.56-10.32-9.04,0-17.13,2.43-24.27,7.3-7.14,4.87-12.25,11.43-15.33,19.68l15.5,6.65c2.32-6.14,5.5-10.58,9.54-13.33,4.04-2.74,8.61-4.12,13.7-4.12,6.45,0,11.62,1.84,15.51,5.51,3.89,3.68,5.84,8.42,5.84,14.22,0,4.8-1.55,8.98-4.65,12.56-3.1,3.57-6.6,7.18-10.5,10.83-6.23,5.85-10.26,11-12.08,15.45-1.82,4.44-2.74,10.93-2.74,19.46Zm8.26,86.65c-15.35,0-29.83-2.91-43.45-8.74-13.61-5.83-25.53-13.85-35.75-24.06-10.22-10.21-18.24-22.12-24.08-35.73-5.83-13.61-8.75-28.09-8.75-43.44s2.91-30.09,8.74-43.6,13.85-25.38,24.06-35.59,22.12-18.24,35.73-24.08c13.61-5.83,28.09-8.75,43.44-8.75s30.09,2.92,43.6,8.74c13.51,5.83,25.38,13.85,35.59,24.06,10.22,10.21,18.24,22.07,24.08,35.58,5.83,13.51,8.75,28.04,8.75,43.59s-2.91,29.83-8.74,43.45c-5.83,13.61-13.85,25.53-24.06,35.75-10.21,10.22-22.07,18.24-35.58,24.08-13.51,5.83-28.04,8.75-43.59,8.75Zm-.02-16c26.67,0,49.33-9.33,68-28,18.67-18.67,28-41.33,28-68s-9.33-49.33-28-68c-18.67-18.67-41.33-28-68-28s-49.33,9.33-68,28c-18.67,18.67-28,41.33-28,68s9.33,49.33,28,68c18.67,18.67,41.33,28,68,28Z"/></svg>