<?xml version="1.0" encoding="UTF-8"?><svg id="d" xmlns="http://www.w3.org/2000/svg" viewBox="0 0 256 256"><path d="M46.16,220.07V118.57l-20.36,15.67-9.8-12.78L128,35.93l112,85.53-9.8,12.9-20.36-15.79v101.5H46.16Zm15.88-15.88H193.96V106.37l-65.96-50.29L62.04,106.17v98.02Zm0,0h0Zm22.05-45.38c-2.63,0-4.89-.93-6.79-2.79-1.9-1.86-2.85-4.1-2.85-6.73s.93-4.89,2.79-6.79c1.86-1.9,4.1-2.85,6.73-2.85s4.89,.93,6.79,2.79c1.9,1.86,2.85,4.1,2.85,6.73s-.93,4.89-2.79,6.79c-1.86,1.9-4.1,2.85-6.73,2.85Zm43.97,0c-2.63,0-4.89-.93-6.79-2.79-1.9-1.86-2.85-4.1-2.85-6.73s.93-4.89,2.79-6.79c1.86-1.9,4.1-2.85,6.73-2.85s4.89,.93,6.79,2.79c1.9,1.86,2.85,4.1,2.85,6.73s-.93,4.89-2.79,6.79c-1.86,1.9-4.1,2.85-6.73,2.85Zm43.97,0c-2.63,0-4.89-.93-6.79-2.79-1.9-1.86-2.85-4.1-2.85-6.73s.93-4.89,2.79-6.79c1.86-1.9,4.1-2.85,6.73-2.85s4.89,.93,6.79,2.79c1.9,1.86,2.85,4.1,2.85,6.73s-.93,4.89-2.79,6.79c-1.86,1.9-4.1,2.85-6.73,2.85Z"/></svg>