<?xml version="1.0" encoding="UTF-8"?><svg id="c" xmlns="http://www.w3.org/2000/svg" viewBox="0 0 256 256"><path d="M37.99,240c-6.13,0-11.38-2.18-15.61-6.49-4.23-4.31-6.38-9.53-6.38-15.5V37.99c0-5.97,2.15-11.18,6.38-15.5,4.23-4.31,9.48-6.49,15.61-6.49H218.01c6.13,0,11.38,2.18,15.61,6.49,4.23,4.31,6.38,9.53,6.38,15.5V218.01c0,5.97-2.15,11.18-6.38,15.5-4.23,4.31-9.48,6.49-15.61,6.49H37.99Zm-3.79-205.8l-1.62,3.57V218.23l1.62,3.57,3.57,1.62H218.23l3.57-1.62,1.62-3.57V37.77l-1.62-3.57-3.57-1.62H37.77l-3.57,1.62Zm29.31,157.88l29.19-38.66,22.16,27.99,35.85-46.52,42.89,57.18H63.51Z"/></svg>