<?xml version="1.0" encoding="UTF-8"?><svg id="c" xmlns="http://www.w3.org/2000/svg" viewBox="0 0 256 256"><path d="M128,240c-12.85-11.33-27.31-20.12-43.4-26.37-16.08-6.25-32.96-9.65-50.63-10.22V90.88c17.77,.5,34.75,4.2,50.94,11.1,16.19,6.91,30.55,16.15,43.09,27.74,12.54-11.59,26.9-20.83,43.09-27.74,16.19-6.91,33.17-10.61,50.94-11.1v112.53c-17.78,.57-34.69,3.97-50.72,10.22-16.02,6.25-30.46,15.04-43.31,26.37Zm0-21.32c11.61-8.59,23.97-15.49,37.06-20.69,13.09-5.2,26.55-8.63,40.38-10.28V109.26c-13.95,2.4-27.47,7.15-40.54,14.25-13.07,7.1-25.37,16.42-36.9,27.95-11.53-11.53-23.83-20.85-36.9-27.95-13.07-7.11-26.58-11.86-40.54-14.25v78.45c13.83,1.66,27.29,5.09,40.38,10.28,13.09,5.2,25.44,12.09,37.06,20.69Zm-28.27-134.42c-7.81-7.81-11.72-17.24-11.72-28.27s3.91-20.46,11.72-28.27c7.81-7.81,17.24-11.72,28.27-11.72s20.46,3.91,28.27,11.72c7.81,7.82,11.72,17.24,11.72,28.27s-3.91,20.46-11.72,28.27c-7.81,7.82-17.24,11.72-28.27,11.72s-20.46-3.91-28.27-11.72Zm44.8-11.74c4.58-4.58,6.87-10.09,6.87-16.53s-2.29-11.95-6.87-16.53c-4.58-4.58-10.09-6.87-16.53-6.87s-11.95,2.29-16.53,6.87c-4.58,4.58-6.87,10.09-6.87,16.53s2.29,11.95,6.87,16.53c4.58,4.58,10.09,6.87,16.53,6.87s11.95-2.29,16.53-6.87Z"/></svg>