<?xml version="1.0" encoding="UTF-8"?><svg id="c" xmlns="http://www.w3.org/2000/svg" viewBox="0 0 256 256"><path d="M128,240c-5.69,0-10.66-2-14.78-5.94-3.87-3.7-6.11-8.22-6.67-13.46h42.91c-.57,5.24-2.81,9.76-6.67,13.46-4.12,3.94-9.1,5.94-14.78,5.94Zm-43.42-37.82v-15.75h86.84v15.75H84.58Zm1.1-34.17c-12.1-7.57-21.81-17.58-28.89-29.75-7.11-12.23-10.72-25.8-10.72-40.33,0-22.7,8.03-42.24,23.86-58.07,15.83-15.83,35.37-23.86,58.07-23.86s42.24,8.03,58.07,23.86c15.83,15.83,23.86,35.37,23.86,58.07,0,14.53-3.61,28.1-10.72,40.33-7.07,12.17-16.79,22.17-28.88,29.75H85.68ZM128,31.75c-18.36,0-34.14,6.48-46.92,19.25-12.77,12.77-19.25,28.56-19.25,46.92,0,10.78,2.48,21,7.37,30.38,4.89,9.38,11.92,17.37,20.9,23.76l.26,.19h75.28l.26-.19c8.98-6.38,16.01-14.38,20.9-23.76,4.89-9.38,7.37-19.6,7.37-30.38,0-18.36-6.48-34.15-19.25-46.92-12.77-12.77-28.56-19.25-46.92-19.25Z"/></svg>