<?xml version="1.0" encoding="UTF-8"?><svg id="b" xmlns="http://www.w3.org/2000/svg" viewBox="0 0 256 256"><path d="M110.86,181.4h-41.47c-14.77,0-27.37-5.21-37.78-15.64-10.41-10.42-15.62-23.03-15.62-37.82s5.21-27.38,15.62-37.76c10.41-10.38,23.01-15.58,37.78-15.58h41.47v16h-41.47c-10.34,0-19.15,3.65-26.45,10.95-7.3,7.3-10.95,16.11-10.95,26.45s3.65,19.15,10.95,26.45c7.3,7.3,16.11,10.95,26.45,10.95h41.47v16Zm-24.1-45.4v-16h82.46v16H86.77Zm58.37,45.4v-16h41.47c10.34,0,19.15-3.65,26.45-10.95,7.3-7.3,10.95-16.11,10.95-26.45s-3.65-19.15-10.95-26.45c-7.3-7.3-16.11-10.95-26.45-10.95h-41.47v-16h41.47c14.77,0,27.37,5.21,37.78,15.64,10.41,10.42,15.62,23.03,15.62,37.82s-5.21,27.38-15.62,37.76c-10.41,10.38-23.01,15.58-37.78,15.58h-41.47Z"/></svg>