<?xml version="1.0" encoding="UTF-8"?><svg id="b" xmlns="http://www.w3.org/2000/svg" viewBox="0 0 256 256"><path d="M67.65,95.41h95.91v-28.44c0-9.88-3.46-18.27-10.37-25.19-6.91-6.91-15.31-10.37-25.19-10.37s-18.27,3.46-25.19,10.37c-6.91,6.91-10.37,15.31-10.37,25.19h-15.41c0-14.21,4.96-26.25,14.89-36.14,9.93-9.88,21.97-14.83,36.14-14.83s26.18,4.96,36.07,14.87c9.88,9.92,14.83,21.95,14.83,36.09v28.44h9.39c5.26,0,9.75,1.86,13.47,5.58,3.72,3.72,5.58,8.21,5.58,13.47v106.48c0,5.26-1.86,9.75-5.59,13.47-3.72,3.72-8.22,5.58-13.48,5.58H67.56c-5.26,0-9.74-1.86-13.43-5.58-3.69-3.72-5.54-8.21-5.54-13.47V114.46c0-5.26,1.86-9.75,5.58-13.47,3.72-3.72,8.21-5.58,13.47-5.58Zm0,129.19h120.71l2.62-1.03,1.03-2.62V114.46l-1.03-2.62-2.62-1.03H67.65l-2.62,1.03-1.03,2.62v106.48l1.03,2.62,2.62,1.03Zm60.41-38.52c5.12,0,9.46-1.79,13-5.37,3.54-3.58,5.31-7.93,5.31-13.06s-1.79-9.46-5.37-13c-3.58-3.54-7.93-5.31-13.06-5.31s-9.46,1.79-13,5.37c-3.54,3.58-5.31,7.93-5.31,13.06s1.79,9.46,5.37,13c3.58,3.54,7.93,5.31,13.06,5.31Zm-64.06,38.52v0Z"/></svg>