<?xml version="1.0" encoding="UTF-8"?><svg id="b" xmlns="http://www.w3.org/2000/svg" viewBox="0 0 256 256"><path d="M35.79,210.46c-5.54,0-10.22-1.91-14.05-5.74-3.83-3.83-5.74-8.51-5.74-14.06V65.24c0-5.54,1.91-10.21,5.74-14.01,3.83-3.79,8.51-5.69,14.05-5.69H220.21c5.54,0,10.22,1.91,14.05,5.74,3.83,3.83,5.74,8.51,5.74,14.06v125.42c0,5.54-1.91,10.21-5.74,14.01-3.83,3.79-8.51,5.69-14.05,5.69H35.79Zm92.21-73.14L32,80.83v109.85l1.06,2.72,2.72,1.06H220.21l2.72-1.06,1.06-2.72V80.83l-96,56.5Zm0-20.71l94.11-55.08H33.89l94.11,55.08ZM32,80.83v109.85l1.06,2.72,2.72,1.06h-3.79V80.83Z"/></svg>