<?xml version="1.0" encoding="UTF-8"?><svg id="b" xmlns="http://www.w3.org/2000/svg" viewBox="0 0 256 256"><path d="M73.12,240c-5.03,0-9.39-1.81-12.95-5.37-3.56-3.56-5.37-7.92-5.37-12.95V34.32c0-5.69,1.64-10.22,4.87-13.45,3.23-3.23,7.76-4.87,13.45-4.87h97.25c5.03,0,9.39,1.81,12.95,5.37,3.56,3.56,5.37,7.92,5.37,12.95v38.32c.27-.02,.54-.03,.81-.03,2.81,0,5.36,.96,7.59,2.85,2.73,2.32,4.12,5.29,4.12,8.83v24.62c0,3.54-1.39,6.51-4.12,8.83-2.23,1.89-4.78,2.85-7.59,2.85-.26,0-.53,0-.8-.03v101.12c0,5.03-1.81,9.39-5.37,12.95-3.56,3.56-7.92,5.37-12.95,5.37H73.12Zm97.06-15.99l1.81-.71,.71-1.81V34.51l-.71-1.81-1.81-.71H73.3l-1.81,.71-.71,1.81V221.49l.71,1.81,1.81,.71h96.87ZM121.68,65.98c-2.65,0-4.91-.93-6.7-2.76-1.79-1.83-2.69-4.1-2.69-6.74s.93-4.91,2.76-6.7c1.83-1.79,4.09-2.69,6.74-2.69s4.91,.93,6.7,2.76c1.79,1.83,2.69,4.09,2.69,6.74s-.93,4.91-2.76,6.7c-1.83,1.79-4.09,2.69-6.74,2.69Z"/></svg>