<?xml version="1.0" encoding="UTF-8"?><svg id="b" xmlns="http://www.w3.org/2000/svg" viewBox="0 0 256 256"><path d="M127.91,240c-6.22,0-11.5-2.21-15.87-6.64-4.37-4.43-6.55-9.75-6.55-15.96s2.21-11.51,6.64-15.87c4.43-4.36,9.75-6.54,15.96-6.54s11.5,2.21,15.87,6.64c4.37,4.42,6.55,9.74,6.55,15.96s-2.21,11.5-6.64,15.87c-4.43,4.37-9.75,6.55-15.96,6.55Zm0-89.49c-6.22,0-11.5-2.21-15.87-6.64-4.37-4.43-6.55-9.75-6.55-15.96s2.21-11.5,6.64-15.87c4.43-4.37,9.75-6.55,15.96-6.55s11.5,2.21,15.87,6.64c4.37,4.43,6.55,9.75,6.55,15.96s-2.21,11.5-6.64,15.87c-4.43,4.37-9.75,6.55-15.96,6.55Zm0-89.49c-6.22,0-11.5-2.21-15.87-6.64-4.37-4.42-6.55-9.74-6.55-15.96s2.21-11.5,6.64-15.87c4.43-4.37,9.75-6.55,15.96-6.55s11.5,2.21,15.87,6.64c4.37,4.43,6.55,9.75,6.55,15.96s-2.21,11.51-6.64,15.87c-4.43,4.36-9.75,6.54-15.96,6.54Z"/></svg>