<?xml version="1.0" encoding="UTF-8"?><svg id="b" xmlns="http://www.w3.org/2000/svg" viewBox="0 0 256 256"><path d="M83.56,195.56l11.13-11.13,25.51,25.51v-54.49h15.6v54.32l25.33-25.52,11.31,11.31-44.44,44.44-44.44-44.44Zm100.87-34.26l25.51-25.51h-54.49v-15.6h54.32l-25.52-25.33,11.31-11.31,44.44,44.44-44.44,44.44-11.13-11.13ZM16,128l44.26-44.26,11.13,11.13-25.33,25.33h54.49v15.6H46.23l25.52,25.33-11.31,11.31-44.44-44.44Zm104.2-27.45V46.06l-25.51,25.51-11.13-11.13,44.44-44.44,44.44,44.44-11.13,11.13-25.51-25.51v54.49h-15.6Z"/></svg>