<?xml version="1.0" encoding="UTF-8"?><svg id="b" xmlns="http://www.w3.org/2000/svg" viewBox="0 0 256 256"><path d="M37.99,240c-6.13,0-11.39-2.15-15.62-6.37-4.23-4.23-6.37-9.48-6.37-15.62V37.99c0-6.13,2.14-11.39,6.37-15.62,4.23-4.23,9.48-6.37,15.62-6.37H176.05l63.95,63.95V218.01c0,6.13-2.14,11.39-6.37,15.62-4.23,4.23-9.48,6.37-15.62,6.37H37.99Zm-3.94-205.95l-1.47,3.75V218.2l1.47,3.75,3.75,1.47H218.2l3.75-1.47,1.47-3.75V92.66h-60.08V32.58H37.8l-3.75,1.47Zm29.88,154.46v-16.58H192.08v16.58H63.92Zm0-43.63v-16.58H192.08v16.58H63.92Zm4.29-56.5v-16.58h58.78v16.58h-58.78Z"/></svg>