<?xml version="1.0" encoding="UTF-8"?><svg id="b" xmlns="http://www.w3.org/2000/svg" viewBox="0 0 256 256"><path d="M127.76,240c-15.34,0-29.79-2.92-43.36-8.76-13.57-5.84-25.45-13.85-35.62-24.02-10.18-10.18-18.19-22.07-24.02-35.68-5.84-13.61-8.76-28.12-8.76-43.54s2.95-30.18,8.85-43.69c5.9-13.51,14.06-25.37,24.49-35.58,10.42-10.22,22.63-18.23,36.63-24.02,14-5.8,28.91-8.7,44.73-8.7,14.97,0,29.09,2.57,42.35,7.72,13.26,5.14,24.85,12.2,34.76,21.17,9.91,8.97,17.75,19.48,23.53,31.54,5.78,12.05,8.66,25.03,8.66,38.93,0,17.41-6.02,32.68-18.07,45.83-12.05,13.15-27.56,19.73-46.54,19.73h-20.45c-3.3,0-6.25,1.14-8.86,3.43-2.61,2.29-3.92,5.2-3.92,8.74,0,4.42,1.54,7.4,4.62,8.94,3.08,1.54,4.62,6.4,4.62,14.59,0,5.46-2.2,10.72-6.59,15.79-4.4,5.06-10.07,7.6-17.03,7.6ZM61.54,136c4.18,0,7.79-1.52,10.83-4.56,3.04-3.04,4.56-6.65,4.56-10.83s-1.52-7.79-4.56-10.83c-3.04-3.04-6.65-4.56-10.83-4.56s-7.79,1.52-10.83,4.56c-3.04,3.04-4.56,6.65-4.56,10.83s1.52,7.79,4.56,10.83c3.04,3.04,6.65,4.56,10.83,4.56Zm36.92-44.31c4.18,0,7.79-1.52,10.83-4.56,3.04-3.04,4.56-6.65,4.56-10.83s-1.52-7.79-4.56-10.83-6.65-4.56-10.83-4.56-7.79,1.52-10.83,4.56-4.56,6.65-4.56,10.83,1.52,7.79,4.56,10.83c3.04,3.04,6.65,4.56,10.83,4.56Zm59.08,0c4.18,0,7.79-1.52,10.83-4.56,3.04-3.04,4.56-6.65,4.56-10.83s-1.52-7.79-4.56-10.83-6.65-4.56-10.83-4.56-7.79,1.52-10.83,4.56-4.56,6.65-4.56,10.83,1.52,7.79,4.56,10.83c3.04,3.04,6.65,4.56,10.83,4.56Zm36.92,44.31c4.18,0,7.79-1.52,10.83-4.56,3.04-3.04,4.56-6.65,4.56-10.83s-1.52-7.79-4.56-10.83c-3.04-3.04-6.65-4.56-10.83-4.56s-7.79,1.52-10.83,4.56c-3.04,3.04-4.56,6.65-4.56,10.83s1.52,7.79,4.56,10.83c3.04,3.04,6.65,4.56,10.83,4.56Zm-66.7,88c2.41,0,4.29-.85,5.62-2.56s2-3.31,2-4.83c0-3.28-1.54-6-4.62-8.14s-4.62-7.04-4.62-14.67,2.72-14.75,8.15-20.4c5.44-5.65,12.05-8.47,19.85-8.47h21.23c14.49,0,26.21-5.01,35.17-15.04,8.96-10.03,13.44-21.54,13.44-34.52,0-23.67-9.14-43.48-27.41-59.43-18.27-15.95-40.23-23.93-65.89-23.93-27.72,0-51.1,9.33-70.14,28-19.04,18.67-28.56,41.33-28.56,68s9.33,49.33,28,68c18.67,18.67,41.25,28,67.76,28Z"/></svg>