<?xml version="1.0" encoding="UTF-8"?><svg id="b" xmlns="http://www.w3.org/2000/svg" viewBox="0 0 256 256"><path d="M16,208.23v-24.41c0-5.66,1.46-10.71,4.38-15.15,2.92-4.44,6.82-7.9,11.7-10.36,10.43-5.1,20.92-9.04,31.47-11.8,10.55-2.76,22.14-4.15,34.78-4.15,12.64,0,24.23,1.38,34.78,4.15,10.55,2.77,21.04,6.7,31.48,11.8,4.88,2.47,8.78,5.92,11.7,10.36s4.38,9.49,4.38,15.15v24.41H16Zm186.63,0v-25.76c0-7.21-1.76-14.07-5.29-20.6-3.53-6.53-8.54-12.13-15.02-16.81,7.36,1.1,14.35,2.8,20.97,5.1,6.61,2.3,12.93,5.02,18.94,8.16,5.67,3.03,10.05,6.59,13.14,10.7,3.09,4.11,4.63,8.59,4.63,13.45v25.76h-37.37ZM71.18,113.36c-7.51-7.51-11.26-16.56-11.26-27.16s3.75-19.65,11.26-27.16c7.51-7.51,16.56-11.26,27.16-11.26s19.65,3.75,27.16,11.26c7.51,7.51,11.26,16.56,11.26,27.16s-3.75,19.65-11.26,27.16c-7.51,7.51-16.56,11.26-27.16,11.26s-19.65-3.75-27.16-11.26Zm110.67,0c-7.52,7.51-16.57,11.26-27.14,11.26-1.24,0-2.82-.14-4.73-.42-1.92-.28-3.49-.59-4.73-.93,4.33-5.21,7.66-10.98,9.98-17.32,2.32-6.34,3.49-12.93,3.49-19.76s-1.19-13.39-3.56-19.69c-2.37-6.29-5.67-12.08-9.91-17.37,1.58-.56,3.15-.93,4.73-1.1,1.58-.17,3.15-.26,4.73-.26,10.57,0,19.61,3.75,27.14,11.26s11.29,16.56,11.29,27.16-3.76,19.65-11.29,27.16ZM32.47,191.76H164.21v-7.94c0-2.29-.57-4.33-1.72-6.12-1.15-1.79-2.96-3.35-5.46-4.69-9.04-4.66-18.34-8.19-27.91-10.59-9.57-2.4-19.83-3.6-30.78-3.6s-21.21,1.2-30.78,3.6c-9.57,2.4-18.87,5.93-27.91,10.59-2.49,1.34-4.31,2.9-5.46,4.69-1.15,1.79-1.72,3.83-1.72,6.12v7.94ZM113.84,101.7c4.3-4.3,6.45-9.47,6.45-15.51s-2.15-11.21-6.45-15.51-9.47-6.45-15.51-6.45-11.21,2.15-15.51,6.45-6.45,9.47-6.45,15.51,2.15,11.21,6.45,15.51c4.3,4.3,9.47,6.45,15.51,6.45s11.21-2.15,15.51-6.45Z"/></svg>