<?xml version="1.0" encoding="UTF-8"?><svg id="b" xmlns="http://www.w3.org/2000/svg" viewBox="0 0 256 256"><path d="M16,236.7v-28.25c0-4.64,1.42-9.2,4.22-13.55,2.88-4.48,6.99-8.42,12.22-11.73,14.59-8.39,30.21-14.93,46.39-19.44,16.15-4.5,32.67-6.77,49.08-6.77s32.96,2.28,49.17,6.78c16.23,4.5,31.91,11.06,46.58,19.5,5.17,3.01,9.24,6.85,12.09,11.42,2.81,4.5,4.24,9.14,4.24,13.8v28.25H16Zm112-63.54c-15.57,0-30.92,2-45.63,5.95-14.73,3.96-28.64,9.86-41.33,17.55l-.12,.08c-2.52,1.73-4.53,3.43-5.99,5.05l-.34,.38-2.39,5.66v12.67H223.8v-12.62l-2.34-6.11-.32-.38c-1.57-1.91-3.7-3.54-6.35-4.84-12.6-7.62-26.47-13.51-41.17-17.45-14.71-3.95-30.06-5.95-45.63-5.95Zm0-53.51c-13.9,0-25.87-4.92-35.56-14.61-9.7-9.7-14.61-21.66-14.61-35.56s4.92-25.87,14.61-35.56c9.69-9.7,21.66-14.61,35.56-14.61s25.86,4.92,35.56,14.61c9.7,9.69,14.62,21.66,14.62,35.56s-4.92,25.87-14.62,35.56c-9.69,9.69-21.66,14.61-35.56,14.61Zm-.09-84.15c-9.34,0-17.41,3.37-23.98,10.02-6.57,6.64-9.9,14.73-9.9,24.05s3.37,17.4,10.01,23.98c6.64,6.57,14.73,9.9,24.05,9.9s17.4-3.37,23.98-10.01c6.57-6.64,9.9-14.73,9.9-24.05s-3.37-17.4-10.02-23.98c-6.64-6.57-14.73-9.9-24.05-9.9Z"/></svg>