<?xml version="1.0" encoding="UTF-8"?><svg id="b" xmlns="http://www.w3.org/2000/svg" viewBox="0 0 256 256"><path d="M91.01,159.59h113.21l-35.48-47.8-29.45,38.45-21.12-27.11-27.16,36.46Zm-15.43,41.18c-5.7,0-10.51-1.97-14.45-5.9-3.93-3.93-5.9-8.75-5.9-14.45V36.35c0-5.7,1.97-10.51,5.9-14.45s8.75-5.9,14.45-5.9H219.65c5.7,0,10.51,1.97,14.45,5.9,3.93,3.93,5.9,8.75,5.9,14.45V180.42c0,5.7-1.97,10.51-5.9,14.45-3.93,3.93-8.75,5.9-14.45,5.9H75.58Zm0-16.45H219.65l2.68-1.22,1.22-2.68V36.35l-1.22-2.68-2.68-1.22H75.58l-2.68,1.22-1.22,2.68V180.42l1.22,2.68,2.68,1.22Zm-39.23,55.68c-5.7,0-10.51-1.97-14.45-5.9-3.93-3.93-5.9-8.75-5.9-14.45V59.13h16.45V219.65l1.22,2.68,2.68,1.22H196.87v16.45H36.35ZM71.68,32.45v0Z"/></svg>