<?xml version="1.0" encoding="UTF-8"?><svg id="b" xmlns="http://www.w3.org/2000/svg" viewBox="0 0 256 256"><path d="M75.58,200.77c-5.7,0-10.51-1.97-14.45-5.9-3.93-3.93-5.9-8.75-5.9-14.45V36.35c0-5.7,1.97-10.51,5.9-14.45,3.93-3.93,8.75-5.9,14.45-5.9H219.65c5.7,0,10.51,1.97,14.45,5.9,3.93,3.93,5.9,8.75,5.9,14.45V180.42c0,5.7-1.97,10.51-5.9,14.45-3.93,3.93-8.75,5.9-14.45,5.9H75.58Zm0-16.45H219.65l2.68-1.22,1.22-2.68V36.35l-1.22-2.68-2.68-1.22H75.58l-2.68,1.22-1.22,2.68V180.42l1.22,2.68,2.68,1.22Zm-39.23,55.68c-5.7,0-10.51-1.97-14.45-5.9-3.93-3.93-5.9-8.75-5.9-14.45V59.13h16.45V219.65l1.22,2.68,2.68,1.22H196.87v16.45H36.35ZM71.68,32.45h0Z"/><path d="M155.67,133.21h-16.19c-.04-2.33-.06-3.75-.06-4.25,0-5.25,.87-9.56,2.6-12.95,1.73-3.39,5.21-7.19,10.41-11.43,5.21-4.23,8.32-7,9.33-8.32,1.57-2.07,2.35-4.36,2.35-6.86,0-3.47-1.39-6.44-4.16-8.92s-6.51-3.71-11.2-3.71-8.32,1.29-11.36,3.87c-3.05,2.58-5.14,6.52-6.28,11.81l-16.38-2.03c.46-7.57,3.69-14.01,9.68-19.3,5.99-5.29,13.85-7.93,23.58-7.93,10.24,0,18.39,2.68,24.44,8.03,6.05,5.35,9.08,11.58,9.08,18.69,0,3.94-1.11,7.66-3.33,11.17-2.22,3.51-6.97,8.29-14.25,14.35-3.77,3.13-6.1,5.65-7.01,7.55s-1.32,5.31-1.24,10.22Zm-16.19,23.99v-17.84h17.84v17.84h-17.84Z"/></svg>