<?xml version="1.0" encoding="UTF-8"?><svg id="b" xmlns="http://www.w3.org/2000/svg" viewBox="0 0 256 256"><path d="M36.16,230.93c-5.69,0-10.37-1.91-14.31-5.85-3.94-3.94-5.85-8.62-5.85-14.31V87.02c0-5.69,1.91-10.37,5.85-14.31,3.94-3.94,8.62-5.85,14.31-5.85h35.45l-1.17-2.11c-.93-1.67-1.63-3.46-2.09-5.32-.46-1.87-.69-3.86-.69-5.93,0-7.91,2.78-14.7,8.25-20.18,5.48-5.48,12.26-8.25,20.18-8.25,4.69,0,9.11,1.24,13.13,3.67,4.11,2.49,7.74,5.65,10.79,9.4l7.76,10.38,7.79-10.43c2.91-3.83,6.5-7.01,10.64-9.43,4.09-2.38,8.55-3.59,13.24-3.59,7.91,0,14.7,2.78,20.18,8.25,5.48,5.48,8.25,12.26,8.25,20.18,0,2.07-.22,4.08-.64,5.95-.42,1.83-1.13,3.6-2.12,5.26l-1.28,2.14h36c5.69,0,10.37,1.91,14.31,5.85s5.85,8.62,5.85,14.31v123.75c0,5.69-1.91,10.37-5.85,14.31-3.94,3.94-8.62,5.85-14.31,5.85H36.16Zm-5.09-19.86l1.5,3.29,3.29,1.5H220.14l3.29-1.5,1.5-3.29v-24.45H31.07v24.45Zm1.5-127.65l-1.5,3.29v71.98H224.93V86.71l-1.5-3.29-3.29-1.5h-68.35l25.19,34.44-11.98,8.63-37.23-50.51-37.23,50.51-11.99-8.64,24.81-34.43H35.86l-3.29,1.5Zm126.88-43.28c-3.76,0-6.96,1.29-9.51,3.85-2.55,2.55-3.85,5.75-3.85,9.51s1.3,6.96,3.85,9.51c2.55,2.55,5.75,3.85,9.51,3.85s6.96-1.29,9.51-3.85c2.55-2.55,3.85-5.75,3.85-9.51s-1.29-6.96-3.85-9.51c-2.55-2.55-5.75-3.85-9.51-3.85Zm-63.36,0c-3.76,0-6.96,1.29-9.51,3.85-2.55,2.55-3.85,5.75-3.85,9.51s1.29,6.96,3.85,9.51c2.55,2.55,5.75,3.85,9.51,3.85s6.96-1.29,9.51-3.85c2.55-2.55,3.85-5.75,3.85-9.51s-1.29-6.96-3.85-9.51c-2.55-2.55-5.75-3.85-9.51-3.85Z"/></svg>