<?xml version="1.0" encoding="UTF-8"?><svg id="b" xmlns="http://www.w3.org/2000/svg" viewBox="0 0 256 256"><path d="M128.49,240c-30.96,0-57.65-10.99-79.33-32.66-21.68-21.67-32.67-48.36-32.67-79.31s10.99-57.64,32.67-79.34c21.68-21.69,48.37-32.69,79.33-32.69,18.34,0,35.37,4.17,50.63,12.39,15.3,8.25,28.2,19.3,38.34,32.85l4.42,5.9V16h17.3V98.48h-82.48v-17.3h53.64l-2.34-3.75c-8.33-13.36-19.57-24.17-33.4-32.12-13.86-7.97-29.37-12.01-46.11-12.01-26.18,0-48.75,9.29-67.08,27.62-18.33,18.33-27.62,40.9-27.62,67.08s9.29,48.74,27.62,67.08c18.33,18.33,40.9,27.62,67.08,27.62,24.44,0,45.69-8.19,63.16-24.35,16.91-15.64,26.98-35.02,29.97-57.64h17.88c-2.78,27.67-14.54,51.22-34.97,70.04-21.08,19.42-46.67,29.26-76.05,29.26Z"/></svg>