<?xml version="1.0" encoding="UTF-8"?><svg id="d" xmlns="http://www.w3.org/2000/svg" viewBox="0 0 256 256"><path d="M38.22,240c-6.27,0-11.43-2.11-15.77-6.45-4.34-4.34-6.45-9.5-6.45-15.77V38.22c0-6.27,2.11-11.43,6.45-15.77,4.34-4.34,9.5-6.45,15.77-6.45H191.4l48.6,48.6V217.78c0,6.27-2.11,11.43-6.45,15.77-4.34,4.34-9.5,6.45-15.77,6.45H38.22Zm-4.54-206.32l-1.62,4.16V218.17l1.62,4.16,4.16,1.62H218.17l4.16-1.62,1.62-4.16V71.48l-39.43-39.43H37.83l-4.16,1.62Zm94.32,162.98c-8.81,0-16.1-3.01-22.3-9.21-6.2-6.2-9.21-13.49-9.21-22.3s3.01-16.1,9.21-22.3c6.2-6.2,13.49-9.21,22.3-9.21s16.1,3.01,22.3,9.21,9.21,13.49,9.21,22.3-3.01,16.1-9.21,22.3c-6.2,6.2-13.49,9.21-22.3,9.21ZM54.7,97.58V54.7h106.09v42.88H54.7Z"/></svg>