<?xml version="1.0" encoding="UTF-8"?><svg id="b" xmlns="http://www.w3.org/2000/svg" viewBox="0 0 256 256"><path d="M57.58,240c-11.24,0-21.01-4.07-29.03-12.09-8.02-8.02-12.09-17.79-12.09-29.03s4.07-21.01,12.09-29.03c8.02-8.02,17.79-12.09,29.03-12.09,3.27,0,6.52,.34,9.67,1.01,3.09,.66,6.06,1.78,8.82,3.32l1.34,.75,34.83-34.83-34.83-34.83-1.34,.75c-2.76,1.54-5.73,2.66-8.82,3.32-3.15,.67-6.41,1.01-9.67,1.01-11.24,0-21.01-4.07-29.03-12.09-8.02-8.02-12.09-17.79-12.09-29.03s4.07-21.01,12.09-29.03c8.02-8.02,17.79-12.09,29.03-12.09s21.01,4.07,29.03,12.09c8.02,8.02,12.09,17.79,12.09,29.03,0,3.26-.34,6.52-1.01,9.67-.66,3.1-1.77,6.06-3.32,8.82l-.75,1.34L239.55,222.89v6.66h-25.74l-85.35-85.35-34.83,34.83,.75,1.34c1.54,2.76,2.66,5.73,3.32,8.82,.67,3.16,1.01,6.41,1.01,9.67,0,11.24-4.07,21.01-12.09,29.03-8.02,8.02-17.79,12.09-29.03,12.09Zm0-68.6c-7.55,0-14.09,2.71-19.43,8.05-5.34,5.34-8.05,11.88-8.05,19.43s2.71,14.09,8.05,19.43c5.34,5.34,11.88,8.05,19.43,8.05s14.09-2.71,19.43-8.05c5.34-5.34,8.05-11.88,8.05-19.43s-2.71-14.09-8.05-19.43c-5.34-5.34-11.88-8.05-19.43-8.05Zm67.23-47.05l-1.5,3.65,1.5,3.65,3.65,1.5,3.65-1.51,1.51-3.65-1.51-3.65-3.65-1.51-3.65,1.51ZM57.58,29.65c-7.55,0-14.09,2.71-19.43,8.05-5.34,5.34-8.05,11.88-8.05,19.43s2.71,14.09,8.05,19.43c5.34,5.34,11.88,8.05,19.43,8.05s14.09-2.71,19.43-8.05c5.34-5.34,8.05-11.88,8.05-19.43s-2.71-14.09-8.05-19.43c-5.34-5.34-11.88-8.05-19.43-8.05Zm87.38,65.64L213.8,26.45h25.74v6.66l-78.38,78.38-16.2-16.2Z"/></svg>