<?xml version="1.0" encoding="UTF-8"?><svg id="b" xmlns="http://www.w3.org/2000/svg" viewBox="0 0 256 256"><path d="M144.04,155.76l-.7,.53c-6.96,5.28-14.7,9.44-23.01,12.34-8.3,2.9-16.98,4.37-25.82,4.37-21.7,0-40.41-7.7-55.61-22.89-15.2-15.19-22.9-33.89-22.9-55.58s7.7-40.4,22.89-55.61c15.19-15.2,33.89-22.91,55.58-22.91s40.4,7.71,55.6,22.9c15.2,15.2,22.91,33.9,22.91,55.61,0,9.1-1.51,17.92-4.5,26.21-2.99,8.31-7.1,15.92-12.2,22.61l-.54,.7,84.24,84.24-11.72,11.72-84.24-84.24ZM94.5,32.38c-17.26,0-32.09,6.07-44.06,18.05-11.98,11.98-18.05,26.8-18.05,44.06s6.07,32.09,18.05,44.06c11.98,11.98,26.8,18.05,44.06,18.05s32.09-6.07,44.06-18.05c11.98-11.98,18.05-26.8,18.05-44.06s-6.07-32.09-18.05-44.06c-11.98-11.98-26.8-18.05-44.06-18.05Z"/></svg>