<?xml version="1.0" encoding="UTF-8"?><svg id="b" xmlns="http://www.w3.org/2000/svg" viewBox="0 0 256 256"><path d="M109.75,240l-6.53-33.18c-5.35-1.92-10.78-4.39-16.3-7.41-5.51-3.02-10.46-6.48-14.83-10.39l-31.95,10.67-18.25-31.69,25.11-22.08c-.49-2.86-.89-5.77-1.22-8.74s-.49-5.99-.49-9.06,.16-5.94,.49-8.87,.73-5.99,1.22-9.16l-25.11-22.08,18.25-31.46,31.83,10.56c4.61-3.99,9.57-7.47,14.89-10.45s10.73-5.46,16.24-7.47l6.65-33.18h36.5l6.53,33.3c5.74,2.16,11.14,4.65,16.18,7.47,5.04,2.82,9.91,6.26,14.59,10.33l32.31-10.56,18.25,31.46-25.58,22.44c.65,3.01,1.09,5.95,1.34,8.81,.24,2.86,.37,5.77,.37,8.76s-.14,5.78-.43,8.64c-.28,2.86-.67,5.91-1.16,9.16l25.35,22.2-18.25,31.69-32.19-10.79c-4.69,4.07-9.59,7.55-14.71,10.45-5.12,2.9-10.47,5.35-16.06,7.35l-6.53,33.3h-36.5Zm12.71-16h10.96l5.96-30.82c7.72-1.44,14.84-4.02,21.37-7.76,6.53-3.74,12.42-8.7,17.66-14.89l29.66,10.08,5.66-9.23-23.62-20.73c1.23-3.8,2.18-7.54,2.86-11.22,.68-3.68,1.02-7.49,1.02-11.43s-.34-7.83-1.02-11.43c-.68-3.6-1.63-7.26-2.86-10.98l23.86-20.97-5.66-9.23-30.01,9.96c-4.53-5.63-10.34-10.5-17.42-14.59-7.09-4.09-14.29-6.74-21.61-7.94l-5.73-30.82h-11.19l-5.61,30.7c-7.71,1.28-14.9,3.81-21.55,7.58-6.65,3.78-12.6,8.8-17.84,15.06l-29.66-9.96-5.66,9.23,23.5,20.73c-1.23,3.33-2.21,6.93-2.92,10.81-.72,3.87-1.08,7.86-1.08,11.96s.36,7.93,1.08,11.73c.72,3.79,1.65,7.4,2.81,10.81l-23.38,20.73,5.66,9.23,29.54-9.85c5.08,6.03,10.95,10.93,17.6,14.71,6.65,3.78,13.91,6.39,21.79,7.82l5.85,30.7Zm5.06-57.85c10.65,0,19.67-3.7,27.06-11.09,7.39-7.39,11.09-16.41,11.09-27.06s-3.7-19.67-11.09-27.06c-7.39-7.39-16.41-11.09-27.06-11.09s-19.57,3.7-27.01,11.09c-7.43,7.39-11.15,16.41-11.15,27.06s3.72,19.67,11.15,27.06c7.43,7.39,16.43,11.09,27.01,11.09Z"/></svg>