<?xml version="1.0" encoding="UTF-8"?><svg id="b" xmlns="http://www.w3.org/2000/svg" viewBox="0 0 256 256"><path d="M197.76,240c-5.38,0-10.03-1.91-13.8-5.68-3.77-3.77-5.68-8.41-5.68-13.79s1.91-10.03,5.68-13.8c3.77-3.77,8.41-5.68,13.8-5.68s10.02,1.91,13.79,5.68c3.77,3.77,5.68,8.41,5.68,13.8s-1.91,10.02-5.68,13.79c-3.77,3.77-8.41,5.68-13.79,5.68Zm-113.46,0c-5.38,0-10.02-1.91-13.79-5.68-3.77-3.77-5.68-8.41-5.68-13.79s1.91-10.03,5.68-13.8c3.77-3.77,8.41-5.68,13.79-5.68s10.03,1.91,13.8,5.68c3.77,3.77,5.68,8.41,5.68,13.8s-1.91,10.02-5.68,13.79c-3.77,3.77-8.41,5.68-13.8,5.68Zm0-58.53c-7.49,0-12.96-3.14-16.72-9.6-3.77-6.46-3.9-12.73-.4-19.17l16.95-30.47L41.04,31.54H19.12v-15.54h31.67l11.12,23.41H225.09c4.45,0,7.72,1.84,10,5.62,2.28,3.79,2.38,7.54,.32,11.49l-37.5,67.92c-1.82,3.2-4.26,5.73-7.25,7.51-2.99,1.78-6.31,2.69-9.87,2.69H94.78l-13.96,25.5-.07,3.44,.12,.23c.74,1.38,1.92,2.11,3.42,2.11H217.23v15.54H84.3Zm98.29-62.37v-.56l.2-.06,1.63-1.7,31.58-57.39,.16-3.09-2.72-1.36H69.37l30.64,64.15h82.58Z"/></svg>