<?xml version="1.0" encoding="UTF-8"?><svg id="b" xmlns="http://www.w3.org/2000/svg" viewBox="0 0 256 256"><path d="M167.46,118.25c4.48,0,8.28-1.57,11.39-4.7,3.12-3.13,4.67-6.94,4.67-11.42s-1.57-8.28-4.7-11.39c-3.13-3.12-6.94-4.68-11.42-4.68s-8.27,1.57-11.39,4.7c-3.12,3.13-4.67,6.94-4.67,11.42s1.57,8.28,4.7,11.39c3.13,3.12,6.94,4.68,11.42,4.68Zm-78.86,0c4.48,0,8.27-1.57,11.39-4.7,3.12-3.13,4.67-6.94,4.67-11.42s-1.57-8.28-4.7-11.39c-3.13-3.12-6.94-4.68-11.42-4.68s-8.28,1.57-11.39,4.7c-3.12,3.13-4.67,6.94-4.67,11.42s1.57,8.28,4.7,11.39c3.13,3.12,6.94,4.68,11.42,4.68Zm39.37,72.42c13.07,0,25.02-3.64,35.86-10.94,10.84-7.29,18.38-17.15,22.6-29.58h-20.28c-4.09,6.83-9.52,12.23-16.3,16.2-6.78,3.97-14.06,5.95-21.86,5.95s-15.08-1.98-21.86-5.95c-6.78-3.97-12.21-9.37-16.3-16.2h-20.28c4.23,12.43,11.75,22.29,22.57,29.58,10.82,7.29,22.76,10.94,35.83,10.94Zm.14,49.33c-15.41,0-29.92-2.91-43.53-8.74-13.61-5.83-25.53-13.85-35.75-24.06-10.22-10.21-18.24-22.12-24.08-35.72-5.83-13.6-8.75-28.13-8.75-43.59s2.91-29.95,8.74-43.46c5.83-13.51,13.85-25.38,24.06-35.59s22.12-18.24,35.72-24.08c13.6-5.83,28.13-8.75,43.59-8.75s29.95,2.91,43.46,8.74c13.51,5.83,25.38,13.85,35.59,24.06,10.22,10.21,18.24,22.1,24.08,35.65,5.83,13.55,8.75,28.03,8.75,43.44s-2.91,29.92-8.74,43.53c-5.83,13.61-13.85,25.53-24.06,35.75-10.21,10.22-22.1,18.24-35.65,24.08-13.55,5.83-28.03,8.75-43.44,8.75Zm-.1-16c26.67,0,49.33-9.33,68-28,18.67-18.67,28-41.33,28-68s-9.33-49.33-28-68c-18.67-18.67-41.33-28-68-28s-49.33,9.33-68,28c-18.67,18.67-28,41.33-28,68s9.33,49.33,28,68c18.67,18.67,41.33,28,68,28Z"/></svg>