<?xml version="1.0" encoding="UTF-8"?><svg id="b" xmlns="http://www.w3.org/2000/svg" viewBox="0 0 256 256"><path d="M195.91,234.83l-68.57-68.31c-4.81,2.08-10.04,3.75-15.7,4.99-5.65,1.24-11.38,1.86-17.19,1.86-21.57,0-40.04-7.63-55.4-22.88-15.37-15.26-23.06-33.67-23.06-55.24,0-7.46,.84-14.58,2.52-21.38,1.68-6.8,4.28-13.1,7.82-18.91l48.34,48.08,28.6-28.6L55.47,26.37c5.81-3.08,12-5.45,18.58-7.1,6.58-1.65,13.38-2.48,20.42-2.48,21.8,0,40.32,7.74,55.58,23.22,15.26,15.49,22.88,34.03,22.88,55.64,0,5.71-.6,10.94-1.8,15.68-1.2,4.74-2.88,9.43-5.05,14.07l69.67,69.59c2.83,2.94,4.25,6.5,4.25,10.67s-1.41,7.66-4.22,10.48l-19.32,18.98c-2.83,2.81-6.26,4.18-10.27,4.09-4.01-.09-7.44-1.55-10.27-4.38Zm10.42-14.67l15.22-14.88-76.89-76.21c4.28-5.63,7.11-11.69,8.47-18.17,1.36-6.48,2.05-11.59,2.05-15.31,0-16.69-6.43-31.44-19.29-44.24-12.86-12.81-28.7-18.41-47.52-16.82l32.31,31.96c2.24,2.28,3.36,4.94,3.36,7.98s-1.15,5.71-3.46,7.99l-38.19,37.9c-2.31,2.29-4.9,3.43-7.77,3.43s-5.39-1.12-7.55-3.36l-33.33-33.33c-2.01,20.24,3.42,36.72,16.3,49.44,12.88,12.72,27.69,19.08,44.43,19.08,3.93,0,9.33-.77,16.21-2.32,6.88-1.55,13.36-4.66,19.45-9.35l76.21,76.21Z"/></svg>