<?xml version="1.0" encoding="UTF-8"?><svg id="d" xmlns="http://www.w3.org/2000/svg" viewBox="0 0 256 256"><path d="M203.83,238.2c-7.47,0-14.85-2.37-21.96-7.05-7.43,4.58-15.01,6.91-22.53,6.91-.79,0-1.59-.03-2.37-.08-8.54-.54-16.09-4.09-22.45-10.54-6.4-6.4-9.98-14.03-10.64-22.66-.64-8.42,1.69-16.73,6.93-24.7-5.24-8.04-7.57-16.41-6.93-24.89,.66-8.69,4.23-16.36,10.63-22.78,6.41-6.43,14.04-9.97,22.68-10.51,.77-.05,1.54-.07,2.31-.07,7.62,0,15.15,2.41,22.39,7.18,7.16-4.67,14.56-7.04,22-7.04,.91,0,1.83,.04,2.75,.11,8.6,.66,16.2,4.19,22.61,10.5,6.41,6.32,9.99,13.95,10.65,22.68,.64,8.51-1.69,16.87-6.93,24.84,5.24,8.04,7.57,16.37,6.93,24.75-.66,8.6-4.24,16.21-10.64,22.62-6.41,6.41-14.03,9.99-22.67,10.64-.92,.07-1.85,.11-2.76,.11Zm-42.67-99.99c-.78,0-1.59,.05-2.39,.14-4.81,.56-8.98,2.57-12.37,5.96-3.4,3.4-5.42,7.56-6.02,12.38-.59,4.79,.52,9.27,3.31,13.32l6.8,10.05-6.68,10.33c-2.81,4.08-3.99,8.57-3.52,13.37,.47,4.81,2.43,8.96,5.82,12.35,3.39,3.39,7.63,5.32,12.62,5.74,.65,.06,1.31,.08,1.95,.08,4.23,0,8.16-1.24,11.69-3.67l9.79-6.23,10.04,6.38c3.45,2.23,7.2,3.35,11.18,3.35,.72,0,1.46-.04,2.2-.11,4.8-.47,8.91-2.43,12.2-5.81,3.3-3.39,5.19-7.57,5.61-12.43,.42-4.88-.61-9.46-3.07-13.61l-6.48-9.72,6.39-10.05c2.63-4.14,3.77-8.71,3.38-13.59-.38-4.84-2.2-8.83-5.39-11.84-3.42-3.42-7.64-5.49-12.55-6.18-.96-.13-1.92-.2-2.85-.2-3.78,0-7.34,1.14-10.59,3.38l-10.06,6.8-10.06-6.69c-3.39-2.34-7.07-3.52-10.95-3.52Zm-114.66,57.3V95.05l-20.27,15.51-10.22-13.3L121.9,17.8l105.9,79.56-10.11,13.19L121.9,38.6l-58.99,44.33v96.17h38.17v16.42H46.5Zm135.35-3.67c-3.27,0-6.07-1.16-8.33-3.43-2.25-2.28-3.4-5.08-3.4-8.35s1.16-6.07,3.43-8.33c2.28-2.25,5.08-3.4,8.35-3.4s6.07,1.16,8.33,3.43c2.25,2.27,3.4,5.08,3.4,8.35s-1.16,6.07-3.43,8.33c-2.28,2.25-5.08,3.4-8.35,3.4Z"/></svg>