<?xml version="1.0" encoding="UTF-8"?><svg id="b" xmlns="http://www.w3.org/2000/svg" viewBox="0 0 256 256"><path d="M27.11,238.74v-17.26H62.99l-8.65-9.16-.05-.04c-11.34-10.62-20.66-23.21-27.71-37.41-7.02-14.14-10.58-29.8-10.58-46.55,0-25.04,7.48-47.53,22.24-66.84,14.2-18.58,32.39-31.7,54.09-39.03v18.07c-17.05,7.08-31.23,18.41-42.15,33.71-11.22,15.71-16.91,33.91-16.91,54.08,0,13.89,2.86,26.97,8.51,38.88,5.63,11.86,13.34,22.18,22.93,30.67l9.74,9.75v-33.46h17.26v64.59H27.11Zm136.57-23.26c17.05-7.07,31.23-18.41,42.16-33.71,11.22-15.71,16.91-33.91,16.91-54.08,0-13.89-2.86-26.97-8.51-38.88-5.63-11.86-13.34-22.18-22.93-30.67l-9.74-9.75v33.46h-17.26V17.26h64.59v17.26h-35.88l8.67,9.18,.07,.06c11.63,10.29,21.01,22.78,27.9,37.11,6.87,14.31,10.35,30.06,10.35,46.81,0,25.04-7.48,47.53-22.24,66.84-14.2,18.58-32.39,31.7-54.09,39.03v-18.07Z"/></svg>