<?xml version="1.0" encoding="UTF-8"?><svg id="b" xmlns="http://www.w3.org/2000/svg" viewBox="0 0 256 256"><path d="M16,224.97V104.43h55.67L145.49,31.03l4.98,1.84,.1,.07c3.04,2.1,5.4,4.76,7.01,7.91,1.65,3.21,2.09,6.59,1.33,10.06l-.06,.25-.26,.29-9.56,52.99h72.64c5.02,0,9.37,1.81,12.94,5.38,3.57,3.57,5.38,7.92,5.38,12.94v11.21c0,1.36-.11,2.59-.32,3.68v.07s-1.14,3.29-1.14,3.29l-30.66,72.18c-1.61,3.6-4.07,6.48-7.31,8.6-3.24,2.11-6.88,3.19-10.8,3.19H16Zm173.63-15.99l1.91-.51,1.51-1.73,30.95-72.15v-11.65l-.71-1.81-1.81-.71h-91.49l11.8-63.31-54.72,54.52v97.34h102.55Zm-118.54,0V120.43H31.99v88.55h39.1Z"/></svg>