<?xml version="1.0" encoding="UTF-8"?><svg id="b" xmlns="http://www.w3.org/2000/svg" viewBox="0 0 256 256"><path d="M51.14,240v-15.95H120.02v-54.32h-27.97c-14.61,0-27.22-5.19-37.46-15.44-10.25-10.24-15.44-22.85-15.44-37.46,0-11.02,3.34-21.12,9.92-30.02,6.6-8.93,15.2-15.67,25.54-20.01l.55-.23,.07-.59c1.69-15.04,7.5-27.26,17.29-36.33,9.78-9.06,21.72-13.65,35.49-13.65s25.71,4.59,35.49,13.65c9.78,9.07,15.6,21.29,17.28,36.33l.07,.6,.56,.23c10.41,4.19,19.02,10.88,25.58,19.89,6.55,8.98,9.86,19.12,9.86,30.14,0,14.61-5.19,27.22-15.44,37.46-10.25,10.25-22.85,15.44-37.46,15.44h-27.96v54.32h68.89v15.95H51.14Zm28.82-157.97c-7.1,3-13.08,7.64-17.76,13.78-4.71,6.18-7.1,13.25-7.1,21.01,0,10.21,3.63,19.02,10.78,26.17,7.15,7.15,15.96,10.78,26.17,10.78h71.88c10.21,0,19.02-3.63,26.17-10.78,7.15-7.15,10.78-15.96,10.78-26.17,0-7.92-2.47-15.11-7.33-21.37-4.83-6.22-11.04-10.89-18.46-13.9l-9.03-3.78-1.26-10.2c-1.3-10.94-5.36-19.7-12.08-26.04-6.74-6.36-15.05-9.58-24.72-9.58s-17.99,3.22-24.72,9.58c-6.72,6.34-10.78,15.11-12.08,26.05l-1.26,10.2-9.97,4.24Z"/></svg>