<?xml version="1.0" encoding="UTF-8"?><svg id="b" xmlns="http://www.w3.org/2000/svg" viewBox="0 0 256 256"><path d="M120,194.27h16v-49.35l20.62,20.62,11.43-11.31-40.05-40.05-40.05,40.05,11.31,11.43,20.73-20.73v49.35Zm-54.76,45.73c-5.54,0-10.21-1.91-14.01-5.74-3.79-3.83-5.69-8.51-5.69-14.05V35.79c0-5.54,1.91-10.22,5.74-14.05,3.83-3.83,8.51-5.74,14.05-5.74h95.29l49.85,49.85V220.21c0,5.54-1.91,10.22-5.74,14.05-3.83,3.83-8.51,5.74-14.06,5.74H65.24ZM148.92,77.54V32H65.33l-2.6,1.18-1.18,2.6V220.21l1.18,2.6,2.6,1.18h125.35l2.6-1.18,1.18-2.6V77.54h-45.54ZM61.54,32v0Z"/></svg>