<?xml version="1.0" encoding="UTF-8"?><svg id="b" xmlns="http://www.w3.org/2000/svg" viewBox="0 0 256 256"><path d="M93.42,234.99l-19.35-32.62-36.75-8.05,3.59-37.83-24.9-28.49,24.9-28.49-3.59-37.83,36.75-8.05,19.35-32.62,34.58,14.68,34.58-14.68,19.35,32.62,36.75,8.05-3.59,37.83,24.9,28.49-24.9,28.49,3.59,37.83-36.75,8.05-19.35,32.62-34.58-14.68-34.58,14.68Zm6.92-20.77l27.66-11.72,27.99,11.72,15.39-26.03,29.83-6.84-2.71-30.58,20.06-22.78-20.06-23.11,2.71-30.58-29.83-6.51-15.73-26.03-27.66,11.72-27.99-11.72-15.39,26.03-29.83,6.51,2.71,30.58-20.06,23.11,20.06,22.78-2.71,30.91,29.83,6.51,15.73,26.03Zm16.27-51.48l57.52-57.52-11.43-11.76-46.09,46.09-23.32-22.98-11.43,11.43,34.75,34.75Z"/></svg>