<?xml version="1.0" encoding="UTF-8"?><svg id="b" xmlns="http://www.w3.org/2000/svg" viewBox="0 0 256 256"><path d="M36.5,216.21c-5.63,0-10.5-2.02-14.49-6.01-3.99-3.99-6.01-8.86-6.01-14.49v-32.6c0-1.75,.49-3.25,1.48-4.59,1-1.34,2.29-2.23,3.97-2.72l.07-.02,.07-.03c5.36-2.49,9.77-6.24,13.13-11.14,3.37-4.92,5.07-10.51,5.07-16.61s-1.71-11.68-5.07-16.6c-3.35-4.9-7.77-8.65-13.13-11.14l-.07-.03-.07-.02c-1.67-.49-2.97-1.38-3.97-2.72-1-1.34-1.48-2.85-1.48-4.59V60.29c0-5.63,2.02-10.5,6.01-14.49,3.99-3.99,8.86-6.01,14.49-6.01H219.5c5.63,0,10.5,2.02,14.49,6.01,3.98,3.99,6.01,8.86,6.01,14.49v32.6c0,1.75-.49,3.25-1.48,4.59-1,1.34-2.29,2.23-3.97,2.72l-.07,.02-.07,.03c-5.36,2.49-9.77,6.24-13.13,11.14-3.37,4.92-5.07,10.51-5.07,16.6s1.71,11.68,5.07,16.61c3.35,4.9,7.77,8.65,13.13,11.14l.07,.03,.07,.02c1.68,.49,2.97,1.38,3.97,2.72,1,1.34,1.48,2.84,1.48,4.59v32.6c0,5.63-2.02,10.5-6.01,14.49-3.99,3.98-8.86,6.01-14.49,6.01H36.5Zm-3.41-159.33l-1.26,3.22v27.44l.49,.29c7.15,4.25,12.89,9.99,17.04,17.04,4.15,7.05,6.25,14.83,6.25,23.13s-2.1,16.09-6.25,23.13c-4.16,7.06-9.89,12.79-17.04,17.04l-.49,.29v27.44l1.26,3.22,3.22,1.26H219.69l3.22-1.26,1.26-3.22v-27.44l-.49-.29c-7.15-4.25-12.89-9.99-17.04-17.04-4.15-7.05-6.25-14.83-6.25-23.13s2.1-16.08,6.25-23.13c4.16-7.05,9.89-12.79,17.04-17.04l.49-.29v-27.44l-1.26-3.22-3.22-1.26H36.31l-3.22,1.26Zm78.01,76.98l-27.1-21.6h33.26l10.75-33.15,10.75,33.15h33.21l-27.66,21.59,10.16,32.82-26.46-20.32-27.08,20.58,10.17-33.07Z"/></svg>