<?xml version="1.0" encoding="UTF-8"?><svg id="b" xmlns="http://www.w3.org/2000/svg" viewBox="0 0 256 256"><path d="M37.99,240c-5.87,0-11.06-2.21-15.42-6.57-4.36-4.36-6.57-9.55-6.57-15.42V37.99c0-6.04,2.21-11.27,6.56-15.54,4.36-4.28,9.55-6.45,15.43-6.45H218.01c6.04,0,11.27,2.17,15.55,6.44,4.27,4.28,6.44,9.51,6.44,15.55V218.01c0,5.88-2.17,11.07-6.45,15.43-4.28,4.35-9.5,6.56-15.54,6.56H37.99Zm98.3-16.58h81.91l3.75-1.47,1.47-3.75v-81.91h-87.13v87.13Zm-103.71-5.22l1.47,3.75,3.75,1.47H119.71v-87.13H32.58v81.91Zm103.71-98.49h87.13V37.8l-1.47-3.75-3.75-1.47h-81.91V119.71ZM34.05,34.05l-1.47,3.75V119.71H119.71V32.58H37.8l-3.75,1.47Z"/></svg>