<?xml version="1.0" encoding="UTF-8"?><svg id="b" xmlns="http://www.w3.org/2000/svg" viewBox="0 0 256 256"><path d="M81.02,240v-16.05h38.96v-61.62l-1.72-.27c-18.64-2.95-33.92-11.46-45.42-25.28-11.52-13.84-17.36-30.34-17.36-49.02V16H200.53V87.75c0,18.68-5.84,35.18-17.36,49.02-11.5,13.83-26.79,22.33-45.42,25.28l-1.72,.27v61.62h38.96v16.05H81.02Zm-8.22-141.83c2.43,13.74,8.83,25.4,19.03,34.64,10.25,9.29,22.42,13.99,36.17,13.99s25.92-4.71,36.17-13.99c10.2-9.25,16.61-20.91,19.04-34.65l.42-2.39H72.37l.42,2.39Zm-1.27-18.44h112.95V32.05H71.52v47.68Z"/></svg>