<?xml version="1.0" encoding="UTF-8"?><svg id="b" xmlns="http://www.w3.org/2000/svg" viewBox="0 0 256 256"><path d="M226.99,240l-83.42-83.77c-7,5.55-14.68,9.78-23.04,12.7-8.36,2.92-16.98,4.38-25.87,4.38-21.85,0-40.42-7.65-55.72-22.94-15.3-15.29-22.95-33.86-22.95-55.69s7.65-40.4,22.94-55.71c15.29-15.31,33.86-22.96,55.69-22.96s40.4,7.65,55.71,22.95c15.31,15.3,22.96,33.87,22.96,55.72,0,9.16-1.5,17.91-4.51,26.27-3.01,8.36-7.08,15.9-12.22,22.63l83.42,83.42-13.01,13.01ZM94.65,155.1c16.88,0,31.17-5.85,42.88-17.56,11.71-11.71,17.56-26,17.56-42.88s-5.85-31.17-17.56-42.88c-11.71-11.71-26-17.56-42.88-17.56s-31.17,5.85-42.88,17.56c-11.71,11.71-17.56,26-17.56,42.88s5.85,31.17,17.56,42.88c11.71,11.71,26,17.56,42.88,17.56Zm-32-51.34v-18.21h64v18.21H62.65Z"/></svg>