<?xml version="1.0" encoding="utf-8"?>
<!-- Generator: Adobe Illustrator 27.0.0, SVG Export Plug-In . SVG Version: 6.00 Build 0)  -->
<svg version="1.1" id="Layer_1" xmlns="http://www.w3.org/2000/svg" xmlns:xlink="http://www.w3.org/1999/xlink" x="0px" y="0px"
	 viewBox="0 0 24 24" style="enable-background:new 0 0 24 24;" xml:space="preserve">
<g>
	<path d="M6,14h8v-2H6V14z M6,11h12V9H6V11z M6,8h12V6H6V8z M2,22V4c0-0.5,0.2-1,0.6-1.4C3,2.2,3.5,2,4,2h16c0.6,0,1,0.2,1.4,0.6
		C21.8,3,22,3.5,22,4v12c0,0.6-0.2,1-0.6,1.4S20.6,18,20,18H6L2,22z M5.2,16H20V4H4v13.1L5.2,16z M4,16V4V16z"/>
</g>
</svg>
