<?xml version="1.0" encoding="utf-8"?>
<!-- Generator: Adobe Illustrator 27.0.0, SVG Export Plug-In . SVG Version: 6.00 Build 0)  -->
<svg version="1.1" id="Layer_1" xmlns="http://www.w3.org/2000/svg" xmlns:xlink="http://www.w3.org/1999/xlink" x="0px" y="0px"
	 viewBox="0 0 24 24" style="enable-background:new 0 0 24 24;" xml:space="preserve">
<g>
	<path d="M10.6,16.2l7-7.1l-1.4-1.4l-5.6,5.7l-2.9-2.9L6.3,12L10.6,16.2z M5,21c-0.5,0-1-0.2-1.4-0.6S3,19.6,3,19V5
		c0-0.5,0.2-1,0.6-1.4C4,3.2,4.5,3,5,3h14c0.6,0,1,0.2,1.4,0.6C20.8,4,21,4.5,21,5v14c0,0.6-0.2,1-0.6,1.4S19.6,21,19,21H5z M5,19
		h14V5H5V19z M5,5v14V5z"/>
</g>
</svg>
