<?xml version="1.0" encoding="utf-8"?>
<!-- Generator: Adobe Illustrator 27.0.0, SVG Export Plug-In . SVG Version: 6.00 Build 0)  -->
<svg version="1.1" id="Layer_1" xmlns="http://www.w3.org/2000/svg" xmlns:xlink="http://www.w3.org/1999/xlink" x="0px" y="0px"
	 viewBox="0 0 24 24" style="enable-background:new 0 0 24 24;" xml:space="preserve">
<g>
	<path d="M4,21c-0.5,0-1-0.2-1.4-0.6S2,19.6,2,19V5c0-0.5,0.2-1,0.6-1.4C3,3.2,3.5,3,4,3h14c0.6,0,1,0.2,1.4,0.6C19.8,4,20,4.5,20,5
		v2h2v2h-2v2h2v2h-2v2h2v2h-2v2c0,0.6-0.2,1-0.6,1.4S18.6,21,18,21H4z M4,19h14V5H4V19z M6,17h5v-4H6V17z M12,10h4V7h-4V10z M6,12h5
		V7H6V12z M12,17h4v-6h-4V17z M4,5v14V5z"/>
</g>
</svg>
