<?xml version="1.0" encoding="utf-8"?>
<!-- Generator: Adobe Illustrator 27.0.0, SVG Export Plug-In . SVG Version: 6.00 Build 0)  -->
<svg version="1.1" id="Layer_1" xmlns="http://www.w3.org/2000/svg" xmlns:xlink="http://www.w3.org/1999/xlink" x="0px" y="0px"
	 viewBox="0 0 24 24" style="enable-background:new 0 0 24 24;" xml:space="preserve">
<g>
	<path d="M14,19c0.3,0,0.5-0.1,0.7-0.3c0.2-0.2,0.3-0.4,0.3-0.7s-0.1-0.5-0.3-0.7C14.5,17.1,14.3,17,14,17s-0.5,0.1-0.7,0.3
		C13.1,17.5,13,17.7,13,18s0.1,0.5,0.3,0.7C13.5,18.9,13.7,19,14,19z M17,19c0.3,0,0.5-0.1,0.7-0.3c0.2-0.2,0.3-0.4,0.3-0.7
		s-0.1-0.5-0.3-0.7C17.5,17.1,17.3,17,17,17s-0.5,0.1-0.7,0.3S16,17.7,16,18s0.1,0.5,0.3,0.7C16.5,18.9,16.7,19,17,19z M3,13V4
		c0-0.5,0.2-1,0.6-1.4C4,2.2,4.5,2,5,2h14c0.6,0,1,0.2,1.4,0.6C20.8,3,21,3.5,21,4v9h-2V4H5v9H3z M5,15v5h14v-5H5z M5,22
		c-0.5,0-1-0.2-1.4-0.6S3,20.6,3,20v-7h18v7c0,0.6-0.2,1-0.6,1.4S19.6,22,19,22H5z M5,13h14H5z M5,15h14H5z"/>
</g>
</svg>
