<?xml version="1.0" encoding="utf-8"?>
<!-- Generator: Adobe Illustrator 27.0.0, SVG Export Plug-In . SVG Version: 6.00 Build 0)  -->
<svg version="1.1" id="Layer_1" xmlns="http://www.w3.org/2000/svg" xmlns:xlink="http://www.w3.org/1999/xlink" x="0px" y="0px"
	 viewBox="0 0 24 24" style="enable-background:new 0 0 24 24;" xml:space="preserve">
<g>
	<path d="M11,17h2v-6h-2V17z M12,9c0.3,0,0.5-0.1,0.7-0.3C12.9,8.5,13,8.3,13,8s-0.1-0.5-0.3-0.7S12.3,7,12,7s-0.5,0.1-0.7,0.3
		S11,7.7,11,8s0.1,0.5,0.3,0.7C11.5,8.9,11.7,9,12,9z M12,22c-1.4,0-2.7-0.3-3.9-0.8c-1.2-0.5-2.3-1.2-3.2-2.1s-1.6-2-2.1-3.2
		S2,13.4,2,12c0-1.4,0.3-2.7,0.8-3.9S4,5.8,4.9,4.9c0.9-0.9,2-1.6,3.2-2.1S10.6,2,12,2s2.7,0.3,3.9,0.8s2.3,1.2,3.2,2.1
		c0.9,0.9,1.6,2,2.1,3.2C21.7,9.3,22,10.6,22,12c0,1.4-0.3,2.7-0.8,3.9c-0.5,1.2-1.2,2.3-2.1,3.2s-2,1.6-3.2,2.1
		C14.7,21.7,13.4,22,12,22z M12,20c2.2,0,4.1-0.8,5.7-2.3c1.5-1.6,2.3-3.4,2.3-5.7s-0.8-4.1-2.3-5.7C16.1,4.8,14.2,4,12,4
		S7.9,4.8,6.3,6.3C4.8,7.9,4,9.8,4,12s0.8,4.1,2.3,5.7C7.9,19.2,9.8,20,12,20z"/>
</g>
</svg>
