<?xml version="1.0" encoding="utf-8"?>
<!-- Generator: Adobe Illustrator 27.0.0, SVG Export Plug-In . SVG Version: 6.00 Build 0)  -->
<svg version="1.1" id="Layer_1" xmlns="http://www.w3.org/2000/svg" xmlns:xlink="http://www.w3.org/1999/xlink" x="0px" y="0px"
	 viewBox="0 0 24 24" style="enable-background:new 0 0 24 24;" xml:space="preserve">
<g>
	<path d="M7.9,22.5c-3.5,0-6.4-2.9-6.4-6.4V7.9c0-3.5,2.9-6.4,6.4-6.4h8.2c3.5,0,6.4,2.9,6.4,6.4v8.2c0,3.5-2.9,6.4-6.4,6.4H7.9z
		 M7.9,3.4c-2.5,0-4.5,2-4.5,4.5v8.2c0,2.5,2,4.5,4.5,4.5h8.2c2.5,0,4.5-2,4.5-4.5V7.9c0-2.5-2-4.5-4.5-4.5H7.9z M12,17.5
		c-3,0-5.5-2.5-5.5-5.5S9,6.5,12,6.5c3,0,5.5,2.5,5.5,5.5S15,17.5,12,17.5z M12,8.4c-2,0-3.6,1.6-3.6,3.6s1.6,3.6,3.6,3.6
		c2,0,3.6-1.6,3.6-3.6S14,8.4,12,8.4z M17.5,8C16.7,8,16,7.3,16,6.5s0.6-1.4,1.4-1.4c0.8,0,1.4,0.6,1.4,1.4S18.2,8,17.5,8z"/>
</g>
</svg>
