<?xml version="1.0" encoding="utf-8"?>
<!-- Generator: Adobe Illustrator 27.0.0, SVG Export Plug-In . SVG Version: 6.00 Build 0)  -->
<svg version="1.1" id="Layer_1" xmlns="http://www.w3.org/2000/svg" xmlns:xlink="http://www.w3.org/1999/xlink" x="0px" y="0px"
	 viewBox="0 0 24 24" style="enable-background:new 0 0 24 24;" xml:space="preserve">
<g>
	<path d="M7,9V7h14v2H7z M7,13v-2h14v2H7z M7,17v-2h14v2H7z M4,9C3.7,9,3.5,8.9,3.3,8.7C3.1,8.5,3,8.3,3,8s0.1-0.5,0.3-0.7
		S3.7,7,4,7s0.5,0.1,0.7,0.3S5,7.7,5,8S4.9,8.5,4.7,8.7C4.5,8.9,4.3,9,4,9z M4,13c-0.3,0-0.5-0.1-0.7-0.3C3.1,12.5,3,12.3,3,12
		s0.1-0.5,0.3-0.7C3.5,11.1,3.7,11,4,11s0.5,0.1,0.7,0.3C4.9,11.5,5,11.7,5,12s-0.1,0.5-0.3,0.7C4.5,12.9,4.3,13,4,13z M4,17
		c-0.3,0-0.5-0.1-0.7-0.3C3.1,16.5,3,16.3,3,16c0-0.3,0.1-0.5,0.3-0.7S3.7,15,4,15s0.5,0.1,0.7,0.3S5,15.7,5,16
		c0,0.3-0.1,0.5-0.3,0.7C4.5,16.9,4.3,17,4,17z"/>
</g>
</svg>
