<?xml version="1.0" encoding="utf-8"?>
<!-- Generator: Adobe Illustrator 27.0.0, SVG Export Plug-In . SVG Version: 6.00 Build 0)  -->
<svg version="1.1" id="Layer_1" xmlns="http://www.w3.org/2000/svg" xmlns:xlink="http://www.w3.org/1999/xlink" x="0px" y="0px"
	 viewBox="0 0 24 24" style="enable-background:new 0 0 24 24;" xml:space="preserve">
<g>
	<path d="M9,12.5h1v-2h1c0.3,0,0.5-0.1,0.7-0.3C11.9,10,12,9.8,12,9.5v-1c0-0.3-0.1-0.5-0.3-0.7c-0.2-0.2-0.4-0.3-0.7-0.3H9V12.5z
		 M10,9.5v-1h1v1H10z M13,12.5h2c0.3,0,0.5-0.1,0.7-0.3c0.2-0.2,0.3-0.4,0.3-0.7v-3c0-0.3-0.1-0.5-0.3-0.7c-0.2-0.2-0.4-0.3-0.7-0.3
		h-2V12.5z M14,11.5v-3h1v3H14z M17,12.5h1v-2h1v-1h-1v-1h1v-1h-2V12.5z M8,18c-0.5,0-1-0.2-1.4-0.6C6.2,17,6,16.6,6,16V4
		c0-0.5,0.2-1,0.6-1.4C7,2.2,7.5,2,8,2h12c0.6,0,1,0.2,1.4,0.6C21.8,3,22,3.5,22,4v12c0,0.6-0.2,1-0.6,1.4S20.6,18,20,18H8z M8,16
		h12V4H8V16z M4,22c-0.5,0-1-0.2-1.4-0.6S2,20.6,2,20V6h2v14h14v2H4z M8,4v12V4z"/>
</g>
</svg>
