<?xml version="1.0" encoding="utf-8"?>
<!-- Generator: Adobe Illustrator 27.0.0, SVG Export Plug-In . SVG Version: 6.00 Build 0)  -->
<svg version="1.1" id="Layer_1" xmlns="http://www.w3.org/2000/svg" xmlns:xlink="http://www.w3.org/1999/xlink" x="0px" y="0px"
	 viewBox="0 0 24 24" style="enable-background:new 0 0 24 24;" xml:space="preserve">
<g>
	<path d="M17.3,20.6c-1.1,0.6-2.2,1-3.4,1.1c-1.2,0.1-2.3,0.1-3.4-0.2c-1.1-0.3-2.1-0.8-3.1-1.5c-1-0.7-1.7-1.6-2.4-2.7l1.7-1
		c1,1.7,2.4,2.8,4.2,3.3s3.6,0.3,5.3-0.7c1.7-1,2.8-2.4,3.3-4.2s0.3-3.6-0.7-5.3S16.4,6.5,14.6,6s-3.6-0.3-5.3,0.7L9.1,6.8l2.1,0.6
		l-0.5,2L5.3,7.9l1.5-5.5L8.7,3L8.1,5.1L8.2,5c1.1-0.6,2.2-1,3.4-1.1s2.3-0.1,3.4,0.2c1.1,0.3,2.1,0.8,3.1,1.5
		c1,0.7,1.7,1.6,2.4,2.7s1,2.2,1.1,3.4s0.1,2.3-0.2,3.4c-0.3,1.1-0.8,2.1-1.5,3.1C19.2,19.2,18.3,20,17.3,20.6z"/>
</g>
<g>
	<path d="M16,13.5h-2c0,0.1,0,0.1,0,0.2c0,0.1,0,0.1,0,0.2c0,0.3,0,0.5-0.1,0.7c-0.1,0.2-0.2,0.4-0.3,0.6h3.2V17h-5.6v-1.1
		c0.4-0.2,0.7-0.4,1-0.7c0.3-0.3,0.4-0.7,0.4-1.2c0-0.1,0-0.2,0-0.2c0-0.1,0-0.2,0-0.2h-1.3v-1.1h1c-0.1-0.2-0.1-0.4-0.2-0.6
		S12,11.4,12,11.1c0-0.5,0.1-0.9,0.3-1.2c0.2-0.4,0.5-0.6,0.9-0.8c0.4-0.2,0.8-0.3,1.3-0.3c0.6,0,1.1,0.1,1.5,0.4s0.8,0.7,1.1,1.1
		l-1.3,1c-0.1-0.2-0.3-0.4-0.5-0.5c-0.2-0.1-0.4-0.2-0.6-0.2c-0.2,0-0.3,0-0.5,0.1c-0.1,0.1-0.3,0.2-0.3,0.4
		c-0.1,0.2-0.1,0.3-0.1,0.6c0,0.1,0,0.3,0,0.4s0,0.2,0,0.4H16V13.5z"/>
</g>
</svg>
