<?xml version="1.0" encoding="utf-8"?>
<!-- Generator: Adobe Illustrator 27.0.0, SVG Export Plug-In . SVG Version: 6.00 Build 0)  -->
<svg version="1.1" id="Layer_1" xmlns="http://www.w3.org/2000/svg" xmlns:xlink="http://www.w3.org/1999/xlink" x="0px" y="0px"
	 viewBox="0 0 24 24" style="enable-background:new 0 0 24 24;" xml:space="preserve">
<g>
	<path d="M12,22c-1.2,0-2.4-0.2-3.5-0.7s-2-1.1-2.8-1.9c-0.8-0.8-1.5-1.8-1.9-2.8C3.2,15.4,3,14.2,3,13h2c0,1.9,0.7,3.6,2,5s3,2,5,2
		s3.6-0.7,5-2s2-3,2-5s-0.7-3.6-2-5s-3-2-5-2h-0.1l1.6,1.5L12,9L8,5l4-4l1.4,1.4L11.9,4H12c1.2,0,2.4,0.2,3.5,0.7s2,1.1,2.9,1.9
		c0.8,0.8,1.4,1.8,1.9,2.9S21,11.8,21,13s-0.2,2.4-0.7,3.5c-0.5,1.1-1.1,2-1.9,2.8c-0.8,0.8-1.8,1.5-2.9,1.9S13.2,22,12,22z"/>
</g>
</svg>
