<?xml version="1.0" encoding="utf-8"?>
<!-- Generator: Adobe Illustrator 27.0.0, SVG Export Plug-In . SVG Version: 6.00 Build 0)  -->
<svg version="1.1" id="Layer_1" xmlns="http://www.w3.org/2000/svg" xmlns:xlink="http://www.w3.org/1999/xlink" x="0px" y="0px"
	 viewBox="0 0 24 24" style="enable-background:new 0 0 24 24;" xml:space="preserve">
<g>
	<path d="M12,10l-1.4-1.4L12.2,7H8V5h4.2l-1.6-1.6L12,2l4,4L12,10z M7,22c-0.5,0-1-0.2-1.4-0.6S5,20.6,5,20c0-0.5,0.2-1,0.6-1.4
		S6.5,18,7,18s1,0.2,1.4,0.6S9,19.5,9,20c0,0.6-0.2,1-0.6,1.4S7.6,22,7,22z M17,22c-0.5,0-1-0.2-1.4-0.6C15.2,21,15,20.6,15,20
		c0-0.5,0.2-1,0.6-1.4C16,18.2,16.5,18,17,18c0.6,0,1,0.2,1.4,0.6S19,19.5,19,20c0,0.6-0.2,1-0.6,1.4S17.6,22,17,22z M1,4V2h3.3
		l4.3,9h7l3.9-7h2.3L17.3,12c-0.2,0.3-0.4,0.6-0.7,0.8s-0.6,0.3-1,0.3H8.1L7,15h12v2H7c-0.8,0-1.3-0.3-1.7-1c-0.4-0.6-0.4-1.3,0-2
		l1.3-2.4L3,4H1z"/>
</g>
</svg>
