<?xml version="1.0" encoding="utf-8"?>
<!-- Generator: Adobe Illustrator 27.0.0, SVG Export Plug-In . SVG Version: 6.00 Build 0)  -->
<svg version="1.1" id="Layer_1" xmlns="http://www.w3.org/2000/svg" xmlns:xlink="http://www.w3.org/1999/xlink" x="0px" y="0px"
	 viewBox="0 0 24 24" style="enable-background:new 0 0 24 24;" xml:space="preserve">
<g>
	<path d="M12,16c1.2,0,2.3-0.4,3.2-1.3s1.3-1.9,1.3-3.2s-0.4-2.3-1.3-3.2S13.2,7,12,7S9.7,7.4,8.8,8.3s-1.3,1.9-1.3,3.2
		s0.4,2.3,1.3,3.2S10.8,16,12,16z M12,14.2c-0.8,0-1.4-0.3-1.9-0.8c-0.5-0.5-0.8-1.2-0.8-1.9s0.3-1.4,0.8-1.9
		c0.5-0.5,1.2-0.8,1.9-0.8s1.4,0.3,1.9,0.8c0.5,0.5,0.8,1.2,0.8,1.9s-0.3,1.4-0.8,1.9C13.4,13.9,12.8,14.2,12,14.2z M12,19
		c-2.4,0-4.7-0.7-6.7-2S1.9,13.8,1,11.5C1.9,9.2,3.4,7.4,5.3,6c2-1.4,4.2-2,6.7-2s4.6,0.7,6.6,2c2,1.4,3.5,3.2,4.4,5.5
		c-0.9,2.3-2.4,4.1-4.4,5.5S14.4,19,12,19z M12,17c1.9,0,3.6-0.5,5.2-1.5c1.6-1,2.8-2.3,3.6-4c-0.8-1.7-2-3-3.6-4S13.9,6,12,6
		S8.4,6.5,6.8,7.5s-2.8,2.3-3.6,4c0.8,1.7,2,3,3.6,4C8.4,16.5,10.1,17,12,17z"/>
</g>
</svg>
