<?xml version="1.0" encoding="utf-8"?>
<!-- Generator: Adobe Illustrator 27.0.0, SVG Export Plug-In . SVG Version: 6.00 Build 0)  -->
<svg version="1.1" id="Layer_1" xmlns="http://www.w3.org/2000/svg" xmlns:xlink="http://www.w3.org/1999/xlink" x="0px" y="0px"
	 viewBox="0 0 24 24" style="enable-background:new 0 0 24 24;" xml:space="preserve">
<g>
	<path d="M1,21L12,2l11,19H1z M4.5,19h15.1L12,6L4.5,19z M12,18c0.3,0,0.5-0.1,0.7-0.3c0.2-0.2,0.3-0.4,0.3-0.7
		c0-0.3-0.1-0.5-0.3-0.7S12.3,16,12,16s-0.5,0.1-0.7,0.3S11,16.7,11,17c0,0.3,0.1,0.5,0.3,0.7C11.5,17.9,11.7,18,12,18z M11,15h2v-5
		h-2V15z"/>
</g>
</svg>
